G04 #@! TF.GenerationSoftware,KiCad,Pcbnew,(5.1.2)-2*
G04 #@! TF.CreationDate,2019-11-30T13:38:49+01:00*
G04 #@! TF.ProjectId,poisson2,706f6973-736f-46e3-922e-6b696361645f,rev?*
G04 #@! TF.SameCoordinates,Original*
G04 #@! TF.FileFunction,Copper,L2,Bot*
G04 #@! TF.FilePolarity,Positive*
%FSLAX46Y46*%
G04 Gerber Fmt 4.6, Leading zero omitted, Abs format (unit mm)*
G04 Created by KiCad (PCBNEW (5.1.2)-2) date 2019-11-30 13:38:49*
%MOMM*%
%LPD*%
G04 APERTURE LIST*
%ADD10C,2.000000*%
%ADD11R,2.000000X2.000000*%
%ADD12O,1.700000X1.700000*%
%ADD13R,1.700000X1.700000*%
%ADD14C,2.540000*%
%ADD15R,2.200000X2.200000*%
%ADD16C,2.200000*%
%ADD17C,3.000000*%
%ADD18O,2.500000X2.000000*%
%ADD19C,3.500000*%
%ADD20R,3.500000X3.500000*%
%ADD21O,2.000000X2.500000*%
%ADD22R,2.100000X2.100000*%
%ADD23R,3.000000X3.000000*%
%ADD24C,1.000000*%
%ADD25C,1.500000*%
%ADD26C,3.000000*%
%ADD27C,1.300000*%
%ADD28C,0.254000*%
G04 APERTURE END LIST*
D10*
X95000000Y-127500000D03*
X66000000Y-83750000D03*
D11*
X66000000Y-81250000D03*
D12*
X114350000Y-62960000D03*
D13*
X114350000Y-65500000D03*
D12*
X117250000Y-62960000D03*
D13*
X117250000Y-65500000D03*
D10*
X129540000Y-99250000D03*
D11*
X127000000Y-99250000D03*
D14*
X54700000Y-76700000D03*
X64860000Y-76700000D03*
X54300000Y-61000000D03*
X64460000Y-61000000D03*
X54200000Y-147700000D03*
X64360000Y-147700000D03*
X127040000Y-61000000D03*
X137200000Y-61000000D03*
D15*
X71300000Y-71600000D03*
D16*
X68760000Y-71600000D03*
D15*
X71200000Y-61000000D03*
D16*
X68660000Y-61000000D03*
D15*
X70400000Y-147600000D03*
D16*
X67860000Y-147600000D03*
D17*
X91000000Y-102000000D03*
X68000000Y-65700000D03*
X142600000Y-78700000D03*
X143600000Y-150000000D03*
X54200000Y-151600000D03*
D10*
X119050000Y-86450000D03*
D15*
X64800000Y-92200000D03*
D18*
X64800000Y-94740000D03*
D14*
X128750000Y-91500000D03*
X138910000Y-91500000D03*
D19*
X86000000Y-73700000D03*
D20*
X91000000Y-73700000D03*
D19*
X60000000Y-70900000D03*
D20*
X60000000Y-65900000D03*
D19*
X56400000Y-136800000D03*
D20*
X56400000Y-141800000D03*
D10*
X118800000Y-108700000D03*
D15*
X116900000Y-139000000D03*
D21*
X119440000Y-139000000D03*
D15*
X100960000Y-139000000D03*
D21*
X103500000Y-139000000D03*
D15*
X83900000Y-139600000D03*
D21*
X86440000Y-139600000D03*
D15*
X131100000Y-134200000D03*
D21*
X133640000Y-134200000D03*
D15*
X99000000Y-120250000D03*
D18*
X99000000Y-117710000D03*
D15*
X72500000Y-105750000D03*
D21*
X69960000Y-105750000D03*
D15*
X72500000Y-110750000D03*
D21*
X69960000Y-110750000D03*
D15*
X72500000Y-115750000D03*
D21*
X69960000Y-115750000D03*
D15*
X72500000Y-120750000D03*
D21*
X69960000Y-120750000D03*
D15*
X72500000Y-125750000D03*
D21*
X69960000Y-125750000D03*
D15*
X131000000Y-138000000D03*
D21*
X133540000Y-138000000D03*
D15*
X84000000Y-137000000D03*
D21*
X86540000Y-137000000D03*
D15*
X101000000Y-136000000D03*
D21*
X103540000Y-136000000D03*
D15*
X117000000Y-136000000D03*
D21*
X119540000Y-136000000D03*
D10*
X100200000Y-69900000D03*
X101400000Y-99100000D03*
X121200000Y-113100000D03*
X121200000Y-69900000D03*
D15*
X143400000Y-114500000D03*
D16*
X140860000Y-114500000D03*
D15*
X143400000Y-138500000D03*
D16*
X140860000Y-138500000D03*
D15*
X143400000Y-108250000D03*
D16*
X140860000Y-108250000D03*
D15*
X143200000Y-61000000D03*
D16*
X140660000Y-61000000D03*
D15*
X143200000Y-67000000D03*
D16*
X140660000Y-67000000D03*
D14*
X70750000Y-76750000D03*
X70750000Y-86910000D03*
X130250000Y-118250000D03*
X140410000Y-118250000D03*
X87660000Y-105750000D03*
X77500000Y-105750000D03*
X77340000Y-110750000D03*
X87500000Y-110750000D03*
X77340000Y-115750000D03*
X87500000Y-115750000D03*
X77500000Y-120750000D03*
X87660000Y-120750000D03*
X77340000Y-124750000D03*
X87500000Y-124750000D03*
X77340000Y-129750000D03*
X87500000Y-129750000D03*
X77000000Y-76750000D03*
X77000000Y-86910000D03*
X130250000Y-128200000D03*
X140410000Y-128200000D03*
X130250000Y-122400000D03*
X140410000Y-122400000D03*
X138600000Y-96200000D03*
X128440000Y-96200000D03*
X130250000Y-104500000D03*
X140410000Y-104500000D03*
X127200000Y-67000000D03*
X137360000Y-67000000D03*
D16*
X70770000Y-92345000D03*
X72040000Y-94885000D03*
D22*
X69500000Y-94885000D03*
D16*
X77000000Y-92250000D03*
X78270000Y-94790000D03*
D22*
X75730000Y-94790000D03*
D16*
X140500000Y-132930000D03*
X143040000Y-131660000D03*
D22*
X143040000Y-134200000D03*
D16*
X140500000Y-99900000D03*
X143040000Y-98630000D03*
D22*
X143040000Y-101170000D03*
D16*
X140560000Y-87670000D03*
X143100000Y-86400000D03*
D22*
X143100000Y-88940000D03*
D16*
X88000000Y-96410000D03*
X85460000Y-96410000D03*
X88000000Y-93870000D03*
X85460000Y-93870000D03*
X88000000Y-91330000D03*
X85460000Y-91330000D03*
X88000000Y-88790000D03*
X85460000Y-88790000D03*
X88000000Y-86250000D03*
D11*
X85460000Y-86250000D03*
D16*
X128460000Y-75340000D03*
X131000000Y-75340000D03*
X128460000Y-77880000D03*
X131000000Y-77880000D03*
X128460000Y-80420000D03*
X131000000Y-80420000D03*
X128460000Y-82960000D03*
X131000000Y-82960000D03*
X128460000Y-85500000D03*
D11*
X131000000Y-85500000D03*
D23*
X54900000Y-81600000D03*
D17*
X54900000Y-85800000D03*
X54900000Y-90000000D03*
X54900000Y-94200000D03*
X54900000Y-98400000D03*
X54900000Y-102600000D03*
X54900000Y-106800000D03*
X54900000Y-111000000D03*
X54900000Y-115200000D03*
X54900000Y-119400000D03*
X54900000Y-123600000D03*
X54900000Y-127800000D03*
X60000000Y-81600000D03*
X60000000Y-85800000D03*
X60000000Y-90000000D03*
X60000000Y-94200000D03*
X60000000Y-98400000D03*
X60000000Y-102600000D03*
X60000000Y-106800000D03*
X60000000Y-111000000D03*
X60000000Y-115200000D03*
X60000000Y-119400000D03*
X60000000Y-123600000D03*
X60000000Y-127800000D03*
D20*
X130000000Y-145000000D03*
D19*
X135000000Y-145000000D03*
X88000000Y-145000000D03*
D20*
X83000000Y-145000000D03*
D19*
X105000000Y-145000000D03*
D20*
X100000000Y-145000000D03*
X115000000Y-145000000D03*
D19*
X120000000Y-145000000D03*
D16*
X122430000Y-73700000D03*
X122430000Y-76240000D03*
X122430000Y-78780000D03*
X122430000Y-81320000D03*
X122430000Y-83860000D03*
X122430000Y-86400000D03*
X122430000Y-88940000D03*
X122430000Y-91480000D03*
X122430000Y-94020000D03*
X122430000Y-96560000D03*
X122430000Y-99100000D03*
X122430000Y-101640000D03*
X122430000Y-104180000D03*
X122430000Y-106720000D03*
X122430000Y-109260000D03*
X98935000Y-109260000D03*
X98935000Y-106720000D03*
X98935000Y-104180000D03*
X98935000Y-101640000D03*
X98935000Y-99100000D03*
X98935000Y-96560000D03*
X98935000Y-94020000D03*
X98935000Y-91480000D03*
X98935000Y-88940000D03*
X98935000Y-86400000D03*
X98935000Y-83860000D03*
X98935000Y-81320000D03*
X98935000Y-78780000D03*
X98935000Y-76240000D03*
X98935000Y-73700000D03*
D24*
X143040000Y-138140000D02*
X143400000Y-138500000D01*
X143040000Y-134200000D02*
X143040000Y-138140000D01*
X139760001Y-137400001D02*
X140860000Y-138500000D01*
X138039999Y-135679999D02*
X139760001Y-137400001D01*
X138039999Y-122973950D02*
X138039999Y-135679999D01*
X138613949Y-122400000D02*
X138039999Y-122973950D01*
X140410000Y-122400000D02*
X138613949Y-122400000D01*
X140410000Y-107800000D02*
X140860000Y-108250000D01*
X140410000Y-104500000D02*
X140410000Y-107800000D01*
X143000000Y-101210000D02*
X143040000Y-101170000D01*
X143400000Y-101530000D02*
X143040000Y-101170000D01*
X143400000Y-108250000D02*
X143400000Y-101530000D01*
X143400000Y-108250000D02*
X143400000Y-114500000D01*
X140660000Y-61000000D02*
X137200000Y-61000000D01*
X143200000Y-61000000D02*
X143200000Y-67000000D01*
X137805999Y-76294001D02*
X137805999Y-88729999D01*
X143200000Y-67000000D02*
X143200000Y-69100000D01*
X137805999Y-74494001D02*
X143200000Y-69100000D01*
X137805999Y-76294001D02*
X137805999Y-74494001D01*
X136609999Y-90395999D02*
X137805999Y-89199999D01*
X136609999Y-92604001D02*
X136609999Y-90395999D01*
X137875999Y-93870001D02*
X136609999Y-92604001D01*
X140047601Y-93870001D02*
X137875999Y-93870001D01*
X143100000Y-90817602D02*
X140047601Y-93870001D01*
X143100000Y-88940000D02*
X143100000Y-90817602D01*
X137360000Y-67000000D02*
X140660000Y-67000000D01*
X109000000Y-69050000D02*
X108300000Y-68350000D01*
X90921560Y-105750000D02*
X87660000Y-105750000D01*
X94334989Y-109163428D02*
X90921560Y-105750000D01*
X94334989Y-121084989D02*
X94334989Y-109163428D01*
X101535000Y-121636558D02*
X100571557Y-122600001D01*
X100571557Y-122600001D02*
X95850001Y-122600001D01*
X101535000Y-100391998D02*
X101535000Y-121636558D01*
X95850001Y-122600001D02*
X94334989Y-121084989D01*
X122430000Y-86400000D02*
X116050000Y-86400000D01*
X98935000Y-99100000D02*
X98999999Y-99100000D01*
X100183001Y-99039999D02*
X98935000Y-99039999D01*
X101535000Y-100391998D02*
X100183001Y-99039999D01*
X119240000Y-109260000D02*
X122430000Y-109260000D01*
X118300000Y-110200000D02*
X119240000Y-109260000D01*
X77350012Y-150250012D02*
X119559990Y-150250012D01*
X54900000Y-127800000D02*
X77350012Y-150250012D01*
X119559990Y-150250012D02*
X123250001Y-146560001D01*
X123250001Y-146560001D02*
X123250001Y-133921561D01*
X123250001Y-133921561D02*
X118300000Y-128971560D01*
X118300000Y-128971560D02*
X118300000Y-110200000D01*
X60000000Y-81600000D02*
X62079999Y-79520001D01*
X91000000Y-66700000D02*
X90700000Y-66400000D01*
X91000000Y-73700000D02*
X91000000Y-66700000D01*
X84678440Y-66400000D02*
X90700000Y-66400000D01*
X90700000Y-66400000D02*
X106350000Y-66400000D01*
D25*
X54900000Y-76900000D02*
X54700000Y-76700000D01*
X54900000Y-81600000D02*
X60000000Y-81600000D01*
X59100000Y-81600000D02*
X54900000Y-85800000D01*
X60000000Y-81600000D02*
X59100000Y-81600000D01*
X54900000Y-85800000D02*
X54900000Y-81600000D01*
X54900000Y-81140002D02*
X56520001Y-79520001D01*
X54900000Y-81600000D02*
X54900000Y-81140002D01*
X78329601Y-79520001D02*
X79789220Y-78060382D01*
X79789220Y-78060382D02*
X79789220Y-71289220D01*
X79789220Y-71289220D02*
X84678440Y-66400000D01*
X101700000Y-66400000D02*
X106350000Y-66400000D01*
X84678440Y-66400000D02*
X101700000Y-66400000D01*
X106350000Y-66400000D02*
X109000000Y-69050000D01*
X109000000Y-79350000D02*
X116050000Y-86400000D01*
X109000000Y-69050000D02*
X109000000Y-79350000D01*
X116050000Y-86400000D02*
X120751998Y-86400000D01*
D24*
X62079999Y-79520001D02*
X66020001Y-79520001D01*
X66020001Y-79520001D02*
X78329601Y-79520001D01*
X66000000Y-79540002D02*
X66020001Y-79520001D01*
X66000000Y-81250000D02*
X66000000Y-79540002D01*
X58270001Y-80729999D02*
X56000000Y-83000000D01*
X58270001Y-79520001D02*
X58270001Y-80729999D01*
X62079999Y-79520001D02*
X58270001Y-79520001D01*
X56000000Y-81250000D02*
X57729999Y-79520001D01*
X56000000Y-83000000D02*
X56000000Y-81250000D01*
X57729999Y-79520001D02*
X56520001Y-79520001D01*
X59479999Y-79520001D02*
X58270001Y-80729999D01*
X61020001Y-79520001D02*
X59479999Y-79520001D01*
D25*
X61020001Y-79520001D02*
X78329601Y-79520001D01*
X56520001Y-79520001D02*
X61020001Y-79520001D01*
D24*
X56399999Y-84300001D02*
X56399999Y-84149999D01*
X54900000Y-85800000D02*
X56399999Y-84300001D01*
X56399999Y-84149999D02*
X55750000Y-83500000D01*
X56520001Y-82729999D02*
X56520001Y-79520001D01*
X55750000Y-83500000D02*
X56520001Y-82729999D01*
X56320001Y-79520001D02*
X54900000Y-78100000D01*
X56520001Y-79520001D02*
X56320001Y-79520001D01*
D25*
X54900000Y-81600000D02*
X54900000Y-78100000D01*
X54900000Y-78100000D02*
X54900000Y-76900000D01*
D24*
X122430000Y-88940000D02*
X132260002Y-88940000D01*
X69600000Y-137400000D02*
X68725000Y-136525000D01*
X68725000Y-136525000D02*
X61499999Y-129299999D01*
X77340000Y-129750000D02*
X75250000Y-129750000D01*
X77340000Y-129750000D02*
X74100000Y-129750000D01*
X74250000Y-129750000D02*
X77340000Y-129750000D01*
X70725000Y-138525000D02*
X70710000Y-138510000D01*
X69960000Y-110750000D02*
X69960000Y-105750000D01*
X69960000Y-115750000D02*
X69960000Y-110750000D01*
X69960000Y-120750000D02*
X69960000Y-115750000D01*
X69960000Y-125750000D02*
X69960000Y-120750000D01*
X69960000Y-103889998D02*
X69960000Y-104547919D01*
X69960000Y-104547919D02*
X69960000Y-105750000D01*
X62121320Y-106800000D02*
X63599989Y-105321331D01*
X60000000Y-106800000D02*
X62121320Y-106800000D01*
X96334999Y-105506557D02*
X96334999Y-97035001D01*
X96334999Y-97035001D02*
X96810000Y-96560000D01*
X97548442Y-106720000D02*
X96334999Y-105506557D01*
X98935000Y-106720000D02*
X97548442Y-106720000D01*
X96810000Y-96560000D02*
X88150000Y-96560000D01*
X98935000Y-96560000D02*
X96810000Y-96560000D01*
X74500000Y-142300000D02*
X70725000Y-138525000D01*
X133540000Y-138000000D02*
X133350001Y-138000000D01*
X54900000Y-90000000D02*
X60240002Y-90000000D01*
X69960000Y-127610002D02*
X69960000Y-126952081D01*
X69960000Y-126952081D02*
X69960000Y-125750000D01*
X80450001Y-148250001D02*
X74500000Y-142300000D01*
X74460000Y-142260000D02*
X74500000Y-142300000D01*
X105949999Y-148250001D02*
X118649999Y-148250001D01*
X105350001Y-148250001D02*
X105949999Y-148250001D01*
X105000000Y-145000000D02*
X105000000Y-147474873D01*
X105000000Y-147474873D02*
X105775128Y-148250001D01*
X105775128Y-148250001D02*
X105949999Y-148250001D01*
X103949999Y-148250001D02*
X105350001Y-148250001D01*
X88775128Y-148250001D02*
X103949999Y-148250001D01*
X105000000Y-147474873D02*
X104224872Y-148250001D01*
X104224872Y-148250001D02*
X103949999Y-148250001D01*
X88775128Y-148250001D02*
X87224872Y-148250001D01*
X105000000Y-147474873D02*
X105350001Y-147824874D01*
X105350001Y-147824874D02*
X105350001Y-148250001D01*
X88000000Y-147474873D02*
X88775128Y-148250001D01*
X118649999Y-148250001D02*
X120000000Y-146900000D01*
X120000000Y-146900000D02*
X120000000Y-145000000D01*
X88000000Y-147474873D02*
X87224872Y-148250001D01*
X88000000Y-145000000D02*
X88000000Y-147474873D01*
X87224872Y-148250001D02*
X80450001Y-148250001D01*
X61499999Y-129299999D02*
X60000000Y-127800000D01*
X88150000Y-96560000D02*
X88000000Y-96410000D01*
X88000000Y-145000000D02*
X88000000Y-138460000D01*
X88000000Y-138460000D02*
X86540000Y-137000000D01*
X105000000Y-145000000D02*
X105000000Y-137460000D01*
X105000000Y-137460000D02*
X103540000Y-136000000D01*
X135000000Y-139460000D02*
X133540000Y-138000000D01*
X120000000Y-145000000D02*
X120000000Y-136460000D01*
X120000000Y-136460000D02*
X119540000Y-136000000D01*
X89949999Y-108449999D02*
X89799601Y-108449999D01*
X97850011Y-124600011D02*
X95843129Y-124600011D01*
X90793120Y-108449999D02*
X89949999Y-108449999D01*
X92500010Y-110156889D02*
X90793120Y-108449999D01*
X92500010Y-122171570D02*
X92500010Y-110156889D01*
X94928451Y-124600011D02*
X92500010Y-122171570D01*
X97850011Y-124600011D02*
X94928451Y-124600011D01*
X69960000Y-103500000D02*
X69960000Y-105750000D01*
X70280001Y-103179999D02*
X69960000Y-103500000D01*
X80058439Y-103179999D02*
X70280001Y-103179999D01*
X89949999Y-108449999D02*
X85328439Y-108449999D01*
X85328439Y-108449999D02*
X80058439Y-103179999D01*
X69960000Y-128110002D02*
X69960000Y-128000000D01*
X70199999Y-128350001D02*
X69960000Y-128110002D01*
X75940001Y-128350001D02*
X70199999Y-128350001D01*
X69960000Y-128000000D02*
X69975000Y-128015000D01*
X69960000Y-125750000D02*
X69960000Y-128000000D01*
X70725000Y-138525000D02*
X69975000Y-137775000D01*
X69975000Y-137775000D02*
X69600000Y-137400000D01*
X70000000Y-129750000D02*
X69975000Y-129775000D01*
X77340000Y-129750000D02*
X70000000Y-129750000D01*
X69975000Y-129775000D02*
X69975000Y-137775000D01*
X76025000Y-128975000D02*
X76295000Y-128705000D01*
X69975000Y-128975000D02*
X76025000Y-128975000D01*
X76295000Y-128705000D02*
X75940001Y-128350001D01*
X77340000Y-129750000D02*
X76295000Y-128705000D01*
X69975000Y-128975000D02*
X69975000Y-129775000D01*
X69975000Y-128015000D02*
X69975000Y-128975000D01*
X119540000Y-133040000D02*
X119540000Y-136000000D01*
X116499999Y-129999999D02*
X119540000Y-133040000D01*
X116499999Y-108049999D02*
X116499999Y-129999999D01*
X122430000Y-106720000D02*
X117829998Y-106720000D01*
X117829998Y-106720000D02*
X116499999Y-108049999D01*
X100531443Y-96560000D02*
X98935000Y-96560000D01*
X102760000Y-96560000D02*
X100531443Y-96560000D01*
X103535011Y-97335011D02*
X102760000Y-96560000D01*
X103535011Y-122464988D02*
X103535011Y-97335011D01*
X97850011Y-124600011D02*
X101399988Y-124600011D01*
X101399988Y-124600011D02*
X103535011Y-122464988D01*
X120000000Y-139560000D02*
X119440000Y-139000000D01*
X120000000Y-145000000D02*
X120000000Y-139560000D01*
X105000000Y-140500000D02*
X103500000Y-139000000D01*
X105000000Y-145000000D02*
X105000000Y-140500000D01*
X103500000Y-136040000D02*
X103540000Y-136000000D01*
X103500000Y-139000000D02*
X103500000Y-136040000D01*
X86440000Y-137100000D02*
X86540000Y-137000000D01*
X86440000Y-139600000D02*
X86440000Y-137100000D01*
X88000000Y-141160000D02*
X86440000Y-139600000D01*
X88000000Y-145000000D02*
X88000000Y-141160000D01*
X133600001Y-73803559D02*
X133600001Y-87600001D01*
X133600001Y-87600001D02*
X132260002Y-88940000D01*
X82193147Y-60399970D02*
X116899970Y-60399970D01*
X54900000Y-90000000D02*
X52778680Y-90000000D01*
X52778680Y-90000000D02*
X51899999Y-89121319D01*
X73843116Y-68750000D02*
X82193147Y-60399970D01*
X72250000Y-68750000D02*
X73843116Y-68750000D01*
X71300000Y-69700000D02*
X72250000Y-68750000D01*
X130374873Y-152100000D02*
X135000000Y-147474873D01*
X73000000Y-152100000D02*
X130374873Y-152100000D01*
X70400000Y-147600000D02*
X70400000Y-149500000D01*
X70400000Y-149500000D02*
X71600000Y-150700000D01*
D26*
X71900001Y-151000001D02*
X72000000Y-151100000D01*
X62775999Y-151000001D02*
X71900001Y-151000001D01*
D24*
X72000000Y-151100000D02*
X73000000Y-152100000D01*
X71600000Y-150700000D02*
X72000000Y-151100000D01*
D26*
X56400000Y-136800000D02*
X59400002Y-136800000D01*
X59400002Y-136800000D02*
X60650001Y-138049999D01*
X60650001Y-138049999D02*
X60650001Y-148874003D01*
X60650001Y-148874003D02*
X62775999Y-151000001D01*
D24*
X80315010Y-82384990D02*
X69736330Y-82384990D01*
X84250001Y-78449999D02*
X80315010Y-82384990D01*
X84250001Y-75449999D02*
X84250001Y-78449999D01*
X86000000Y-73700000D02*
X84250001Y-75449999D01*
X71300000Y-69700000D02*
X70350000Y-68750000D01*
X71300000Y-71600000D02*
X71300000Y-69700000D01*
X63599989Y-88699989D02*
X63510660Y-88610660D01*
X63510660Y-88610660D02*
X62121320Y-90000000D01*
X63500000Y-90000000D02*
X60000000Y-90000000D01*
X63599989Y-89900011D02*
X63599989Y-88699989D01*
X103635306Y-128500021D02*
X100993098Y-128500021D01*
X107535029Y-124600298D02*
X103635306Y-128500021D01*
X107535029Y-94636530D02*
X107535029Y-124600298D01*
X96793129Y-132699990D02*
X80289990Y-132699990D01*
X113231559Y-88940000D02*
X107535029Y-94636530D01*
X80289990Y-132699990D02*
X77340000Y-129750000D01*
X122430000Y-88940000D02*
X113231559Y-88940000D01*
X100993098Y-128500021D02*
X96793129Y-132699990D01*
X80289990Y-132699990D02*
X76800010Y-132699990D01*
X119500010Y-63000009D02*
X122399991Y-63000009D01*
X116899970Y-60399970D02*
X119500010Y-63000009D01*
X130536431Y-70739989D02*
X133600001Y-73803559D01*
X126840387Y-70739989D02*
X130536431Y-70739989D01*
X144655634Y-86400000D02*
X143100000Y-86400000D01*
X145250001Y-86994367D02*
X144655634Y-86400000D01*
X145250001Y-96419999D02*
X145250001Y-86994367D01*
X143040000Y-98630000D02*
X145250001Y-96419999D01*
X133640000Y-137900000D02*
X133540000Y-138000000D01*
X133640000Y-134200000D02*
X133640000Y-137900000D01*
X144595634Y-131660000D02*
X144635633Y-131699999D01*
X141080002Y-145000000D02*
X137474873Y-145000000D01*
X144595634Y-131660000D02*
X145600001Y-132664367D01*
X144595634Y-98630000D02*
X143040000Y-98630000D01*
X145600001Y-99634367D02*
X144595634Y-98630000D01*
X145600001Y-133400001D02*
X145600001Y-140480001D01*
X145600001Y-132664367D02*
X145600001Y-133400001D01*
X145600001Y-87359999D02*
X145600001Y-100299999D01*
X144640002Y-86400000D02*
X145600001Y-87359999D01*
X143100000Y-86400000D02*
X144640002Y-86400000D01*
X145600001Y-133400001D02*
X145600001Y-100299999D01*
X145600001Y-100299999D02*
X145600001Y-99634367D01*
X137884872Y-144590001D02*
X130374873Y-152100000D01*
X141490001Y-144590001D02*
X137884872Y-144590001D01*
X141490001Y-144590001D02*
X141080002Y-145000000D01*
X145600001Y-140480001D02*
X141490001Y-144590001D01*
X136990001Y-144590001D02*
X135000000Y-142600000D01*
X137884872Y-144590001D02*
X136990001Y-144590001D01*
X135000000Y-145000000D02*
X135000000Y-142600000D01*
X135000000Y-142600000D02*
X135000000Y-139460000D01*
X133980002Y-152100000D02*
X141490001Y-144590001D01*
X130374873Y-152100000D02*
X133980002Y-152100000D01*
D25*
X62680001Y-69150001D02*
X61749999Y-69150001D01*
X63080002Y-68750000D02*
X62680001Y-69150001D01*
X70350000Y-68750000D02*
X63080002Y-68750000D01*
X65386020Y-152500022D02*
X129974851Y-152500022D01*
X61809999Y-148924001D02*
X65386020Y-152500022D01*
X61809999Y-139735126D02*
X61809999Y-148924001D01*
X58874873Y-136800000D02*
X61809999Y-139735126D01*
X56400000Y-136800000D02*
X58874873Y-136800000D01*
X71300000Y-61100000D02*
X71200000Y-61000000D01*
X71300000Y-71600000D02*
X71300000Y-61100000D01*
D27*
X52445404Y-89454596D02*
X52050000Y-89059192D01*
X52139340Y-89148526D02*
X52445404Y-89454596D01*
X52139340Y-76285787D02*
X52139340Y-89148526D01*
X60000000Y-70900000D02*
X57525127Y-70900000D01*
X57525127Y-70900000D02*
X52139340Y-76285787D01*
X52139340Y-89148531D02*
X52139340Y-89148526D01*
X54900000Y-90000000D02*
X52990809Y-90000000D01*
X52990809Y-90000000D02*
X52139340Y-89148531D01*
X54900000Y-90000000D02*
X60000000Y-90000000D01*
X119853564Y-63000009D02*
X122399991Y-63000009D01*
X117503525Y-60649970D02*
X119853564Y-63000009D01*
X73796669Y-69150001D02*
X82296701Y-60649970D01*
X61749999Y-69150001D02*
X73796669Y-69150001D01*
X60000000Y-70900000D02*
X61749999Y-69150001D01*
X130182878Y-70739989D02*
X126840387Y-70739989D01*
X133350001Y-73907112D02*
X130182878Y-70739989D01*
X133350001Y-87549999D02*
X133350001Y-73907112D01*
X131960000Y-88940000D02*
X133350001Y-87549999D01*
X122430000Y-88940000D02*
X131960000Y-88940000D01*
X122599991Y-66129593D02*
X122599991Y-63200009D01*
X126840387Y-70369989D02*
X122599991Y-66129593D01*
X126840387Y-70739989D02*
X126840387Y-70369989D01*
D24*
X122399991Y-63000009D02*
X122599991Y-63200009D01*
X63599989Y-96940011D02*
X65800000Y-94740000D01*
X63599989Y-105321331D02*
X63599989Y-96940011D01*
X62121320Y-90000000D02*
X60000000Y-90000000D01*
X66780002Y-90000000D02*
X62121320Y-90000000D01*
X67000001Y-90219999D02*
X66780002Y-90000000D01*
X67000001Y-94180001D02*
X67000001Y-90219999D01*
X66440002Y-94740000D02*
X67000001Y-94180001D01*
X64800000Y-94740000D02*
X66440002Y-94740000D01*
X137474873Y-145000000D02*
X135000000Y-145000000D01*
D25*
X145550001Y-86139999D02*
X143100000Y-86139999D01*
X146250001Y-86839999D02*
X145550001Y-86139999D01*
X135000000Y-145000000D02*
X142250002Y-145000000D01*
X142250002Y-145000000D02*
X146250001Y-141000001D01*
X134749980Y-152500022D02*
X142250002Y-145000000D01*
X129974851Y-152500022D02*
X134749980Y-152500022D01*
X135000000Y-147474873D02*
X129974851Y-152500022D01*
X135000000Y-145000000D02*
X135000000Y-147474873D01*
X105000000Y-137149999D02*
X103850001Y-136000000D01*
X105000000Y-145000000D02*
X105000000Y-137149999D01*
X120000000Y-136149999D02*
X119850001Y-136000000D01*
X120000000Y-145000000D02*
X120000000Y-136149999D01*
X69649999Y-108250001D02*
X69649999Y-105750000D01*
X69649999Y-120271321D02*
X69649999Y-108250001D01*
X60000000Y-127800000D02*
X62121320Y-127800000D01*
X62121320Y-127800000D02*
X69649999Y-120271321D01*
D24*
X60000000Y-106800000D02*
X54900000Y-106800000D01*
X49549990Y-154449990D02*
X68450012Y-154449990D01*
X49399990Y-154299990D02*
X49549990Y-154449990D01*
X49399990Y-110178690D02*
X49399990Y-154299990D01*
X54900000Y-106800000D02*
X52778680Y-106800000D01*
X52778680Y-106800000D02*
X49399990Y-110178690D01*
X69300001Y-153600001D02*
X65600001Y-153600001D01*
X69300001Y-153600001D02*
X71900001Y-151000001D01*
X68450012Y-154449990D02*
X69300001Y-153600001D01*
X143040000Y-131660000D02*
X144595634Y-131660000D01*
X144740000Y-131660000D02*
X146250001Y-130149999D01*
X144595634Y-131660000D02*
X144740000Y-131660000D01*
D25*
X146250001Y-141000001D02*
X146250001Y-130149999D01*
X146250001Y-130149999D02*
X146250001Y-86839999D01*
D24*
X70400000Y-147600000D02*
X70400000Y-148300000D01*
X70400000Y-148300000D02*
X71300000Y-149200000D01*
X133640000Y-134200000D02*
X133640000Y-128082398D01*
X133640000Y-128082398D02*
X131387601Y-125829999D01*
X131387601Y-125829999D02*
X130172397Y-125829999D01*
X130172397Y-125829999D02*
X127230009Y-122887611D01*
X131960000Y-96830000D02*
X129540000Y-99250000D01*
X131960000Y-88940000D02*
X131960000Y-96830000D01*
X127230009Y-103419993D02*
X127230009Y-122887611D01*
X129540000Y-101110002D02*
X127230009Y-103419993D01*
X129540000Y-99250000D02*
X129540000Y-101110002D01*
X114350030Y-61757889D02*
X114350030Y-60649970D01*
X114350000Y-61757919D02*
X114350030Y-61757889D01*
X114350000Y-62960000D02*
X114350000Y-61757919D01*
D27*
X114350030Y-60649970D02*
X117503525Y-60649970D01*
D24*
X119290009Y-63250009D02*
X119000000Y-62960000D01*
X121150011Y-63250009D02*
X119290009Y-63250009D01*
X122599991Y-64699989D02*
X121150011Y-63250009D01*
X122599991Y-66129593D02*
X122599991Y-64699989D01*
X117250000Y-62960000D02*
X114350000Y-62960000D01*
X117250000Y-60903495D02*
X117326748Y-60826747D01*
X117250000Y-62960000D02*
X117250000Y-60903495D01*
X66435660Y-85317030D02*
X66435660Y-85685660D01*
X66000000Y-84881370D02*
X66435660Y-85317030D01*
X66000000Y-83750000D02*
X66000000Y-84881370D01*
X66435660Y-85685660D02*
X63510660Y-88610660D01*
X67192030Y-83810660D02*
X68310660Y-83810660D01*
X67131370Y-83750000D02*
X67192030Y-83810660D01*
X66000000Y-83750000D02*
X67131370Y-83750000D01*
X69736330Y-82384990D02*
X68310660Y-83810660D01*
X68310660Y-83810660D02*
X66435660Y-85685660D01*
X119460001Y-62960000D02*
X117250000Y-62960000D01*
X119500010Y-63000009D02*
X119460001Y-62960000D01*
X112399970Y-62212051D02*
X112399970Y-60649970D01*
X113147919Y-62960000D02*
X112399970Y-62212051D01*
X114350000Y-62960000D02*
X113147919Y-62960000D01*
D27*
X112399970Y-60649970D02*
X114350030Y-60649970D01*
D24*
X112212051Y-62212051D02*
X110649970Y-60649970D01*
X112399970Y-62212051D02*
X112212051Y-62212051D01*
D27*
X82296701Y-60649970D02*
X110649970Y-60649970D01*
X110649970Y-60649970D02*
X112399970Y-60649970D01*
D24*
X86751999Y-99010001D02*
X85860003Y-99010001D01*
X69509999Y-97509999D02*
X68240001Y-97509999D01*
X75240001Y-97509999D02*
X69509999Y-97509999D01*
X69500000Y-94885000D02*
X69500000Y-96885000D01*
X69500000Y-96885000D02*
X69509999Y-96894999D01*
X69509999Y-96894999D02*
X69509999Y-97509999D01*
X126400001Y-66200001D02*
X127200000Y-67000000D01*
X85460000Y-97718002D02*
X86751999Y-99010001D01*
X85460000Y-97718002D02*
X85460000Y-96410000D01*
X75740001Y-97509999D02*
X75240001Y-97509999D01*
X84360001Y-97509999D02*
X75740001Y-97509999D01*
X75730000Y-94790000D02*
X75730000Y-97499998D01*
X75730000Y-97499998D02*
X75740001Y-97509999D01*
X75500000Y-97250000D02*
X75240001Y-97509999D01*
X92844990Y-99010001D02*
X86751999Y-99010001D01*
X56800011Y-58499989D02*
X54300000Y-61000000D01*
X49899989Y-91321309D02*
X52778680Y-94200000D01*
X54300000Y-61000000D02*
X49899989Y-65400011D01*
X52600011Y-58499989D02*
X56800011Y-58499989D01*
X49899989Y-65400011D02*
X49899989Y-61200011D01*
X49899989Y-61200011D02*
X52600011Y-58499989D01*
X56999989Y-62550011D02*
X56999989Y-58499989D01*
X56900000Y-62650000D02*
X56999989Y-62550011D01*
X56900000Y-65400000D02*
X56900000Y-62650000D01*
X56999989Y-58499989D02*
X56800011Y-58499989D01*
X54149989Y-65400011D02*
X49899989Y-65400011D01*
X54150000Y-65400000D02*
X54149989Y-65400011D01*
X56900000Y-65400000D02*
X54150000Y-65400000D01*
X56900000Y-65400000D02*
X56900000Y-65300000D01*
X56900000Y-65300000D02*
X54700000Y-63100000D01*
X56900000Y-62650000D02*
X56650000Y-62650000D01*
X56650000Y-62650000D02*
X54400000Y-64900000D01*
X54400000Y-64900000D02*
X54600000Y-64700000D01*
X54600000Y-64700000D02*
X54600000Y-63800000D01*
X117828430Y-58499989D02*
X56999989Y-58499989D01*
X120328441Y-61000000D02*
X117828430Y-58499989D01*
X127040000Y-61000000D02*
X120328441Y-61000000D01*
X129624882Y-67000000D02*
X127200000Y-67000000D01*
X135600011Y-72975128D02*
X129624882Y-67000000D01*
X135600011Y-88577546D02*
X135600011Y-72975128D01*
X134500000Y-89677557D02*
X135600011Y-88577546D01*
X134456051Y-107340000D02*
X134500000Y-107340000D01*
X130250000Y-109750000D02*
X130250000Y-113750000D01*
X134500000Y-109500000D02*
X130250000Y-113750000D01*
X134500000Y-107340000D02*
X134500000Y-109500000D01*
X130250000Y-113750000D02*
X130250000Y-122400000D01*
X134500000Y-118150000D02*
X130250000Y-122400000D01*
X134500000Y-109500000D02*
X134500000Y-118150000D01*
X134500000Y-105200000D02*
X134500000Y-105500000D01*
X134500000Y-105200000D02*
X134500000Y-89677557D01*
X134500000Y-107340000D02*
X134500000Y-105200000D01*
X51500000Y-92921320D02*
X49899989Y-91321309D01*
X51500000Y-100900000D02*
X51500000Y-92921320D01*
X51500000Y-100900000D02*
X51500000Y-101500000D01*
X51500000Y-95478680D02*
X51500000Y-100900000D01*
X49899989Y-99899989D02*
X52000000Y-102000000D01*
X49899989Y-90800011D02*
X49899989Y-99899989D01*
X51500000Y-101500000D02*
X52000000Y-102000000D01*
X49899989Y-90800011D02*
X49899989Y-91321309D01*
X49899989Y-65400011D02*
X49899989Y-90800011D01*
X57250000Y-65900000D02*
X54850000Y-63500000D01*
X60000000Y-65900000D02*
X57250000Y-65900000D01*
X54850000Y-63500000D02*
X53100000Y-63500000D01*
X60000000Y-65900000D02*
X59500000Y-65900000D01*
X59500000Y-65900000D02*
X57400000Y-63800000D01*
X60000000Y-65900000D02*
X58900000Y-65900000D01*
X58900000Y-65900000D02*
X57800000Y-67000000D01*
D25*
X53500001Y-61799999D02*
X54300000Y-61000000D01*
X50049990Y-65250010D02*
X53500001Y-61799999D01*
X50049990Y-89887622D02*
X50049990Y-65250010D01*
X53850001Y-92850001D02*
X53012369Y-92850001D01*
X54900000Y-93900000D02*
X53850001Y-92850001D01*
X54900000Y-94200000D02*
X54900000Y-93900000D01*
X52600000Y-102600000D02*
X52000000Y-102000000D01*
X54900000Y-102600000D02*
X52600000Y-102600000D01*
X52600000Y-102600000D02*
X49899989Y-99899989D01*
X49899989Y-90037623D02*
X50049990Y-89887622D01*
X49899989Y-99899989D02*
X49899989Y-90037623D01*
X51500000Y-95478680D02*
X51500000Y-101500000D01*
X52778680Y-94200000D02*
X51500000Y-95478680D01*
X54900000Y-94200000D02*
X52778680Y-94200000D01*
X51181184Y-98618794D02*
X49899989Y-99899989D01*
X51181184Y-91018816D02*
X51181184Y-98618794D01*
X51181184Y-91018816D02*
X50049990Y-89887622D01*
X53012369Y-92850001D02*
X51181184Y-91018816D01*
X59200000Y-65900000D02*
X54300000Y-61000000D01*
X60000000Y-65900000D02*
X59200000Y-65900000D01*
X128996051Y-67000000D02*
X127200000Y-67000000D01*
X129412750Y-67000000D02*
X128996051Y-67000000D01*
X135450010Y-73037260D02*
X129412750Y-67000000D01*
X135450010Y-88366300D02*
X135450010Y-73037260D01*
X134300000Y-89516310D02*
X135450010Y-88366300D01*
X127200000Y-61160000D02*
X127040000Y-61000000D01*
X127200000Y-67000000D02*
X127200000Y-61160000D01*
X55099999Y-60200001D02*
X54300000Y-61000000D01*
X56750040Y-58549960D02*
X55099999Y-60200001D01*
X118231955Y-58549960D02*
X56750040Y-58549960D01*
X120681994Y-60999999D02*
X118231955Y-58549960D01*
X127040000Y-61000000D02*
X120681994Y-60999999D01*
X85460000Y-96410000D02*
X84360001Y-97509999D01*
X69500000Y-97435000D02*
X69574999Y-97509999D01*
X69500000Y-94885000D02*
X69500000Y-97435000D01*
X69574999Y-97509999D02*
X68240001Y-97509999D01*
X68240001Y-97509999D02*
X65600000Y-100150000D01*
X65600000Y-100150000D02*
X65600000Y-119400000D01*
X65600000Y-119400000D02*
X60000000Y-119400000D01*
X86504367Y-99010001D02*
X92844990Y-99010001D01*
X85460000Y-97965634D02*
X86504367Y-99010001D01*
X85460000Y-96410000D02*
X85460000Y-97965634D01*
X85860003Y-99010001D02*
X84360001Y-97509999D01*
X86504367Y-99010001D02*
X85860003Y-99010001D01*
X94334989Y-100034989D02*
X94334989Y-106334988D01*
X93310001Y-99010001D02*
X94334989Y-100034989D01*
X92844990Y-99010001D02*
X93310001Y-99010001D01*
X94334989Y-106334988D02*
X96335000Y-108334999D01*
X96400000Y-120250000D02*
X99000000Y-120250000D01*
X96335000Y-120185000D02*
X96400000Y-120250000D01*
X96335000Y-108334999D02*
X96335000Y-120185000D01*
D24*
X75390001Y-97179999D02*
X75390001Y-97509999D01*
X75730000Y-96840000D02*
X75390001Y-97179999D01*
X75730000Y-94790000D02*
X75730000Y-96840000D01*
D25*
X84360001Y-97509999D02*
X75390001Y-97509999D01*
X75390001Y-97509999D02*
X69574999Y-97509999D01*
D24*
X130250000Y-104500000D02*
X134300000Y-100450000D01*
D25*
X134300000Y-105700000D02*
X134300000Y-100450000D01*
X134300000Y-100450000D02*
X134300000Y-89516310D01*
D24*
X130250000Y-106296051D02*
X130250000Y-122400000D01*
X130250000Y-104500000D02*
X130250000Y-106296051D01*
X52778680Y-123600000D02*
X54900000Y-123600000D01*
X51700000Y-124678680D02*
X52778680Y-123600000D01*
X54200000Y-147700000D02*
X51700000Y-145200000D01*
X51700000Y-124678680D02*
X51700000Y-122600000D01*
X51700000Y-145200000D02*
X51700000Y-141800000D01*
X51700000Y-141800000D02*
X51700000Y-124678680D01*
D25*
X53400001Y-146900001D02*
X54200000Y-147700000D01*
X51649999Y-145149999D02*
X53400001Y-146900001D01*
X53339999Y-124549999D02*
X51649999Y-126239999D01*
X54250001Y-124549999D02*
X53339999Y-124549999D01*
X54900000Y-123900000D02*
X54250001Y-124549999D01*
X54900000Y-123600000D02*
X54900000Y-123900000D01*
X54900000Y-119400000D02*
X51700000Y-122600000D01*
X51700000Y-126189998D02*
X51649999Y-126239999D01*
X51700000Y-122600000D02*
X51700000Y-126189998D01*
X54900000Y-119400000D02*
X54900000Y-123600000D01*
D27*
X52150001Y-142999999D02*
X51649999Y-142999999D01*
X53350000Y-141800000D02*
X52150001Y-142999999D01*
D25*
X51649999Y-142999999D02*
X51649999Y-145149999D01*
D27*
X51649999Y-140099999D02*
X51649999Y-139199999D01*
X53350000Y-141800000D02*
X51649999Y-140099999D01*
X56400000Y-141800000D02*
X53350000Y-141800000D01*
D25*
X51649999Y-126239999D02*
X51649999Y-139199999D01*
X51649999Y-139199999D02*
X51649999Y-142999999D01*
D24*
X62000000Y-92200000D02*
X60000000Y-94200000D01*
X64800000Y-92200000D02*
X62000000Y-92200000D01*
X105535021Y-98735138D02*
X105535019Y-123771867D01*
X105535019Y-123771867D02*
X102806875Y-126500011D01*
X102806875Y-126500011D02*
X94671569Y-126500011D01*
X105535021Y-78744387D02*
X105535021Y-98735138D01*
X100490634Y-73700000D02*
X105535021Y-78744387D01*
X98935000Y-73700000D02*
X100490634Y-73700000D01*
X72500000Y-105750000D02*
X77500000Y-105750000D01*
X89796051Y-110750000D02*
X88000000Y-110750000D01*
X90500000Y-111453949D02*
X89796051Y-110750000D01*
X90500000Y-123000000D02*
X90500000Y-111453949D01*
X102806875Y-126500011D02*
X94000011Y-126500011D01*
X94000011Y-126500011D02*
X90500000Y-123000000D01*
X85703949Y-110750000D02*
X87500000Y-110750000D01*
X84296051Y-110750000D02*
X85703949Y-110750000D01*
X79296051Y-105750000D02*
X84296051Y-110750000D01*
X77500000Y-105750000D02*
X79296051Y-105750000D01*
X84700000Y-115750000D02*
X79700000Y-110750000D01*
X87500000Y-115750000D02*
X84700000Y-115750000D01*
X79700000Y-110750000D02*
X77340000Y-110750000D01*
X72500000Y-110750000D02*
X77340000Y-110750000D01*
X84900000Y-120750000D02*
X79900000Y-115750000D01*
X87660000Y-120750000D02*
X84900000Y-120750000D01*
X79900000Y-115750000D02*
X77340000Y-115750000D01*
X72500000Y-115750000D02*
X77340000Y-115750000D01*
X72500000Y-120750000D02*
X77500000Y-120750000D01*
X84850000Y-124750000D02*
X87500000Y-124750000D01*
X77500000Y-120750000D02*
X80850000Y-120750000D01*
X80850000Y-120750000D02*
X84850000Y-124750000D01*
X85100000Y-129750000D02*
X80100000Y-124750000D01*
X80100000Y-124750000D02*
X77340000Y-124750000D01*
X87500000Y-129750000D02*
X85100000Y-129750000D01*
X73500000Y-124750000D02*
X72500000Y-125750000D01*
X77340000Y-124750000D02*
X73500000Y-124750000D01*
X122430000Y-78780000D02*
X125020000Y-78780000D01*
X125020000Y-78780000D02*
X128460000Y-75340000D01*
X128460000Y-75340000D02*
X128460000Y-77880000D01*
X128460000Y-77880000D02*
X128460000Y-80420000D01*
X128460000Y-80420000D02*
X128460000Y-82960000D01*
X128460000Y-82960000D02*
X128460000Y-85500000D01*
X127560000Y-78780000D02*
X122430000Y-78780000D01*
X128460000Y-77880000D02*
X127560000Y-78780000D01*
X126820000Y-78780000D02*
X122430000Y-78780000D01*
X128460000Y-80420000D02*
X126820000Y-78780000D01*
X124280000Y-78780000D02*
X122430000Y-78780000D01*
X128460000Y-82960000D02*
X124280000Y-78780000D01*
X123985634Y-78780000D02*
X122430000Y-78780000D01*
X125030001Y-79824367D02*
X123985634Y-78780000D01*
X128460000Y-85500000D02*
X125030001Y-82070001D01*
X125030001Y-82070001D02*
X125030001Y-79824367D01*
X123711998Y-76240000D02*
X127211999Y-72739999D01*
X122430000Y-76240000D02*
X123711998Y-76240000D01*
X127211999Y-72739999D02*
X129708001Y-72739999D01*
X129708001Y-72739999D02*
X131000000Y-74031998D01*
X131000000Y-74031998D02*
X131000000Y-75340000D01*
X131000000Y-77880000D02*
X131000000Y-75340000D01*
X131000000Y-85500000D02*
X131000000Y-82960000D01*
X131000000Y-82960000D02*
X131000000Y-80420000D01*
X131000000Y-80420000D02*
X131000000Y-77880000D01*
X83000000Y-83250000D02*
X83000000Y-88490002D01*
X83000000Y-88490002D02*
X83299998Y-88790000D01*
X83299998Y-88790000D02*
X83904366Y-88790000D01*
X83904366Y-88790000D02*
X85460000Y-88790000D01*
X83540000Y-88790000D02*
X85460000Y-88790000D01*
X84930000Y-81320000D02*
X83000000Y-83250000D01*
X98935000Y-81320000D02*
X84930000Y-81320000D01*
X78135000Y-84385000D02*
X76120998Y-84385000D01*
X76120998Y-84385000D02*
X73300001Y-87205997D01*
X73300001Y-87205997D02*
X73300001Y-93624999D01*
X73300001Y-93624999D02*
X72939999Y-93985001D01*
X72939999Y-93985001D02*
X72040000Y-94885000D01*
X82080000Y-91330000D02*
X79500000Y-88750000D01*
X85460000Y-91330000D02*
X82080000Y-91330000D01*
X79500000Y-88750000D02*
X79500000Y-85750000D01*
X79500000Y-85750000D02*
X78135000Y-84385000D01*
X72040000Y-94885000D02*
X72050001Y-94885000D01*
X85460000Y-93870000D02*
X79190000Y-93870000D01*
X79190000Y-93870000D02*
X78270000Y-94790000D01*
X98935000Y-94020000D02*
X88150000Y-94020000D01*
X88150000Y-94020000D02*
X88000000Y-93870000D01*
X98935000Y-91480000D02*
X88150000Y-91480000D01*
X88150000Y-91480000D02*
X88000000Y-91330000D01*
X98935000Y-88940000D02*
X88150000Y-88940000D01*
X88150000Y-88940000D02*
X88000000Y-88790000D01*
X98935000Y-86400000D02*
X88150000Y-86400000D01*
X88150000Y-86400000D02*
X88000000Y-86250000D01*
X130200000Y-138000000D02*
X129150000Y-138000000D01*
X131000000Y-138000000D02*
X130200000Y-138000000D01*
X130000000Y-145000000D02*
X130000000Y-138200000D01*
X130000000Y-138200000D02*
X130200000Y-138000000D01*
X131000000Y-144000000D02*
X130000000Y-145000000D01*
X123350000Y-99100000D02*
X122430000Y-99100000D01*
X128000000Y-137100000D02*
X128900000Y-138000000D01*
X131000000Y-134300000D02*
X131100000Y-134200000D01*
X131000000Y-138000000D02*
X131000000Y-134300000D01*
X129250000Y-134200000D02*
X131100000Y-134200000D01*
X125229999Y-130179999D02*
X129250000Y-134200000D01*
X125250000Y-104150398D02*
X125229999Y-104170399D01*
X123600000Y-99100000D02*
X125250000Y-100750000D01*
X125250000Y-100750000D02*
X125250000Y-104150398D01*
X125500000Y-126900000D02*
X125229999Y-126629999D01*
X125229999Y-104170399D02*
X125229999Y-126629999D01*
X125459998Y-128200000D02*
X125229999Y-127970001D01*
X130250000Y-128200000D02*
X125459998Y-128200000D01*
X125229999Y-126629999D02*
X125229999Y-127970001D01*
X125229999Y-127970001D02*
X125229999Y-130179999D01*
X125229999Y-134329999D02*
X125229999Y-130179999D01*
X128900000Y-138000000D02*
X125229999Y-134329999D01*
X131000000Y-138000000D02*
X128900000Y-138000000D01*
X128750000Y-91500000D02*
X122450000Y-91500000D01*
X122450000Y-91500000D02*
X122430000Y-91480000D01*
X97999990Y-134321569D02*
X101571569Y-130749990D01*
X84000000Y-135150000D02*
X84650000Y-134500000D01*
X83000000Y-145000000D02*
X83000000Y-136150000D01*
X83000000Y-136150000D02*
X84000000Y-135150000D01*
X84000000Y-137000000D02*
X84000000Y-135150000D01*
X121352370Y-91480000D02*
X121322370Y-91450000D01*
X122430000Y-91480000D02*
X121352370Y-91480000D01*
X83500000Y-137000000D02*
X83000000Y-137500000D01*
X83000000Y-137500000D02*
X83000000Y-145000000D01*
X84000000Y-137000000D02*
X83500000Y-137000000D01*
X101571569Y-130749990D02*
X101821527Y-130500032D01*
X101571569Y-130749990D02*
X101821528Y-130500031D01*
X101821527Y-130500032D02*
X97999990Y-134321569D01*
X104463735Y-130500032D02*
X101821527Y-130500032D01*
X110499989Y-124463778D02*
X104463735Y-130500032D01*
X110499990Y-124463778D02*
X110499989Y-124463778D01*
X110499990Y-94500010D02*
X113520000Y-91480000D01*
X110499990Y-124463778D02*
X110499990Y-94500010D01*
X104463737Y-130500031D02*
X110499990Y-124463778D01*
X113520000Y-91480000D02*
X120070000Y-91480000D01*
X101821528Y-130500031D02*
X104463737Y-130500031D01*
X97999990Y-134321569D02*
X101821528Y-130500031D01*
X120070000Y-91480000D02*
X121352370Y-91480000D01*
X97999990Y-134500000D02*
X97999990Y-134321569D01*
X83900000Y-137100000D02*
X84000000Y-137000000D01*
X83900000Y-139600000D02*
X83900000Y-137100000D01*
X83900000Y-144100000D02*
X83000000Y-145000000D01*
X83900000Y-139600000D02*
X83900000Y-144100000D01*
X101821529Y-130500031D02*
X104463737Y-130500031D01*
X97821560Y-134500000D02*
X101821529Y-130500031D01*
X96000000Y-134500000D02*
X97821560Y-134500000D01*
X96000000Y-134500000D02*
X97999990Y-134500000D01*
X84650000Y-134500000D02*
X96000000Y-134500000D01*
X100000000Y-145000000D02*
X100000000Y-135150000D01*
X100000000Y-135150000D02*
X101000000Y-134150000D01*
X101000000Y-134150000D02*
X101000000Y-136000000D01*
X100000000Y-136000000D02*
X100000000Y-145000000D01*
X101000000Y-136000000D02*
X100000000Y-136000000D01*
X102649958Y-132500042D02*
X101000000Y-134150000D01*
X122430000Y-101640000D02*
X117253115Y-101640000D01*
X117253115Y-101640000D02*
X112500000Y-106393115D01*
X100960000Y-136040000D02*
X101000000Y-136000000D01*
X100960000Y-139000000D02*
X100960000Y-136040000D01*
X100960000Y-144040000D02*
X100000000Y-145000000D01*
X100960000Y-139000000D02*
X100960000Y-144040000D01*
X112500000Y-125292209D02*
X105292168Y-132500041D01*
X112500000Y-106393115D02*
X112500000Y-125292209D01*
X105292168Y-132500041D02*
X102649959Y-132500041D01*
X102649959Y-132500041D02*
X102525000Y-132625000D01*
X117000000Y-134600000D02*
X117000000Y-136000000D01*
X115000000Y-145000000D02*
X115000000Y-136150000D01*
X115000000Y-136150000D02*
X116550000Y-134600000D01*
X116550000Y-134600000D02*
X117000000Y-134600000D01*
X120984351Y-104150000D02*
X119300000Y-104150000D01*
X122430000Y-104180000D02*
X121014351Y-104180000D01*
X121014351Y-104180000D02*
X120984351Y-104150000D01*
X116000000Y-136000000D02*
X115000000Y-137000000D01*
X115000000Y-137000000D02*
X115000000Y-145000000D01*
X117000000Y-136000000D02*
X116000000Y-136000000D01*
X117571556Y-104150000D02*
X119300000Y-104150000D01*
X114499989Y-107221567D02*
X117571556Y-104150000D01*
X114499989Y-131399989D02*
X114499989Y-107221567D01*
X117000000Y-133900000D02*
X114499989Y-131399989D01*
X117000000Y-136000000D02*
X117000000Y-133900000D01*
X116900000Y-136100000D02*
X117000000Y-136000000D01*
X116900000Y-139000000D02*
X116900000Y-136100000D01*
X115000000Y-140900000D02*
X116900000Y-139000000D01*
X115000000Y-145000000D02*
X115000000Y-140900000D01*
D25*
X115000000Y-137789990D02*
X116789990Y-136000000D01*
X115000000Y-145000000D02*
X115000000Y-137789990D01*
D24*
X77000000Y-86910000D02*
X77000000Y-92250000D01*
X70770000Y-92345000D02*
X70770000Y-86930000D01*
X70770000Y-86930000D02*
X70750000Y-86910000D01*
X140410000Y-132840000D02*
X140500000Y-132930000D01*
X140410000Y-128200000D02*
X140410000Y-132840000D01*
X138250000Y-96750000D02*
X138615000Y-96750000D01*
X138600000Y-98000000D02*
X140500000Y-99900000D01*
X138600000Y-96200000D02*
X138600000Y-98000000D01*
X138940000Y-91530000D02*
X138910000Y-91500000D01*
X140560000Y-89850000D02*
X140560000Y-87670000D01*
X138910000Y-91500000D02*
X140560000Y-89850000D01*
X116531558Y-83860000D02*
X122430000Y-83860000D01*
X110999989Y-78328431D02*
X116531558Y-83860000D01*
X77000000Y-76750000D02*
X77299991Y-76450009D01*
X77299991Y-76450009D02*
X77299991Y-70950009D01*
X77299991Y-70950009D02*
X83850009Y-64399990D01*
X83850009Y-64399990D02*
X107178431Y-64399990D01*
X107178431Y-64399990D02*
X110999989Y-68221548D01*
X110999989Y-68221548D02*
X110999989Y-78328431D01*
X112999999Y-67393117D02*
X112999999Y-77500001D01*
X70750000Y-76750000D02*
X72900398Y-76750000D01*
X72900398Y-76750000D02*
X75299980Y-74350418D01*
X116819998Y-81320000D02*
X122430000Y-81320000D01*
X75299980Y-74350418D02*
X75299980Y-70121577D01*
X112999999Y-77500001D02*
X116819998Y-81320000D01*
X75299980Y-70121577D02*
X83021578Y-62399980D01*
X83021578Y-62399980D02*
X108006863Y-62399980D01*
X108006863Y-62399980D02*
X112999999Y-67393117D01*
X128090000Y-96750000D02*
X125360000Y-94020000D01*
X125360000Y-94020000D02*
X122430000Y-94020000D01*
X122660000Y-94250000D02*
X122430000Y-94020000D01*
X140410000Y-114950000D02*
X140860000Y-114500000D01*
X140410000Y-118250000D02*
X140410000Y-114950000D01*
X99000000Y-117710000D02*
X99000000Y-109325000D01*
X99000000Y-109325000D02*
X98935000Y-109260000D01*
X98935000Y-83860000D02*
X85850000Y-83860000D01*
X85850000Y-83860000D02*
X85460000Y-84250000D01*
X85460000Y-84250000D02*
X85460000Y-86250000D01*
X67760000Y-147700000D02*
X67860000Y-147600000D01*
X64360000Y-147700000D02*
X67760000Y-147700000D01*
X64460000Y-61000000D02*
X68660000Y-61000000D01*
X68560000Y-71800000D02*
X68760000Y-71600000D01*
D25*
X64860000Y-75500000D02*
X68760000Y-71600000D01*
X64860000Y-76700000D02*
X64860000Y-75500000D01*
D24*
X114350000Y-65914677D02*
X115500000Y-67064677D01*
X114350000Y-65500000D02*
X114350000Y-65914677D01*
X115500000Y-67064677D02*
X115500000Y-71500000D01*
X117700000Y-73700000D02*
X122430000Y-73700000D01*
X115500000Y-71500000D02*
X117700000Y-73700000D01*
X114350000Y-65500000D02*
X117250000Y-65500000D01*
X117064677Y-65500000D02*
X115500000Y-67064677D01*
X117250000Y-65500000D02*
X117064677Y-65500000D01*
X124310000Y-96560000D02*
X127000000Y-99250000D01*
X122430000Y-96560000D02*
X124310000Y-96560000D01*
D28*
G36*
X56102984Y-58903946D02*
G01*
X55399758Y-59561803D01*
X55319924Y-59380129D01*
X54984305Y-59212277D01*
X54622389Y-59113126D01*
X54248084Y-59086486D01*
X53875773Y-59133382D01*
X53519765Y-59252012D01*
X53280076Y-59380129D01*
X53151753Y-59672148D01*
X54181277Y-60701672D01*
X53995685Y-60875290D01*
X52972148Y-59851753D01*
X52680129Y-59980076D01*
X52512277Y-60315695D01*
X52413126Y-60677611D01*
X52386486Y-61051916D01*
X52433382Y-61424227D01*
X52552012Y-61780235D01*
X52680129Y-62019924D01*
X52742713Y-62047426D01*
X50310888Y-64322359D01*
X50130046Y-61248044D01*
X52649844Y-58631330D01*
X56102984Y-58903946D01*
X56102984Y-58903946D01*
G37*
X56102984Y-58903946D02*
X55399758Y-59561803D01*
X55319924Y-59380129D01*
X54984305Y-59212277D01*
X54622389Y-59113126D01*
X54248084Y-59086486D01*
X53875773Y-59133382D01*
X53519765Y-59252012D01*
X53280076Y-59380129D01*
X53151753Y-59672148D01*
X54181277Y-60701672D01*
X53995685Y-60875290D01*
X52972148Y-59851753D01*
X52680129Y-59980076D01*
X52512277Y-60315695D01*
X52413126Y-60677611D01*
X52386486Y-61051916D01*
X52433382Y-61424227D01*
X52552012Y-61780235D01*
X52680129Y-62019924D01*
X52742713Y-62047426D01*
X50310888Y-64322359D01*
X50130046Y-61248044D01*
X52649844Y-58631330D01*
X56102984Y-58903946D01*
G36*
X75473382Y-130174227D02*
G01*
X75592012Y-130530235D01*
X75720129Y-130769924D01*
X76012148Y-130898247D01*
X76983395Y-129927000D01*
X77273000Y-129927000D01*
X77273000Y-129996605D01*
X76191753Y-131077852D01*
X76320076Y-131369871D01*
X76655695Y-131537723D01*
X77017611Y-131636874D01*
X77273000Y-131655051D01*
X77273000Y-144704594D01*
X69827000Y-137645400D01*
X69827000Y-129927000D01*
X75442241Y-129927000D01*
X75473382Y-130174227D01*
X75473382Y-130174227D01*
G37*
X75473382Y-130174227D02*
X75592012Y-130530235D01*
X75720129Y-130769924D01*
X76012148Y-130898247D01*
X76983395Y-129927000D01*
X77273000Y-129927000D01*
X77273000Y-129996605D01*
X76191753Y-131077852D01*
X76320076Y-131369871D01*
X76655695Y-131537723D01*
X77017611Y-131636874D01*
X77273000Y-131655051D01*
X77273000Y-144704594D01*
X69827000Y-137645400D01*
X69827000Y-129927000D01*
X75442241Y-129927000D01*
X75473382Y-130174227D01*
G36*
X86567000Y-139473000D02*
G01*
X86587000Y-139473000D01*
X86587000Y-139585416D01*
X86531650Y-139541927D01*
X86538237Y-139453000D01*
X86567000Y-139453000D01*
X86567000Y-139473000D01*
X86567000Y-139473000D01*
G37*
X86567000Y-139473000D02*
X86587000Y-139473000D01*
X86587000Y-139585416D01*
X86531650Y-139541927D01*
X86538237Y-139453000D01*
X86567000Y-139453000D01*
X86567000Y-139473000D01*
G36*
X88010197Y-138489803D02*
G01*
X88029443Y-138505597D01*
X88050748Y-138516985D01*
X87995649Y-138833803D01*
X87902398Y-138598100D01*
X87746490Y-138356505D01*
X87810653Y-138290259D01*
X88010197Y-138489803D01*
X88010197Y-138489803D01*
G37*
X88010197Y-138489803D02*
X88029443Y-138505597D01*
X88050748Y-138516985D01*
X87995649Y-138833803D01*
X87902398Y-138598100D01*
X87746490Y-138356505D01*
X87810653Y-138290259D01*
X88010197Y-138489803D01*
G36*
X86567000Y-139473000D02*
G01*
X86587000Y-139473000D01*
X86587000Y-139600334D01*
X86531164Y-139548486D01*
X86538237Y-139453000D01*
X86567000Y-139453000D01*
X86567000Y-139473000D01*
X86567000Y-139473000D01*
G37*
X86567000Y-139473000D02*
X86587000Y-139473000D01*
X86587000Y-139600334D01*
X86531164Y-139548486D01*
X86538237Y-139453000D01*
X86567000Y-139453000D01*
X86567000Y-139473000D01*
G36*
X88063869Y-138349639D02*
G01*
X87991137Y-138822398D01*
X87902398Y-138598100D01*
X87746490Y-138356505D01*
X87827610Y-138272752D01*
X87881161Y-138189769D01*
X88063869Y-138349639D01*
X88063869Y-138349639D01*
G37*
X88063869Y-138349639D02*
X87991137Y-138822398D01*
X87902398Y-138598100D01*
X87746490Y-138356505D01*
X87827610Y-138272752D01*
X87881161Y-138189769D01*
X88063869Y-138349639D01*
G36*
X90855615Y-73342456D02*
G01*
X85365387Y-66527000D01*
X95655232Y-66527000D01*
X90855615Y-73342456D01*
X90855615Y-73342456D01*
G37*
X90855615Y-73342456D02*
X85365387Y-66527000D01*
X95655232Y-66527000D01*
X90855615Y-73342456D01*
G36*
X56776529Y-65376381D02*
G01*
X50025274Y-65563916D01*
X53224806Y-62494095D01*
X53280076Y-62619871D01*
X53615695Y-62787723D01*
X53977611Y-62886874D01*
X54351916Y-62913514D01*
X54724227Y-62866618D01*
X55080235Y-62747988D01*
X55319924Y-62619871D01*
X55448247Y-62327852D01*
X54444368Y-61323973D01*
X54627689Y-61148084D01*
X55627852Y-62148247D01*
X55919871Y-62019924D01*
X56087723Y-61684305D01*
X56186874Y-61322389D01*
X56213514Y-60948084D01*
X56166618Y-60575773D01*
X56047988Y-60219765D01*
X55919871Y-59980076D01*
X55868553Y-59957525D01*
X56964064Y-58906427D01*
X56776529Y-65376381D01*
X56776529Y-65376381D01*
G37*
X56776529Y-65376381D02*
X50025274Y-65563916D01*
X53224806Y-62494095D01*
X53280076Y-62619871D01*
X53615695Y-62787723D01*
X53977611Y-62886874D01*
X54351916Y-62913514D01*
X54724227Y-62866618D01*
X55080235Y-62747988D01*
X55319924Y-62619871D01*
X55448247Y-62327852D01*
X54444368Y-61323973D01*
X54627689Y-61148084D01*
X55627852Y-62148247D01*
X55919871Y-62019924D01*
X56087723Y-61684305D01*
X56186874Y-61322389D01*
X56213514Y-60948084D01*
X56166618Y-60575773D01*
X56047988Y-60219765D01*
X55919871Y-59980076D01*
X55868553Y-59957525D01*
X56964064Y-58906427D01*
X56776529Y-65376381D01*
G36*
X58663795Y-63512796D02*
G01*
X58250000Y-63511928D01*
X58125518Y-63524188D01*
X58005820Y-63560498D01*
X57895506Y-63619463D01*
X57798815Y-63698815D01*
X57719463Y-63795506D01*
X57660498Y-63905820D01*
X57624188Y-64025518D01*
X57611928Y-64150000D01*
X57615000Y-65614250D01*
X57773750Y-65773000D01*
X58613569Y-65773000D01*
X58607924Y-66027000D01*
X57773750Y-66027000D01*
X57615000Y-66185750D01*
X57612299Y-67473000D01*
X50054175Y-67473000D01*
X51058105Y-62327852D01*
X53151753Y-62327852D01*
X53280076Y-62619871D01*
X53615695Y-62787723D01*
X53977611Y-62886874D01*
X54351916Y-62913514D01*
X54724227Y-62866618D01*
X55080235Y-62747988D01*
X55319924Y-62619871D01*
X55448247Y-62327852D01*
X54300000Y-61179605D01*
X53151753Y-62327852D01*
X51058105Y-62327852D01*
X51307069Y-61051916D01*
X52386486Y-61051916D01*
X52433382Y-61424227D01*
X52552012Y-61780235D01*
X52680129Y-62019924D01*
X52972148Y-62148247D01*
X54120395Y-61000000D01*
X54479605Y-61000000D01*
X55627852Y-62148247D01*
X55919871Y-62019924D01*
X56087723Y-61684305D01*
X56186874Y-61322389D01*
X56213514Y-60948084D01*
X56166618Y-60575773D01*
X56047988Y-60219765D01*
X55919871Y-59980076D01*
X55627852Y-59851753D01*
X54479605Y-61000000D01*
X54120395Y-61000000D01*
X52972148Y-59851753D01*
X52680129Y-59980076D01*
X52512277Y-60315695D01*
X52413126Y-60677611D01*
X52386486Y-61051916D01*
X51307069Y-61051916D01*
X51606721Y-59516202D01*
X53385211Y-59323933D01*
X53280076Y-59380129D01*
X53151753Y-59672148D01*
X54300000Y-60820395D01*
X55448247Y-59672148D01*
X55319924Y-59380129D01*
X54984305Y-59212277D01*
X54824075Y-59168380D01*
X58769817Y-58741814D01*
X58663795Y-63512796D01*
X58663795Y-63512796D01*
G37*
X58663795Y-63512796D02*
X58250000Y-63511928D01*
X58125518Y-63524188D01*
X58005820Y-63560498D01*
X57895506Y-63619463D01*
X57798815Y-63698815D01*
X57719463Y-63795506D01*
X57660498Y-63905820D01*
X57624188Y-64025518D01*
X57611928Y-64150000D01*
X57615000Y-65614250D01*
X57773750Y-65773000D01*
X58613569Y-65773000D01*
X58607924Y-66027000D01*
X57773750Y-66027000D01*
X57615000Y-66185750D01*
X57612299Y-67473000D01*
X50054175Y-67473000D01*
X51058105Y-62327852D01*
X53151753Y-62327852D01*
X53280076Y-62619871D01*
X53615695Y-62787723D01*
X53977611Y-62886874D01*
X54351916Y-62913514D01*
X54724227Y-62866618D01*
X55080235Y-62747988D01*
X55319924Y-62619871D01*
X55448247Y-62327852D01*
X54300000Y-61179605D01*
X53151753Y-62327852D01*
X51058105Y-62327852D01*
X51307069Y-61051916D01*
X52386486Y-61051916D01*
X52433382Y-61424227D01*
X52552012Y-61780235D01*
X52680129Y-62019924D01*
X52972148Y-62148247D01*
X54120395Y-61000000D01*
X54479605Y-61000000D01*
X55627852Y-62148247D01*
X55919871Y-62019924D01*
X56087723Y-61684305D01*
X56186874Y-61322389D01*
X56213514Y-60948084D01*
X56166618Y-60575773D01*
X56047988Y-60219765D01*
X55919871Y-59980076D01*
X55627852Y-59851753D01*
X54479605Y-61000000D01*
X54120395Y-61000000D01*
X52972148Y-59851753D01*
X52680129Y-59980076D01*
X52512277Y-60315695D01*
X52413126Y-60677611D01*
X52386486Y-61051916D01*
X51307069Y-61051916D01*
X51606721Y-59516202D01*
X53385211Y-59323933D01*
X53280076Y-59380129D01*
X53151753Y-59672148D01*
X54300000Y-60820395D01*
X55448247Y-59672148D01*
X55319924Y-59380129D01*
X54984305Y-59212277D01*
X54824075Y-59168380D01*
X58769817Y-58741814D01*
X58663795Y-63512796D01*
G36*
X68896660Y-122254300D02*
G01*
X69161794Y-122437646D01*
X69457602Y-122565744D01*
X69579566Y-122590124D01*
X69763036Y-122503724D01*
X69753793Y-123991923D01*
X69579566Y-123909876D01*
X69457602Y-123934256D01*
X69161794Y-124062354D01*
X68896660Y-124245700D01*
X68672390Y-124477248D01*
X68497602Y-124748100D01*
X68379013Y-125047847D01*
X68321181Y-125364970D01*
X68478984Y-125623000D01*
X69743662Y-125623000D01*
X69742084Y-125877000D01*
X68478984Y-125877000D01*
X68321181Y-126135030D01*
X68379013Y-126452153D01*
X68497602Y-126751900D01*
X68672390Y-127022752D01*
X68896660Y-127254300D01*
X69161794Y-127437646D01*
X69457602Y-127565744D01*
X69579566Y-127590124D01*
X69731889Y-127518392D01*
X69674817Y-136706954D01*
X61587963Y-129064433D01*
X61807214Y-128956038D01*
X61998020Y-128581255D01*
X62112044Y-128176449D01*
X62144902Y-127757176D01*
X62104728Y-127418694D01*
X68695051Y-122046149D01*
X68896660Y-122254300D01*
X68896660Y-122254300D01*
G37*
X68896660Y-122254300D02*
X69161794Y-122437646D01*
X69457602Y-122565744D01*
X69579566Y-122590124D01*
X69763036Y-122503724D01*
X69753793Y-123991923D01*
X69579566Y-123909876D01*
X69457602Y-123934256D01*
X69161794Y-124062354D01*
X68896660Y-124245700D01*
X68672390Y-124477248D01*
X68497602Y-124748100D01*
X68379013Y-125047847D01*
X68321181Y-125364970D01*
X68478984Y-125623000D01*
X69743662Y-125623000D01*
X69742084Y-125877000D01*
X68478984Y-125877000D01*
X68321181Y-126135030D01*
X68379013Y-126452153D01*
X68497602Y-126751900D01*
X68672390Y-127022752D01*
X68896660Y-127254300D01*
X69161794Y-127437646D01*
X69457602Y-127565744D01*
X69579566Y-127590124D01*
X69731889Y-127518392D01*
X69674817Y-136706954D01*
X61587963Y-129064433D01*
X61807214Y-128956038D01*
X61998020Y-128581255D01*
X62112044Y-128176449D01*
X62144902Y-127757176D01*
X62104728Y-127418694D01*
X68695051Y-122046149D01*
X68896660Y-122254300D01*
G36*
X79869922Y-132373000D02*
G01*
X77131617Y-132373000D01*
X77157551Y-131646834D01*
X77391916Y-131663514D01*
X77764227Y-131616618D01*
X78120235Y-131497988D01*
X78359924Y-131369871D01*
X78473404Y-131111629D01*
X79869922Y-132373000D01*
X79869922Y-132373000D01*
G37*
X79869922Y-132373000D02*
X77131617Y-132373000D01*
X77157551Y-131646834D01*
X77391916Y-131663514D01*
X77764227Y-131616618D01*
X78120235Y-131497988D01*
X78359924Y-131369871D01*
X78473404Y-131111629D01*
X79869922Y-132373000D01*
G36*
X140222958Y-145619353D02*
G01*
X134543183Y-151973000D01*
X131281058Y-151973000D01*
X135341847Y-147361596D01*
X135499811Y-147343842D01*
X135947468Y-147201297D01*
X136303927Y-147010766D01*
X136490003Y-146669609D01*
X136203501Y-146383107D01*
X136371703Y-146192098D01*
X136669609Y-146490003D01*
X137010766Y-146303927D01*
X137226513Y-145886591D01*
X137326784Y-145538904D01*
X140222958Y-145619353D01*
X140222958Y-145619353D01*
G37*
X140222958Y-145619353D02*
X134543183Y-151973000D01*
X131281058Y-151973000D01*
X135341847Y-147361596D01*
X135499811Y-147343842D01*
X135947468Y-147201297D01*
X136303927Y-147010766D01*
X136490003Y-146669609D01*
X136203501Y-146383107D01*
X136371703Y-146192098D01*
X136669609Y-146490003D01*
X137010766Y-146303927D01*
X137226513Y-145886591D01*
X137326784Y-145538904D01*
X140222958Y-145619353D01*
G36*
X74951581Y-151580544D02*
G01*
X70820676Y-151670347D01*
X70703912Y-149335069D01*
X71500000Y-149338072D01*
X71624482Y-149325812D01*
X71744180Y-149289502D01*
X71854494Y-149230537D01*
X71951185Y-149151185D01*
X71955352Y-149146108D01*
X74951581Y-151580544D01*
X74951581Y-151580544D01*
G37*
X74951581Y-151580544D02*
X70820676Y-151670347D01*
X70703912Y-149335069D01*
X71500000Y-149338072D01*
X71624482Y-149325812D01*
X71744180Y-149289502D01*
X71854494Y-149230537D01*
X71951185Y-149151185D01*
X71955352Y-149146108D01*
X74951581Y-151580544D01*
G36*
X66729105Y-153987839D02*
G01*
X59428292Y-154218877D01*
X59474779Y-149477136D01*
X66729105Y-153987839D01*
X66729105Y-153987839D01*
G37*
X66729105Y-153987839D02*
X59428292Y-154218877D01*
X59474779Y-149477136D01*
X66729105Y-153987839D01*
G36*
X134372112Y-118189672D02*
G01*
X131186311Y-120738312D01*
X130934305Y-120612277D01*
X130877000Y-120596578D01*
X130877000Y-120049049D01*
X131030235Y-119997988D01*
X131269924Y-119869871D01*
X131398247Y-119577852D01*
X130877000Y-119056605D01*
X130877000Y-118697395D01*
X131577852Y-119398247D01*
X131869871Y-119269924D01*
X132037723Y-118934305D01*
X132136874Y-118572389D01*
X132163514Y-118198084D01*
X132116618Y-117825773D01*
X131997988Y-117469765D01*
X131869871Y-117230076D01*
X131577852Y-117101753D01*
X130877000Y-117802605D01*
X130877000Y-117443395D01*
X131398247Y-116922148D01*
X131269924Y-116630129D01*
X130934305Y-116462277D01*
X130877000Y-116446578D01*
X130877000Y-106299049D01*
X131030235Y-106247988D01*
X131269924Y-106119871D01*
X131398247Y-105827852D01*
X130877000Y-105306605D01*
X130877000Y-104947395D01*
X131577852Y-105648247D01*
X131869871Y-105519924D01*
X132037723Y-105184305D01*
X132136874Y-104822389D01*
X132163514Y-104448084D01*
X132116618Y-104075773D01*
X131997988Y-103719765D01*
X131956943Y-103642976D01*
X134127585Y-101317289D01*
X134372112Y-118189672D01*
X134372112Y-118189672D01*
G37*
X134372112Y-118189672D02*
X131186311Y-120738312D01*
X130934305Y-120612277D01*
X130877000Y-120596578D01*
X130877000Y-120049049D01*
X131030235Y-119997988D01*
X131269924Y-119869871D01*
X131398247Y-119577852D01*
X130877000Y-119056605D01*
X130877000Y-118697395D01*
X131577852Y-119398247D01*
X131869871Y-119269924D01*
X132037723Y-118934305D01*
X132136874Y-118572389D01*
X132163514Y-118198084D01*
X132116618Y-117825773D01*
X131997988Y-117469765D01*
X131869871Y-117230076D01*
X131577852Y-117101753D01*
X130877000Y-117802605D01*
X130877000Y-117443395D01*
X131398247Y-116922148D01*
X131269924Y-116630129D01*
X130934305Y-116462277D01*
X130877000Y-116446578D01*
X130877000Y-106299049D01*
X131030235Y-106247988D01*
X131269924Y-106119871D01*
X131398247Y-105827852D01*
X130877000Y-105306605D01*
X130877000Y-104947395D01*
X131577852Y-105648247D01*
X131869871Y-105519924D01*
X132037723Y-105184305D01*
X132136874Y-104822389D01*
X132163514Y-104448084D01*
X132116618Y-104075773D01*
X131997988Y-103719765D01*
X131956943Y-103642976D01*
X134127585Y-101317289D01*
X134372112Y-118189672D01*
G36*
X128786795Y-127111232D02*
G01*
X128630129Y-127180076D01*
X128462277Y-127515695D01*
X128363126Y-127877611D01*
X128336486Y-128251916D01*
X128383382Y-128624227D01*
X128502012Y-128980235D01*
X128630129Y-129219924D01*
X128922148Y-129348247D01*
X130038878Y-128231517D01*
X130131718Y-128314584D01*
X130157001Y-128472604D01*
X129101753Y-129527852D01*
X129230076Y-129819871D01*
X129565695Y-129987723D01*
X129927611Y-130086874D01*
X130301916Y-130113514D01*
X130417223Y-130098990D01*
X130795773Y-132464930D01*
X130000000Y-132461928D01*
X129875518Y-132474188D01*
X129755820Y-132510498D01*
X129645506Y-132569463D01*
X129548815Y-132648815D01*
X129469463Y-132745506D01*
X129410498Y-132855820D01*
X129374188Y-132975518D01*
X129361928Y-133100000D01*
X129365000Y-133914250D01*
X129523750Y-134073000D01*
X130973000Y-134073000D01*
X130973000Y-134053000D01*
X131049865Y-134053000D01*
X131123000Y-134510096D01*
X131123000Y-137957667D01*
X130981000Y-138147000D01*
X130873000Y-138147000D01*
X130873000Y-138127000D01*
X129423750Y-138127000D01*
X129265000Y-138285750D01*
X129261928Y-139100000D01*
X129274188Y-139224482D01*
X129310498Y-139344180D01*
X129369463Y-139454494D01*
X129448815Y-139551185D01*
X129545506Y-139630537D01*
X129655820Y-139689502D01*
X129775518Y-139725812D01*
X129900000Y-139738072D01*
X130283694Y-139736624D01*
X129938289Y-142615000D01*
X129872998Y-142615000D01*
X129872998Y-142773748D01*
X129714250Y-142615000D01*
X128663459Y-142612795D01*
X126006346Y-136900000D01*
X129261928Y-136900000D01*
X129265000Y-137714250D01*
X129423750Y-137873000D01*
X130873000Y-137873000D01*
X130873000Y-136423750D01*
X130714250Y-136265000D01*
X129900000Y-136261928D01*
X129775518Y-136274188D01*
X129655820Y-136310498D01*
X129545506Y-136369463D01*
X129448815Y-136448815D01*
X129369463Y-136545506D01*
X129310498Y-136655820D01*
X129274188Y-136775518D01*
X129261928Y-136900000D01*
X126006346Y-136900000D01*
X125262160Y-135300000D01*
X129361928Y-135300000D01*
X129374188Y-135424482D01*
X129410498Y-135544180D01*
X129469463Y-135654494D01*
X129548815Y-135751185D01*
X129645506Y-135830537D01*
X129755820Y-135889502D01*
X129875518Y-135925812D01*
X130000000Y-135938072D01*
X130814250Y-135935000D01*
X130973000Y-135776250D01*
X130973000Y-134327000D01*
X129523750Y-134327000D01*
X129365000Y-134485750D01*
X129361928Y-135300000D01*
X125262160Y-135300000D01*
X124879020Y-134476251D01*
X125608234Y-124267256D01*
X128786795Y-127111232D01*
X128786795Y-127111232D01*
G37*
X128786795Y-127111232D02*
X128630129Y-127180076D01*
X128462277Y-127515695D01*
X128363126Y-127877611D01*
X128336486Y-128251916D01*
X128383382Y-128624227D01*
X128502012Y-128980235D01*
X128630129Y-129219924D01*
X128922148Y-129348247D01*
X130038878Y-128231517D01*
X130131718Y-128314584D01*
X130157001Y-128472604D01*
X129101753Y-129527852D01*
X129230076Y-129819871D01*
X129565695Y-129987723D01*
X129927611Y-130086874D01*
X130301916Y-130113514D01*
X130417223Y-130098990D01*
X130795773Y-132464930D01*
X130000000Y-132461928D01*
X129875518Y-132474188D01*
X129755820Y-132510498D01*
X129645506Y-132569463D01*
X129548815Y-132648815D01*
X129469463Y-132745506D01*
X129410498Y-132855820D01*
X129374188Y-132975518D01*
X129361928Y-133100000D01*
X129365000Y-133914250D01*
X129523750Y-134073000D01*
X130973000Y-134073000D01*
X130973000Y-134053000D01*
X131049865Y-134053000D01*
X131123000Y-134510096D01*
X131123000Y-137957667D01*
X130981000Y-138147000D01*
X130873000Y-138147000D01*
X130873000Y-138127000D01*
X129423750Y-138127000D01*
X129265000Y-138285750D01*
X129261928Y-139100000D01*
X129274188Y-139224482D01*
X129310498Y-139344180D01*
X129369463Y-139454494D01*
X129448815Y-139551185D01*
X129545506Y-139630537D01*
X129655820Y-139689502D01*
X129775518Y-139725812D01*
X129900000Y-139738072D01*
X130283694Y-139736624D01*
X129938289Y-142615000D01*
X129872998Y-142615000D01*
X129872998Y-142773748D01*
X129714250Y-142615000D01*
X128663459Y-142612795D01*
X126006346Y-136900000D01*
X129261928Y-136900000D01*
X129265000Y-137714250D01*
X129423750Y-137873000D01*
X130873000Y-137873000D01*
X130873000Y-136423750D01*
X130714250Y-136265000D01*
X129900000Y-136261928D01*
X129775518Y-136274188D01*
X129655820Y-136310498D01*
X129545506Y-136369463D01*
X129448815Y-136448815D01*
X129369463Y-136545506D01*
X129310498Y-136655820D01*
X129274188Y-136775518D01*
X129261928Y-136900000D01*
X126006346Y-136900000D01*
X125262160Y-135300000D01*
X129361928Y-135300000D01*
X129374188Y-135424482D01*
X129410498Y-135544180D01*
X129469463Y-135654494D01*
X129548815Y-135751185D01*
X129645506Y-135830537D01*
X129755820Y-135889502D01*
X129875518Y-135925812D01*
X130000000Y-135938072D01*
X130814250Y-135935000D01*
X130973000Y-135776250D01*
X130973000Y-134327000D01*
X129523750Y-134327000D01*
X129365000Y-134485750D01*
X129361928Y-135300000D01*
X125262160Y-135300000D01*
X124879020Y-134476251D01*
X125608234Y-124267256D01*
X128786795Y-127111232D01*
G36*
X118246179Y-61218663D02*
G01*
X118506331Y-62172554D01*
X118347588Y-61959731D01*
X118131355Y-61764822D01*
X117881252Y-61615843D01*
X117606891Y-61518519D01*
X117377000Y-61639186D01*
X117377000Y-62833000D01*
X117397000Y-62833000D01*
X117397000Y-63087000D01*
X117377000Y-63087000D01*
X117377000Y-63107000D01*
X117123000Y-63107000D01*
X117123000Y-63087000D01*
X115929845Y-63087000D01*
X115808524Y-63316890D01*
X115853175Y-63464099D01*
X115880471Y-63521406D01*
X115715794Y-63529247D01*
X115746825Y-63464099D01*
X115791476Y-63316890D01*
X115670155Y-63087000D01*
X114477000Y-63087000D01*
X114477000Y-63107000D01*
X114223000Y-63107000D01*
X114223000Y-63087000D01*
X114203000Y-63087000D01*
X114203000Y-62833000D01*
X114223000Y-62833000D01*
X114223000Y-61639186D01*
X114477000Y-61639186D01*
X114477000Y-62833000D01*
X115670155Y-62833000D01*
X115791476Y-62603110D01*
X115808524Y-62603110D01*
X115929845Y-62833000D01*
X117123000Y-62833000D01*
X117123000Y-61639186D01*
X116893109Y-61518519D01*
X116618748Y-61615843D01*
X116368645Y-61764822D01*
X116152412Y-61959731D01*
X115978359Y-62193080D01*
X115853175Y-62455901D01*
X115808524Y-62603110D01*
X115791476Y-62603110D01*
X115746825Y-62455901D01*
X115621641Y-62193080D01*
X115447588Y-61959731D01*
X115231355Y-61764822D01*
X114981252Y-61615843D01*
X114706891Y-61518519D01*
X114477000Y-61639186D01*
X114223000Y-61639186D01*
X113993109Y-61518519D01*
X113718748Y-61615843D01*
X113468645Y-61764822D01*
X113252412Y-61959731D01*
X113099415Y-62164851D01*
X112455490Y-60877000D01*
X117904516Y-60877000D01*
X118246179Y-61218663D01*
X118246179Y-61218663D01*
G37*
X118246179Y-61218663D02*
X118506331Y-62172554D01*
X118347588Y-61959731D01*
X118131355Y-61764822D01*
X117881252Y-61615843D01*
X117606891Y-61518519D01*
X117377000Y-61639186D01*
X117377000Y-62833000D01*
X117397000Y-62833000D01*
X117397000Y-63087000D01*
X117377000Y-63087000D01*
X117377000Y-63107000D01*
X117123000Y-63107000D01*
X117123000Y-63087000D01*
X115929845Y-63087000D01*
X115808524Y-63316890D01*
X115853175Y-63464099D01*
X115880471Y-63521406D01*
X115715794Y-63529247D01*
X115746825Y-63464099D01*
X115791476Y-63316890D01*
X115670155Y-63087000D01*
X114477000Y-63087000D01*
X114477000Y-63107000D01*
X114223000Y-63107000D01*
X114223000Y-63087000D01*
X114203000Y-63087000D01*
X114203000Y-62833000D01*
X114223000Y-62833000D01*
X114223000Y-61639186D01*
X114477000Y-61639186D01*
X114477000Y-62833000D01*
X115670155Y-62833000D01*
X115791476Y-62603110D01*
X115808524Y-62603110D01*
X115929845Y-62833000D01*
X117123000Y-62833000D01*
X117123000Y-61639186D01*
X116893109Y-61518519D01*
X116618748Y-61615843D01*
X116368645Y-61764822D01*
X116152412Y-61959731D01*
X115978359Y-62193080D01*
X115853175Y-62455901D01*
X115808524Y-62603110D01*
X115791476Y-62603110D01*
X115746825Y-62455901D01*
X115621641Y-62193080D01*
X115447588Y-61959731D01*
X115231355Y-61764822D01*
X114981252Y-61615843D01*
X114706891Y-61518519D01*
X114477000Y-61639186D01*
X114223000Y-61639186D01*
X113993109Y-61518519D01*
X113718748Y-61615843D01*
X113468645Y-61764822D01*
X113252412Y-61959731D01*
X113099415Y-62164851D01*
X112455490Y-60877000D01*
X117904516Y-60877000D01*
X118246179Y-61218663D01*
G36*
X60803754Y-79613434D02*
G01*
X60781255Y-79601980D01*
X60376449Y-79487956D01*
X59957176Y-79455098D01*
X59539549Y-79504666D01*
X59139617Y-79634757D01*
X58843962Y-79792786D01*
X58687952Y-80108347D01*
X59311917Y-80732312D01*
X59106654Y-80886259D01*
X58508347Y-80287952D01*
X58192786Y-80443962D01*
X58001980Y-80818745D01*
X57887956Y-81223551D01*
X57869284Y-81461812D01*
X57035000Y-81580996D01*
X57035000Y-81472998D01*
X56876252Y-81472998D01*
X57035000Y-81314250D01*
X57038072Y-80100000D01*
X57025812Y-79975518D01*
X56989502Y-79855820D01*
X56930537Y-79745506D01*
X56851185Y-79648815D01*
X56754494Y-79569463D01*
X56644180Y-79510498D01*
X56524482Y-79474188D01*
X56400000Y-79461928D01*
X55526590Y-79464138D01*
X55474307Y-79377000D01*
X61119000Y-79377000D01*
X60803754Y-79613434D01*
X60803754Y-79613434D01*
G37*
X60803754Y-79613434D02*
X60781255Y-79601980D01*
X60376449Y-79487956D01*
X59957176Y-79455098D01*
X59539549Y-79504666D01*
X59139617Y-79634757D01*
X58843962Y-79792786D01*
X58687952Y-80108347D01*
X59311917Y-80732312D01*
X59106654Y-80886259D01*
X58508347Y-80287952D01*
X58192786Y-80443962D01*
X58001980Y-80818745D01*
X57887956Y-81223551D01*
X57869284Y-81461812D01*
X57035000Y-81580996D01*
X57035000Y-81472998D01*
X56876252Y-81472998D01*
X57035000Y-81314250D01*
X57038072Y-80100000D01*
X57025812Y-79975518D01*
X56989502Y-79855820D01*
X56930537Y-79745506D01*
X56851185Y-79648815D01*
X56754494Y-79569463D01*
X56644180Y-79510498D01*
X56524482Y-79474188D01*
X56400000Y-79461928D01*
X55526590Y-79464138D01*
X55474307Y-79377000D01*
X61119000Y-79377000D01*
X60803754Y-79613434D01*
M02*
