M48
; DRILL file {KiCad (5.1.2)-2} date 30/11/2019 13:11:25
; FORMAT={-:-/ absolute / inch / decimal}
; #@! TF.CreationDate,2019-11-30T13:11:25+01:00
; #@! TF.GenerationSoftware,Kicad,Pcbnew,(5.1.2)-2
; #@! TF.FileFunction,Plated,1,2,PTH
FMAT,2
INCH
T1C0.0315
T2C0.0354
T3C0.0394
T4C0.0512
T5C0.0787
%
G90
G05
T1
X4.7717Y-4.4528
X3.0449Y-4.3602
X3.4449Y-4.3602
X2.7717Y-5.811
X2.8031Y-2.4016
X2.1339Y-5.815
X2.5339Y-5.815
X2.1378Y-2.4016
X2.5378Y-2.4016
X5.6457Y-4.2618
X5.5339Y-3.4516
X5.6339Y-3.4016
X5.6339Y-3.5016
X2.8071Y-2.8189
X3.0512Y-4.1634
X3.4512Y-4.1634
X5.128Y-5.0472
X5.528Y-5.0472
X3.0512Y-4.7539
X3.4512Y-4.7539
X5.128Y-4.1142
X5.528Y-4.1142
X3.9921Y-3.9016
X5.5315Y-3.9331
X5.6315Y-3.8831
X5.6315Y-3.9831
X5.6457Y-4.5079
X3.0449Y-4.5571
X3.4449Y-4.5571
X3.7402Y-5.0197
X4.687Y-3.4035
X2.5984Y-3.1988
X2.5984Y-3.2972
X3.8951Y-2.9016
X3.8951Y-3.0016
X3.8951Y-3.1016
X3.8951Y-3.2016
X3.8951Y-3.3016
X3.8951Y-3.4016
X3.8951Y-3.5016
X3.8951Y-3.6016
X3.8951Y-3.7016
X3.8951Y-3.8016
X3.8951Y-3.9016
X3.8951Y-4.0016
X3.8951Y-4.1016
X3.8951Y-4.2016
X3.8951Y-4.3016
X4.8201Y-2.9016
X4.8201Y-3.0016
X4.8201Y-3.1016
X4.8201Y-3.2016
X4.8201Y-3.3016
X4.8201Y-3.4016
X4.8201Y-3.5016
X4.8201Y-3.6016
X4.8201Y-3.7016
X4.8201Y-3.8016
X4.8201Y-3.9016
X4.8201Y-4.0016
X4.8201Y-4.1016
X4.8201Y-4.2016
X4.8201Y-4.3016
X2.9815Y-3.7319
X3.0315Y-3.6319
X3.0815Y-3.7319
X4.7717Y-2.752
X5.128Y-4.6555
X5.528Y-4.6555
X5.5315Y-5.2335
X5.6315Y-5.1835
X5.6315Y-5.2835
X3.0449Y-4.9114
X3.4449Y-4.9114
X5.0567Y-3.7874
X5.4567Y-3.7874
X3.9449Y-2.752
X4.6772Y-4.2795
X5.6457Y-5.4528
X3.0315Y-3.0217
X3.0315Y-3.4217
X5.0016Y-2.4016
X5.4016Y-2.4016
X5.0689Y-3.6024
X5.4689Y-3.6024
X2.1535Y-3.0197
X2.5535Y-3.0197
X3.0449Y-5.1083
X3.4449Y-5.1083
X5.0079Y-2.6378
X5.4079Y-2.6378
X2.7854Y-3.0217
X2.7854Y-3.4217
X5.6378Y-2.6378
X5.128Y-4.8189
X5.528Y-4.8189
X5.6378Y-2.4016
X2.7362Y-3.7356
X2.7862Y-3.6356
X2.8362Y-3.7356
T2
X5.5457Y-5.4528
X5.5378Y-2.6378
X5.5378Y-2.4016
X2.6717Y-5.811
X2.7031Y-2.4016
X5.5457Y-4.2618
X2.7071Y-2.8189
X5.5457Y-4.5079
T3
X4.6161Y-2.4787
X4.6161Y-2.5787
X2.7543Y-4.5571
X2.8543Y-4.5571
X3.3646Y-3.3957
X3.3646Y-3.4957
X3.3646Y-3.5957
X3.3646Y-3.6957
X3.3646Y-3.7957
X3.4646Y-3.3957
X3.4646Y-3.4957
X3.4646Y-3.5957
X3.4646Y-3.6957
X3.4646Y-3.7957
X2.5512Y-3.6299
X2.5512Y-3.7299
X5.1575Y-5.4331
X5.2575Y-5.4331
X3.8976Y-4.6343
X3.8976Y-4.7343
X3.9748Y-5.4724
X4.0748Y-5.4724
X5.0575Y-2.9661
X5.0575Y-3.0661
X5.0575Y-3.1661
X5.0575Y-3.2661
X5.0575Y-3.3661
X5.1575Y-2.9661
X5.1575Y-3.0661
X5.1575Y-3.1661
X5.1575Y-3.2661
X5.1575Y-3.3661
X5.0Y-3.9075
X5.1Y-3.9075
X2.7543Y-4.7539
X2.8543Y-4.7539
X4.502Y-2.4787
X4.502Y-2.5787
X3.3071Y-5.3937
X3.4071Y-5.3937
X4.6063Y-5.3543
X4.7063Y-5.3543
X2.7543Y-4.9508
X2.8543Y-4.9508
X5.1614Y-5.2835
X5.2614Y-5.2835
X2.7543Y-4.3602
X2.8543Y-4.3602
X2.7543Y-4.1634
X2.8543Y-4.1634
X3.9764Y-5.3543
X4.0764Y-5.3543
X4.6024Y-5.4724
X4.7024Y-5.4724
X3.3031Y-5.4961
X3.4031Y-5.4961
T4
X5.1181Y-5.7087
X5.315Y-5.7087
X3.2677Y-5.7087
X3.4646Y-5.7087
X2.1614Y-3.2126
X2.1614Y-3.378
X2.1614Y-3.5433
X2.1614Y-3.7087
X2.1614Y-3.874
X2.1614Y-4.0394
X2.1614Y-4.2047
X2.1614Y-4.3701
X2.1614Y-4.5354
X2.1614Y-4.7008
X2.1614Y-4.8661
X2.1614Y-5.0315
X2.3622Y-3.2126
X2.3622Y-3.378
X2.3622Y-3.5433
X2.3622Y-3.7087
X2.3622Y-3.874
X2.3622Y-4.0394
X2.3622Y-4.2047
X2.3622Y-4.3701
X2.3622Y-4.5354
X2.3622Y-4.7008
X2.3622Y-4.8661
X2.3622Y-5.0315
X2.2205Y-5.3858
X2.2205Y-5.5827
X4.5276Y-5.7087
X4.7244Y-5.7087
X3.937Y-5.7087
X4.1339Y-5.7087
X2.3622Y-2.5945
X2.3622Y-2.7913
X3.3858Y-2.9016
X3.5827Y-2.9016
T5
X2.1339Y-5.9685
X5.6535Y-5.9055
X3.5827Y-4.0157
X2.6772Y-2.5866
X5.6142Y-3.0984
T0
M30
