G04 #@! TF.GenerationSoftware,KiCad,Pcbnew,(5.1.2)-2*
G04 #@! TF.CreationDate,2019-11-30T13:38:49+01:00*
G04 #@! TF.ProjectId,poisson2,706f6973-736f-46e3-922e-6b696361645f,rev?*
G04 #@! TF.SameCoordinates,Original*
G04 #@! TF.FileFunction,Legend,Top*
G04 #@! TF.FilePolarity,Positive*
%FSLAX46Y46*%
G04 Gerber Fmt 4.6, Leading zero omitted, Abs format (unit mm)*
G04 Created by KiCad (PCBNEW (5.1.2)-2) date 2019-11-30 13:38:49*
%MOMM*%
%LPD*%
G04 APERTURE LIST*
%ADD10C,0.250000*%
%ADD11C,0.300000*%
%ADD12C,0.150000*%
%ADD13C,0.120000*%
%ADD14C,0.100000*%
G04 APERTURE END LIST*
D10*
X126369047Y-101952380D02*
X126369047Y-100952380D01*
X126607142Y-100952380D01*
X126750000Y-101000000D01*
X126845238Y-101095238D01*
X126892857Y-101190476D01*
X126940476Y-101380952D01*
X126940476Y-101523809D01*
X126892857Y-101714285D01*
X126845238Y-101809523D01*
X126750000Y-101904761D01*
X126607142Y-101952380D01*
X126369047Y-101952380D01*
X127369047Y-101571428D02*
X128130952Y-101571428D01*
X127750000Y-101952380D02*
X127750000Y-101190476D01*
X128869047Y-101952380D02*
X128869047Y-100952380D01*
X129107142Y-100952380D01*
X129250000Y-101000000D01*
X129345238Y-101095238D01*
X129392857Y-101190476D01*
X129440476Y-101380952D01*
X129440476Y-101523809D01*
X129392857Y-101714285D01*
X129345238Y-101809523D01*
X129250000Y-101904761D01*
X129107142Y-101952380D01*
X128869047Y-101952380D01*
X129869047Y-101571428D02*
X130630952Y-101571428D01*
D11*
X108738095Y-63404761D02*
X108738095Y-61404761D01*
X109214285Y-61404761D01*
X109500000Y-61500000D01*
X109690476Y-61690476D01*
X109785714Y-61880952D01*
X109880952Y-62261904D01*
X109880952Y-62547619D01*
X109785714Y-62928571D01*
X109690476Y-63119047D01*
X109500000Y-63309523D01*
X109214285Y-63404761D01*
X108738095Y-63404761D01*
X110738095Y-62642857D02*
X112261904Y-62642857D01*
X119738095Y-63654761D02*
X119738095Y-61654761D01*
X120214285Y-61654761D01*
X120500000Y-61750000D01*
X120690476Y-61940476D01*
X120785714Y-62130952D01*
X120880952Y-62511904D01*
X120880952Y-62797619D01*
X120785714Y-63178571D01*
X120690476Y-63369047D01*
X120500000Y-63559523D01*
X120214285Y-63654761D01*
X119738095Y-63654761D01*
X121738095Y-62892857D02*
X123261904Y-62892857D01*
X119738095Y-66404761D02*
X119738095Y-64404761D01*
X120214285Y-64404761D01*
X120500000Y-64500000D01*
X120690476Y-64690476D01*
X120785714Y-64880952D01*
X120880952Y-65261904D01*
X120880952Y-65547619D01*
X120785714Y-65928571D01*
X120690476Y-66119047D01*
X120500000Y-66309523D01*
X120214285Y-66404761D01*
X119738095Y-66404761D01*
X121738095Y-65642857D02*
X123261904Y-65642857D01*
X122500000Y-66404761D02*
X122500000Y-64880952D01*
X108738095Y-66404761D02*
X108738095Y-64404761D01*
X109214285Y-64404761D01*
X109500000Y-64500000D01*
X109690476Y-64690476D01*
X109785714Y-64880952D01*
X109880952Y-65261904D01*
X109880952Y-65547619D01*
X109785714Y-65928571D01*
X109690476Y-66119047D01*
X109500000Y-66309523D01*
X109214285Y-66404761D01*
X108738095Y-66404761D01*
X110738095Y-65642857D02*
X112261904Y-65642857D01*
X111500000Y-66404761D02*
X111500000Y-64880952D01*
X135488095Y-151404761D02*
X135488095Y-149404761D01*
X135964285Y-149404761D01*
X136250000Y-149500000D01*
X136440476Y-149690476D01*
X136535714Y-149880952D01*
X136630952Y-150261904D01*
X136630952Y-150547619D01*
X136535714Y-150928571D01*
X136440476Y-151119047D01*
X136250000Y-151309523D01*
X135964285Y-151404761D01*
X135488095Y-151404761D01*
X137488095Y-150642857D02*
X139011904Y-150642857D01*
X105238095Y-151404761D02*
X105238095Y-149404761D01*
X105714285Y-149404761D01*
X106000000Y-149500000D01*
X106190476Y-149690476D01*
X106285714Y-149880952D01*
X106380952Y-150261904D01*
X106380952Y-150547619D01*
X106285714Y-150928571D01*
X106190476Y-151119047D01*
X106000000Y-151309523D01*
X105714285Y-151404761D01*
X105238095Y-151404761D01*
X107238095Y-150642857D02*
X108761904Y-150642857D01*
X120488095Y-151404761D02*
X120488095Y-149404761D01*
X120964285Y-149404761D01*
X121250000Y-149500000D01*
X121440476Y-149690476D01*
X121535714Y-149880952D01*
X121630952Y-150261904D01*
X121630952Y-150547619D01*
X121535714Y-150928571D01*
X121440476Y-151119047D01*
X121250000Y-151309523D01*
X120964285Y-151404761D01*
X120488095Y-151404761D01*
X122488095Y-150642857D02*
X124011904Y-150642857D01*
X88238095Y-151404761D02*
X88238095Y-149404761D01*
X88714285Y-149404761D01*
X89000000Y-149500000D01*
X89190476Y-149690476D01*
X89285714Y-149880952D01*
X89380952Y-150261904D01*
X89380952Y-150547619D01*
X89285714Y-150928571D01*
X89190476Y-151119047D01*
X89000000Y-151309523D01*
X88714285Y-151404761D01*
X88238095Y-151404761D01*
X90238095Y-150642857D02*
X91761904Y-150642857D01*
X125238095Y-151404761D02*
X125238095Y-149404761D01*
X125714285Y-149404761D01*
X126000000Y-149500000D01*
X126190476Y-149690476D01*
X126285714Y-149880952D01*
X126380952Y-150261904D01*
X126380952Y-150547619D01*
X126285714Y-150928571D01*
X126190476Y-151119047D01*
X126000000Y-151309523D01*
X125714285Y-151404761D01*
X125238095Y-151404761D01*
X127238095Y-150642857D02*
X128761904Y-150642857D01*
X128000000Y-151404761D02*
X128000000Y-149880952D01*
X110238095Y-151404761D02*
X110238095Y-149404761D01*
X110714285Y-149404761D01*
X111000000Y-149500000D01*
X111190476Y-149690476D01*
X111285714Y-149880952D01*
X111380952Y-150261904D01*
X111380952Y-150547619D01*
X111285714Y-150928571D01*
X111190476Y-151119047D01*
X111000000Y-151309523D01*
X110714285Y-151404761D01*
X110238095Y-151404761D01*
X112238095Y-150642857D02*
X113761904Y-150642857D01*
X113000000Y-151404761D02*
X113000000Y-149880952D01*
X93738095Y-151404761D02*
X93738095Y-149404761D01*
X94214285Y-149404761D01*
X94500000Y-149500000D01*
X94690476Y-149690476D01*
X94785714Y-149880952D01*
X94880952Y-150261904D01*
X94880952Y-150547619D01*
X94785714Y-150928571D01*
X94690476Y-151119047D01*
X94500000Y-151309523D01*
X94214285Y-151404761D01*
X93738095Y-151404761D01*
X95738095Y-150642857D02*
X97261904Y-150642857D01*
X96500000Y-151404761D02*
X96500000Y-149880952D01*
X77238095Y-151404761D02*
X77238095Y-149404761D01*
X77714285Y-149404761D01*
X78000000Y-149500000D01*
X78190476Y-149690476D01*
X78285714Y-149880952D01*
X78380952Y-150261904D01*
X78380952Y-150547619D01*
X78285714Y-150928571D01*
X78190476Y-151119047D01*
X78000000Y-151309523D01*
X77714285Y-151404761D01*
X77238095Y-151404761D01*
X79238095Y-150642857D02*
X80761904Y-150642857D01*
X80000000Y-151404761D02*
X80000000Y-149880952D01*
D12*
X50488095Y-136892857D02*
X52011904Y-136892857D01*
X81488095Y-69142857D02*
X83011904Y-69142857D01*
X53988095Y-72392857D02*
X55511904Y-72392857D01*
X50738095Y-141892857D02*
X52261904Y-141892857D01*
X51500000Y-142654761D02*
X51500000Y-141130952D01*
X53988095Y-63892857D02*
X55511904Y-63892857D01*
X54750000Y-64654761D02*
X54750000Y-63130952D01*
X94488095Y-69142857D02*
X96011904Y-69142857D01*
X95250000Y-69904761D02*
X95250000Y-68380952D01*
X130845238Y-72904761D02*
X130845238Y-71571428D01*
X130845238Y-70904761D02*
X130797619Y-71000000D01*
X130845238Y-71095238D01*
X130892857Y-71000000D01*
X130845238Y-70904761D01*
X130845238Y-71095238D01*
X131273809Y-71095238D02*
X131321428Y-71000000D01*
X131416666Y-70904761D01*
X131654761Y-70904761D01*
X131750000Y-71000000D01*
X131797619Y-71095238D01*
X131845238Y-71285714D01*
X131845238Y-71476190D01*
X131797619Y-71761904D01*
X131226190Y-72904761D01*
X131845238Y-72904761D01*
X132702380Y-72809523D02*
X132607142Y-72904761D01*
X132416666Y-72904761D01*
X132321428Y-72809523D01*
X132273809Y-72714285D01*
X132226190Y-72523809D01*
X132226190Y-71952380D01*
X132273809Y-71761904D01*
X132321428Y-71666666D01*
X132416666Y-71571428D01*
X132607142Y-71571428D01*
X132702380Y-71666666D01*
X93178571Y-87707142D02*
X91750000Y-87707142D01*
X91750000Y-84707142D01*
X93178571Y-92071428D02*
X93035714Y-92214285D01*
X92607142Y-92357142D01*
X92321428Y-92357142D01*
X91892857Y-92214285D01*
X91607142Y-91928571D01*
X91464285Y-91642857D01*
X91321428Y-91071428D01*
X91321428Y-90642857D01*
X91464285Y-90071428D01*
X91607142Y-89785714D01*
X91892857Y-89500000D01*
X92321428Y-89357142D01*
X92607142Y-89357142D01*
X93035714Y-89500000D01*
X93178571Y-89642857D01*
X91464285Y-97007142D02*
X91464285Y-94007142D01*
X92178571Y-94007142D01*
X92607142Y-94150000D01*
X92892857Y-94435714D01*
X93035714Y-94721428D01*
X93178571Y-95292857D01*
X93178571Y-95721428D01*
X93035714Y-96292857D01*
X92892857Y-96578571D01*
X92607142Y-96864285D01*
X92178571Y-97007142D01*
X91464285Y-97007142D01*
X87809523Y-98535714D02*
X87809523Y-99345238D01*
X87761904Y-99440476D01*
X87714285Y-99488095D01*
X87619047Y-99535714D01*
X87476190Y-99535714D01*
X87380952Y-99488095D01*
X87809523Y-99154761D02*
X87714285Y-99202380D01*
X87523809Y-99202380D01*
X87428571Y-99154761D01*
X87380952Y-99107142D01*
X87333333Y-99011904D01*
X87333333Y-98726190D01*
X87380952Y-98630952D01*
X87428571Y-98583333D01*
X87523809Y-98535714D01*
X87714285Y-98535714D01*
X87809523Y-98583333D01*
X88285714Y-98535714D02*
X88285714Y-99202380D01*
X88285714Y-98630952D02*
X88333333Y-98583333D01*
X88428571Y-98535714D01*
X88571428Y-98535714D01*
X88666666Y-98583333D01*
X88714285Y-98678571D01*
X88714285Y-99202380D01*
X89619047Y-99202380D02*
X89619047Y-98202380D01*
X89619047Y-99154761D02*
X89523809Y-99202380D01*
X89333333Y-99202380D01*
X89238095Y-99154761D01*
X89190476Y-99107142D01*
X89142857Y-99011904D01*
X89142857Y-98726190D01*
X89190476Y-98630952D01*
X89238095Y-98583333D01*
X89333333Y-98535714D01*
X89523809Y-98535714D01*
X89619047Y-98583333D01*
X84107142Y-98202380D02*
X83630952Y-98202380D01*
X83583333Y-98678571D01*
X83630952Y-98630952D01*
X83726190Y-98583333D01*
X83964285Y-98583333D01*
X84059523Y-98630952D01*
X84107142Y-98678571D01*
X84154761Y-98773809D01*
X84154761Y-99011904D01*
X84107142Y-99107142D01*
X84059523Y-99154761D01*
X83964285Y-99202380D01*
X83726190Y-99202380D01*
X83630952Y-99154761D01*
X83583333Y-99107142D01*
X84488095Y-98535714D02*
X84726190Y-99202380D01*
X84964285Y-98535714D01*
X103940476Y-116996428D02*
X103178571Y-117567857D01*
X103940476Y-118139285D01*
X104416666Y-117567857D02*
X105178571Y-117567857D01*
X105654761Y-117567857D02*
X106416666Y-117567857D01*
X106892857Y-117567857D02*
X107654761Y-117567857D01*
X108892857Y-116996428D02*
X108892857Y-118329761D01*
X108892857Y-117186904D02*
X108940476Y-117091666D01*
X109035714Y-116996428D01*
X109178571Y-116996428D01*
X109273809Y-117091666D01*
X109321428Y-117282142D01*
X109321428Y-118329761D01*
X110178571Y-118234523D02*
X110083333Y-118329761D01*
X109892857Y-118329761D01*
X109797619Y-118234523D01*
X109750000Y-118044047D01*
X109750000Y-117282142D01*
X109797619Y-117091666D01*
X109892857Y-116996428D01*
X110083333Y-116996428D01*
X110178571Y-117091666D01*
X110226190Y-117282142D01*
X110226190Y-117472619D01*
X109750000Y-117663095D01*
X111416666Y-116996428D02*
X111416666Y-118996428D01*
X111416666Y-117091666D02*
X111511904Y-116996428D01*
X111702380Y-116996428D01*
X111797619Y-117091666D01*
X111845238Y-117186904D01*
X111892857Y-117377380D01*
X111892857Y-117948809D01*
X111845238Y-118139285D01*
X111797619Y-118234523D01*
X111702380Y-118329761D01*
X111511904Y-118329761D01*
X111416666Y-118234523D01*
X112750000Y-118329761D02*
X112750000Y-117282142D01*
X112702380Y-117091666D01*
X112607142Y-116996428D01*
X112416666Y-116996428D01*
X112321428Y-117091666D01*
X112750000Y-118234523D02*
X112654761Y-118329761D01*
X112416666Y-118329761D01*
X112321428Y-118234523D01*
X112273809Y-118044047D01*
X112273809Y-117853571D01*
X112321428Y-117663095D01*
X112416666Y-117567857D01*
X112654761Y-117567857D01*
X112750000Y-117472619D01*
X113178571Y-118234523D02*
X113273809Y-118329761D01*
X113464285Y-118329761D01*
X113559523Y-118234523D01*
X113607142Y-118044047D01*
X113607142Y-117948809D01*
X113559523Y-117758333D01*
X113464285Y-117663095D01*
X113321428Y-117663095D01*
X113226190Y-117567857D01*
X113178571Y-117377380D01*
X113178571Y-117282142D01*
X113226190Y-117091666D01*
X113321428Y-116996428D01*
X113464285Y-116996428D01*
X113559523Y-117091666D01*
X102773809Y-121384523D02*
X102678571Y-121479761D01*
X102488095Y-121479761D01*
X102392857Y-121384523D01*
X102345238Y-121289285D01*
X102297619Y-121098809D01*
X102297619Y-120527380D01*
X102345238Y-120336904D01*
X102392857Y-120241666D01*
X102488095Y-120146428D01*
X102678571Y-120146428D01*
X102773809Y-120241666D01*
X103345238Y-121479761D02*
X103250000Y-121384523D01*
X103202380Y-121289285D01*
X103154761Y-121098809D01*
X103154761Y-120527380D01*
X103202380Y-120336904D01*
X103250000Y-120241666D01*
X103345238Y-120146428D01*
X103488095Y-120146428D01*
X103583333Y-120241666D01*
X103630952Y-120336904D01*
X103678571Y-120527380D01*
X103678571Y-121098809D01*
X103630952Y-121289285D01*
X103583333Y-121384523D01*
X103488095Y-121479761D01*
X103345238Y-121479761D01*
X104107142Y-120146428D02*
X104107142Y-121479761D01*
X104107142Y-120336904D02*
X104154761Y-120241666D01*
X104250000Y-120146428D01*
X104392857Y-120146428D01*
X104488095Y-120241666D01*
X104535714Y-120432142D01*
X104535714Y-121479761D01*
X105011904Y-120146428D02*
X105011904Y-121479761D01*
X105011904Y-120336904D02*
X105059523Y-120241666D01*
X105154761Y-120146428D01*
X105297619Y-120146428D01*
X105392857Y-120241666D01*
X105440476Y-120432142D01*
X105440476Y-121479761D01*
X106297619Y-121384523D02*
X106202380Y-121479761D01*
X106011904Y-121479761D01*
X105916666Y-121384523D01*
X105869047Y-121194047D01*
X105869047Y-120432142D01*
X105916666Y-120241666D01*
X106011904Y-120146428D01*
X106202380Y-120146428D01*
X106297619Y-120241666D01*
X106345238Y-120432142D01*
X106345238Y-120622619D01*
X105869047Y-120813095D01*
X107202380Y-121384523D02*
X107107142Y-121479761D01*
X106916666Y-121479761D01*
X106821428Y-121384523D01*
X106773809Y-121289285D01*
X106726190Y-121098809D01*
X106726190Y-120527380D01*
X106773809Y-120336904D01*
X106821428Y-120241666D01*
X106916666Y-120146428D01*
X107107142Y-120146428D01*
X107202380Y-120241666D01*
X107488095Y-120146428D02*
X107869047Y-120146428D01*
X107630952Y-119479761D02*
X107630952Y-121194047D01*
X107678571Y-121384523D01*
X107773809Y-121479761D01*
X107869047Y-121479761D01*
X108583333Y-121384523D02*
X108488095Y-121479761D01*
X108297619Y-121479761D01*
X108202380Y-121384523D01*
X108154761Y-121194047D01*
X108154761Y-120432142D01*
X108202380Y-120241666D01*
X108297619Y-120146428D01*
X108488095Y-120146428D01*
X108583333Y-120241666D01*
X108630952Y-120432142D01*
X108630952Y-120622619D01*
X108154761Y-120813095D01*
X109059523Y-121479761D02*
X109059523Y-120146428D01*
X109059523Y-120527380D02*
X109107142Y-120336904D01*
X109154761Y-120241666D01*
X109250000Y-120146428D01*
X109345238Y-120146428D01*
X110392857Y-121384523D02*
X110488095Y-121479761D01*
X110678571Y-121479761D01*
X110773809Y-121384523D01*
X110821428Y-121194047D01*
X110821428Y-121098809D01*
X110773809Y-120908333D01*
X110678571Y-120813095D01*
X110535714Y-120813095D01*
X110440476Y-120717857D01*
X110392857Y-120527380D01*
X110392857Y-120432142D01*
X110440476Y-120241666D01*
X110535714Y-120146428D01*
X110678571Y-120146428D01*
X110773809Y-120241666D01*
X111250000Y-121479761D02*
X111250000Y-120146428D01*
X111250000Y-119479761D02*
X111202380Y-119575000D01*
X111250000Y-119670238D01*
X111297619Y-119575000D01*
X111250000Y-119479761D01*
X111250000Y-119670238D01*
X112392857Y-119479761D02*
X113011904Y-119479761D01*
X112678571Y-120241666D01*
X112821428Y-120241666D01*
X112916666Y-120336904D01*
X112964285Y-120432142D01*
X113011904Y-120622619D01*
X113011904Y-121098809D01*
X112964285Y-121289285D01*
X112916666Y-121384523D01*
X112821428Y-121479761D01*
X112535714Y-121479761D01*
X112440476Y-121384523D01*
X112392857Y-121289285D01*
X113440476Y-121289285D02*
X113488095Y-121384523D01*
X113440476Y-121479761D01*
X113392857Y-121384523D01*
X113440476Y-121289285D01*
X113440476Y-121479761D01*
X113821428Y-119479761D02*
X114440476Y-119479761D01*
X114107142Y-120241666D01*
X114249999Y-120241666D01*
X114345238Y-120336904D01*
X114392857Y-120432142D01*
X114440476Y-120622619D01*
X114440476Y-121098809D01*
X114392857Y-121289285D01*
X114345238Y-121384523D01*
X114249999Y-121479761D01*
X113964285Y-121479761D01*
X113869047Y-121384523D01*
X113821428Y-121289285D01*
X114773809Y-120146428D02*
X115011904Y-121479761D01*
X115249999Y-120146428D01*
X115678571Y-126909523D02*
X115821428Y-127004761D01*
X116059523Y-127004761D01*
X116154761Y-126909523D01*
X116202380Y-126814285D01*
X116250000Y-126623809D01*
X116250000Y-126433333D01*
X116202380Y-126242857D01*
X116154761Y-126147619D01*
X116059523Y-126052380D01*
X115869047Y-125957142D01*
X115773809Y-125861904D01*
X115726190Y-125766666D01*
X115678571Y-125576190D01*
X115678571Y-125385714D01*
X115726190Y-125195238D01*
X115773809Y-125100000D01*
X115869047Y-125004761D01*
X116107142Y-125004761D01*
X116250000Y-125100000D01*
X116821428Y-127004761D02*
X116726190Y-126909523D01*
X116678571Y-126814285D01*
X116630952Y-126623809D01*
X116630952Y-126052380D01*
X116678571Y-125861904D01*
X116726190Y-125766666D01*
X116821428Y-125671428D01*
X116964285Y-125671428D01*
X117059523Y-125766666D01*
X117107142Y-125861904D01*
X117154761Y-126052380D01*
X117154761Y-126623809D01*
X117107142Y-126814285D01*
X117059523Y-126909523D01*
X116964285Y-127004761D01*
X116821428Y-127004761D01*
X117583333Y-125671428D02*
X117583333Y-127004761D01*
X117583333Y-125861904D02*
X117630952Y-125766666D01*
X117726190Y-125671428D01*
X117869047Y-125671428D01*
X117964285Y-125766666D01*
X118011904Y-125957142D01*
X118011904Y-127004761D01*
X118916666Y-127004761D02*
X118916666Y-125004761D01*
X118916666Y-126909523D02*
X118821428Y-127004761D01*
X118630952Y-127004761D01*
X118535714Y-126909523D01*
X118488095Y-126814285D01*
X118440476Y-126623809D01*
X118440476Y-126052380D01*
X118488095Y-125861904D01*
X118535714Y-125766666D01*
X118630952Y-125671428D01*
X118821428Y-125671428D01*
X118916666Y-125766666D01*
X119773809Y-126909523D02*
X119678571Y-127004761D01*
X119488095Y-127004761D01*
X119392857Y-126909523D01*
X119345238Y-126719047D01*
X119345238Y-125957142D01*
X119392857Y-125766666D01*
X119488095Y-125671428D01*
X119678571Y-125671428D01*
X119773809Y-125766666D01*
X119821428Y-125957142D01*
X119821428Y-126147619D01*
X119345238Y-126338095D01*
X113250000Y-128154761D02*
X113821428Y-128154761D01*
X113535714Y-130154761D02*
X113535714Y-128154761D01*
X114535714Y-130059523D02*
X114440476Y-130154761D01*
X114250000Y-130154761D01*
X114154761Y-130059523D01*
X114107142Y-129869047D01*
X114107142Y-129107142D01*
X114154761Y-128916666D01*
X114250000Y-128821428D01*
X114440476Y-128821428D01*
X114535714Y-128916666D01*
X114583333Y-129107142D01*
X114583333Y-129297619D01*
X114107142Y-129488095D01*
X115011904Y-130154761D02*
X115011904Y-128821428D01*
X115011904Y-129011904D02*
X115059523Y-128916666D01*
X115154761Y-128821428D01*
X115297619Y-128821428D01*
X115392857Y-128916666D01*
X115440476Y-129107142D01*
X115440476Y-130154761D01*
X115440476Y-129107142D02*
X115488095Y-128916666D01*
X115583333Y-128821428D01*
X115726190Y-128821428D01*
X115821428Y-128916666D01*
X115869047Y-129107142D01*
X115869047Y-130154761D01*
X116345238Y-128821428D02*
X116345238Y-130821428D01*
X116345238Y-128916666D02*
X116440476Y-128821428D01*
X116630952Y-128821428D01*
X116726190Y-128916666D01*
X116773809Y-129011904D01*
X116821428Y-129202380D01*
X116821428Y-129773809D01*
X116773809Y-129964285D01*
X116726190Y-130059523D01*
X116630952Y-130154761D01*
X116440476Y-130154761D01*
X116345238Y-130059523D01*
X117630952Y-130059523D02*
X117535714Y-130154761D01*
X117345238Y-130154761D01*
X117250000Y-130059523D01*
X117202380Y-129869047D01*
X117202380Y-129107142D01*
X117250000Y-128916666D01*
X117345238Y-128821428D01*
X117535714Y-128821428D01*
X117630952Y-128916666D01*
X117678571Y-129107142D01*
X117678571Y-129297619D01*
X117202380Y-129488095D01*
X118107142Y-130154761D02*
X118107142Y-128821428D01*
X118107142Y-129202380D02*
X118154761Y-129011904D01*
X118202380Y-128916666D01*
X118297619Y-128821428D01*
X118392857Y-128821428D01*
X119154761Y-130154761D02*
X119154761Y-129107142D01*
X119107142Y-128916666D01*
X119011904Y-128821428D01*
X118821428Y-128821428D01*
X118726190Y-128916666D01*
X119154761Y-130059523D02*
X119059523Y-130154761D01*
X118821428Y-130154761D01*
X118726190Y-130059523D01*
X118678571Y-129869047D01*
X118678571Y-129678571D01*
X118726190Y-129488095D01*
X118821428Y-129392857D01*
X119059523Y-129392857D01*
X119154761Y-129297619D01*
X119488095Y-128821428D02*
X119869047Y-128821428D01*
X119630952Y-128154761D02*
X119630952Y-129869047D01*
X119678571Y-130059523D01*
X119773809Y-130154761D01*
X119869047Y-130154761D01*
X120630952Y-128821428D02*
X120630952Y-130154761D01*
X120202380Y-128821428D02*
X120202380Y-129869047D01*
X120250000Y-130059523D01*
X120345238Y-130154761D01*
X120488095Y-130154761D01*
X120583333Y-130059523D01*
X120630952Y-129964285D01*
X121107142Y-130154761D02*
X121107142Y-128821428D01*
X121107142Y-129202380D02*
X121154761Y-129011904D01*
X121202380Y-128916666D01*
X121297619Y-128821428D01*
X121392857Y-128821428D01*
X122107142Y-130059523D02*
X122011904Y-130154761D01*
X121821428Y-130154761D01*
X121726190Y-130059523D01*
X121678571Y-129869047D01*
X121678571Y-129107142D01*
X121726190Y-128916666D01*
X121821428Y-128821428D01*
X122011904Y-128821428D01*
X122107142Y-128916666D01*
X122154761Y-129107142D01*
X122154761Y-129297619D01*
X121678571Y-129488095D01*
X115940476Y-132257142D02*
X116083333Y-132352380D01*
X116130952Y-132447619D01*
X116178571Y-132638095D01*
X116178571Y-132923809D01*
X116130952Y-133114285D01*
X116083333Y-133209523D01*
X115988095Y-133304761D01*
X115607142Y-133304761D01*
X115607142Y-131304761D01*
X115940476Y-131304761D01*
X116035714Y-131400000D01*
X116083333Y-131495238D01*
X116130952Y-131685714D01*
X116130952Y-131876190D01*
X116083333Y-132066666D01*
X116035714Y-132161904D01*
X115940476Y-132257142D01*
X115607142Y-132257142D01*
X117035714Y-133304761D02*
X117035714Y-132257142D01*
X116988095Y-132066666D01*
X116892857Y-131971428D01*
X116702380Y-131971428D01*
X116607142Y-132066666D01*
X117035714Y-133209523D02*
X116940476Y-133304761D01*
X116702380Y-133304761D01*
X116607142Y-133209523D01*
X116559523Y-133019047D01*
X116559523Y-132828571D01*
X116607142Y-132638095D01*
X116702380Y-132542857D01*
X116940476Y-132542857D01*
X117035714Y-132447619D01*
X117654761Y-133304761D02*
X117559523Y-133209523D01*
X117511904Y-133019047D01*
X117511904Y-131304761D01*
X118178571Y-133304761D02*
X118083333Y-133209523D01*
X118035714Y-133019047D01*
X118035714Y-131304761D01*
X118702380Y-133304761D02*
X118607142Y-133209523D01*
X118559523Y-133114285D01*
X118511904Y-132923809D01*
X118511904Y-132352380D01*
X118559523Y-132161904D01*
X118607142Y-132066666D01*
X118702380Y-131971428D01*
X118845238Y-131971428D01*
X118940476Y-132066666D01*
X118988095Y-132161904D01*
X119035714Y-132352380D01*
X119035714Y-132923809D01*
X118988095Y-133114285D01*
X118940476Y-133209523D01*
X118845238Y-133304761D01*
X118702380Y-133304761D01*
X119464285Y-131971428D02*
X119464285Y-133304761D01*
X119464285Y-132161904D02*
X119511904Y-132066666D01*
X119607142Y-131971428D01*
X119749999Y-131971428D01*
X119845238Y-132066666D01*
X119892857Y-132257142D01*
X119892857Y-133304761D01*
X99928571Y-126909523D02*
X100071428Y-127004761D01*
X100309523Y-127004761D01*
X100404761Y-126909523D01*
X100452380Y-126814285D01*
X100500000Y-126623809D01*
X100500000Y-126433333D01*
X100452380Y-126242857D01*
X100404761Y-126147619D01*
X100309523Y-126052380D01*
X100119047Y-125957142D01*
X100023809Y-125861904D01*
X99976190Y-125766666D01*
X99928571Y-125576190D01*
X99928571Y-125385714D01*
X99976190Y-125195238D01*
X100023809Y-125100000D01*
X100119047Y-125004761D01*
X100357142Y-125004761D01*
X100500000Y-125100000D01*
X101071428Y-127004761D02*
X100976190Y-126909523D01*
X100928571Y-126814285D01*
X100880952Y-126623809D01*
X100880952Y-126052380D01*
X100928571Y-125861904D01*
X100976190Y-125766666D01*
X101071428Y-125671428D01*
X101214285Y-125671428D01*
X101309523Y-125766666D01*
X101357142Y-125861904D01*
X101404761Y-126052380D01*
X101404761Y-126623809D01*
X101357142Y-126814285D01*
X101309523Y-126909523D01*
X101214285Y-127004761D01*
X101071428Y-127004761D01*
X101833333Y-125671428D02*
X101833333Y-127004761D01*
X101833333Y-125861904D02*
X101880952Y-125766666D01*
X101976190Y-125671428D01*
X102119047Y-125671428D01*
X102214285Y-125766666D01*
X102261904Y-125957142D01*
X102261904Y-127004761D01*
X103166666Y-127004761D02*
X103166666Y-125004761D01*
X103166666Y-126909523D02*
X103071428Y-127004761D01*
X102880952Y-127004761D01*
X102785714Y-126909523D01*
X102738095Y-126814285D01*
X102690476Y-126623809D01*
X102690476Y-126052380D01*
X102738095Y-125861904D01*
X102785714Y-125766666D01*
X102880952Y-125671428D01*
X103071428Y-125671428D01*
X103166666Y-125766666D01*
X104023809Y-126909523D02*
X103928571Y-127004761D01*
X103738095Y-127004761D01*
X103642857Y-126909523D01*
X103595238Y-126719047D01*
X103595238Y-125957142D01*
X103642857Y-125766666D01*
X103738095Y-125671428D01*
X103928571Y-125671428D01*
X104023809Y-125766666D01*
X104071428Y-125957142D01*
X104071428Y-126147619D01*
X103595238Y-126338095D01*
X97500000Y-128154761D02*
X98071428Y-128154761D01*
X97785714Y-130154761D02*
X97785714Y-128154761D01*
X98785714Y-130059523D02*
X98690476Y-130154761D01*
X98500000Y-130154761D01*
X98404761Y-130059523D01*
X98357142Y-129869047D01*
X98357142Y-129107142D01*
X98404761Y-128916666D01*
X98500000Y-128821428D01*
X98690476Y-128821428D01*
X98785714Y-128916666D01*
X98833333Y-129107142D01*
X98833333Y-129297619D01*
X98357142Y-129488095D01*
X99261904Y-130154761D02*
X99261904Y-128821428D01*
X99261904Y-129011904D02*
X99309523Y-128916666D01*
X99404761Y-128821428D01*
X99547619Y-128821428D01*
X99642857Y-128916666D01*
X99690476Y-129107142D01*
X99690476Y-130154761D01*
X99690476Y-129107142D02*
X99738095Y-128916666D01*
X99833333Y-128821428D01*
X99976190Y-128821428D01*
X100071428Y-128916666D01*
X100119047Y-129107142D01*
X100119047Y-130154761D01*
X100595238Y-128821428D02*
X100595238Y-130821428D01*
X100595238Y-128916666D02*
X100690476Y-128821428D01*
X100880952Y-128821428D01*
X100976190Y-128916666D01*
X101023809Y-129011904D01*
X101071428Y-129202380D01*
X101071428Y-129773809D01*
X101023809Y-129964285D01*
X100976190Y-130059523D01*
X100880952Y-130154761D01*
X100690476Y-130154761D01*
X100595238Y-130059523D01*
X101880952Y-130059523D02*
X101785714Y-130154761D01*
X101595238Y-130154761D01*
X101500000Y-130059523D01*
X101452380Y-129869047D01*
X101452380Y-129107142D01*
X101500000Y-128916666D01*
X101595238Y-128821428D01*
X101785714Y-128821428D01*
X101880952Y-128916666D01*
X101928571Y-129107142D01*
X101928571Y-129297619D01*
X101452380Y-129488095D01*
X102357142Y-130154761D02*
X102357142Y-128821428D01*
X102357142Y-129202380D02*
X102404761Y-129011904D01*
X102452380Y-128916666D01*
X102547619Y-128821428D01*
X102642857Y-128821428D01*
X103404761Y-130154761D02*
X103404761Y-129107142D01*
X103357142Y-128916666D01*
X103261904Y-128821428D01*
X103071428Y-128821428D01*
X102976190Y-128916666D01*
X103404761Y-130059523D02*
X103309523Y-130154761D01*
X103071428Y-130154761D01*
X102976190Y-130059523D01*
X102928571Y-129869047D01*
X102928571Y-129678571D01*
X102976190Y-129488095D01*
X103071428Y-129392857D01*
X103309523Y-129392857D01*
X103404761Y-129297619D01*
X103738095Y-128821428D02*
X104119047Y-128821428D01*
X103880952Y-128154761D02*
X103880952Y-129869047D01*
X103928571Y-130059523D01*
X104023809Y-130154761D01*
X104119047Y-130154761D01*
X104880952Y-128821428D02*
X104880952Y-130154761D01*
X104452380Y-128821428D02*
X104452380Y-129869047D01*
X104500000Y-130059523D01*
X104595238Y-130154761D01*
X104738095Y-130154761D01*
X104833333Y-130059523D01*
X104880952Y-129964285D01*
X105357142Y-130154761D02*
X105357142Y-128821428D01*
X105357142Y-129202380D02*
X105404761Y-129011904D01*
X105452380Y-128916666D01*
X105547619Y-128821428D01*
X105642857Y-128821428D01*
X106357142Y-130059523D02*
X106261904Y-130154761D01*
X106071428Y-130154761D01*
X105976190Y-130059523D01*
X105928571Y-129869047D01*
X105928571Y-129107142D01*
X105976190Y-128916666D01*
X106071428Y-128821428D01*
X106261904Y-128821428D01*
X106357142Y-128916666D01*
X106404761Y-129107142D01*
X106404761Y-129297619D01*
X105928571Y-129488095D01*
X99095238Y-133114285D02*
X99047619Y-133209523D01*
X98904761Y-133304761D01*
X98809523Y-133304761D01*
X98666666Y-133209523D01*
X98571428Y-133019047D01*
X98523809Y-132828571D01*
X98476190Y-132447619D01*
X98476190Y-132161904D01*
X98523809Y-131780952D01*
X98571428Y-131590476D01*
X98666666Y-131400000D01*
X98809523Y-131304761D01*
X98904761Y-131304761D01*
X99047619Y-131400000D01*
X99095238Y-131495238D01*
X99523809Y-133304761D02*
X99523809Y-131304761D01*
X99952380Y-133304761D02*
X99952380Y-132257142D01*
X99904761Y-132066666D01*
X99809523Y-131971428D01*
X99666666Y-131971428D01*
X99571428Y-132066666D01*
X99523809Y-132161904D01*
X100857142Y-133304761D02*
X100857142Y-132257142D01*
X100809523Y-132066666D01*
X100714285Y-131971428D01*
X100523809Y-131971428D01*
X100428571Y-132066666D01*
X100857142Y-133209523D02*
X100761904Y-133304761D01*
X100523809Y-133304761D01*
X100428571Y-133209523D01*
X100380952Y-133019047D01*
X100380952Y-132828571D01*
X100428571Y-132638095D01*
X100523809Y-132542857D01*
X100761904Y-132542857D01*
X100857142Y-132447619D01*
X101761904Y-131971428D02*
X101761904Y-133304761D01*
X101333333Y-131971428D02*
X101333333Y-133019047D01*
X101380952Y-133209523D01*
X101476190Y-133304761D01*
X101619047Y-133304761D01*
X101714285Y-133209523D01*
X101761904Y-133114285D01*
X102666666Y-133304761D02*
X102666666Y-131304761D01*
X102666666Y-133209523D02*
X102571428Y-133304761D01*
X102380952Y-133304761D01*
X102285714Y-133209523D01*
X102238095Y-133114285D01*
X102190476Y-132923809D01*
X102190476Y-132352380D01*
X102238095Y-132161904D01*
X102285714Y-132066666D01*
X102380952Y-131971428D01*
X102571428Y-131971428D01*
X102666666Y-132066666D01*
X103142857Y-133304761D02*
X103142857Y-131971428D01*
X103142857Y-131304761D02*
X103095238Y-131400000D01*
X103142857Y-131495238D01*
X103190476Y-131400000D01*
X103142857Y-131304761D01*
X103142857Y-131495238D01*
X104000000Y-133209523D02*
X103904761Y-133304761D01*
X103714285Y-133304761D01*
X103619047Y-133209523D01*
X103571428Y-133019047D01*
X103571428Y-132257142D01*
X103619047Y-132066666D01*
X103714285Y-131971428D01*
X103904761Y-131971428D01*
X104000000Y-132066666D01*
X104047619Y-132257142D01*
X104047619Y-132447619D01*
X103571428Y-132638095D01*
X104476190Y-133304761D02*
X104476190Y-131971428D01*
X104476190Y-132352380D02*
X104523809Y-132161904D01*
X104571428Y-132066666D01*
X104666666Y-131971428D01*
X104761904Y-131971428D01*
X105476190Y-133209523D02*
X105380952Y-133304761D01*
X105190476Y-133304761D01*
X105095238Y-133209523D01*
X105047619Y-133019047D01*
X105047619Y-132257142D01*
X105095238Y-132066666D01*
X105190476Y-131971428D01*
X105380952Y-131971428D01*
X105476190Y-132066666D01*
X105523809Y-132257142D01*
X105523809Y-132447619D01*
X105047619Y-132638095D01*
X76142857Y-137329761D02*
X75809523Y-136377380D01*
X75571428Y-137329761D02*
X75571428Y-135329761D01*
X75952380Y-135329761D01*
X76047619Y-135425000D01*
X76095238Y-135520238D01*
X76142857Y-135710714D01*
X76142857Y-135996428D01*
X76095238Y-136186904D01*
X76047619Y-136282142D01*
X75952380Y-136377380D01*
X75571428Y-136377380D01*
X76952380Y-137234523D02*
X76857142Y-137329761D01*
X76666666Y-137329761D01*
X76571428Y-137234523D01*
X76523809Y-137044047D01*
X76523809Y-136282142D01*
X76571428Y-136091666D01*
X76666666Y-135996428D01*
X76857142Y-135996428D01*
X76952380Y-136091666D01*
X77000000Y-136282142D01*
X77000000Y-136472619D01*
X76523809Y-136663095D01*
X77571428Y-137329761D02*
X77476190Y-137234523D01*
X77428571Y-137044047D01*
X77428571Y-135329761D01*
X78380952Y-137329761D02*
X78380952Y-136282142D01*
X78333333Y-136091666D01*
X78238095Y-135996428D01*
X78047619Y-135996428D01*
X77952380Y-136091666D01*
X78380952Y-137234523D02*
X78285714Y-137329761D01*
X78047619Y-137329761D01*
X77952380Y-137234523D01*
X77904761Y-137044047D01*
X77904761Y-136853571D01*
X77952380Y-136663095D01*
X78047619Y-136567857D01*
X78285714Y-136567857D01*
X78380952Y-136472619D01*
X78857142Y-137329761D02*
X78857142Y-135996428D01*
X78857142Y-135329761D02*
X78809523Y-135425000D01*
X78857142Y-135520238D01*
X78904761Y-135425000D01*
X78857142Y-135329761D01*
X78857142Y-135520238D01*
X79285714Y-137234523D02*
X79380952Y-137329761D01*
X79571428Y-137329761D01*
X79666666Y-137234523D01*
X79714285Y-137044047D01*
X79714285Y-136948809D01*
X79666666Y-136758333D01*
X79571428Y-136663095D01*
X79428571Y-136663095D01*
X79333333Y-136567857D01*
X79285714Y-136377380D01*
X79285714Y-136282142D01*
X79333333Y-136091666D01*
X79428571Y-135996428D01*
X79571428Y-135996428D01*
X79666666Y-136091666D01*
X74333333Y-140479761D02*
X74333333Y-138479761D01*
X74666666Y-139908333D01*
X75000000Y-138479761D01*
X75000000Y-140479761D01*
X75857142Y-140384523D02*
X75761904Y-140479761D01*
X75571428Y-140479761D01*
X75476190Y-140384523D01*
X75428571Y-140194047D01*
X75428571Y-139432142D01*
X75476190Y-139241666D01*
X75571428Y-139146428D01*
X75761904Y-139146428D01*
X75857142Y-139241666D01*
X75904761Y-139432142D01*
X75904761Y-139622619D01*
X75428571Y-139813095D01*
X76761904Y-140384523D02*
X76666666Y-140479761D01*
X76476190Y-140479761D01*
X76380952Y-140384523D01*
X76333333Y-140289285D01*
X76285714Y-140098809D01*
X76285714Y-139527380D01*
X76333333Y-139336904D01*
X76380952Y-139241666D01*
X76476190Y-139146428D01*
X76666666Y-139146428D01*
X76761904Y-139241666D01*
X77619047Y-140479761D02*
X77619047Y-139432142D01*
X77571428Y-139241666D01*
X77476190Y-139146428D01*
X77285714Y-139146428D01*
X77190476Y-139241666D01*
X77619047Y-140384523D02*
X77523809Y-140479761D01*
X77285714Y-140479761D01*
X77190476Y-140384523D01*
X77142857Y-140194047D01*
X77142857Y-140003571D01*
X77190476Y-139813095D01*
X77285714Y-139717857D01*
X77523809Y-139717857D01*
X77619047Y-139622619D01*
X78095238Y-139146428D02*
X78095238Y-140479761D01*
X78095238Y-139336904D02*
X78142857Y-139241666D01*
X78238095Y-139146428D01*
X78380952Y-139146428D01*
X78476190Y-139241666D01*
X78523809Y-139432142D01*
X78523809Y-140479761D01*
X79000000Y-140479761D02*
X79000000Y-139146428D01*
X79000000Y-138479761D02*
X78952380Y-138575000D01*
X79000000Y-138670238D01*
X79047619Y-138575000D01*
X79000000Y-138479761D01*
X79000000Y-138670238D01*
X79904761Y-139146428D02*
X79904761Y-141146428D01*
X79904761Y-140384523D02*
X79809523Y-140479761D01*
X79619047Y-140479761D01*
X79523809Y-140384523D01*
X79476190Y-140289285D01*
X79428571Y-140098809D01*
X79428571Y-139527380D01*
X79476190Y-139336904D01*
X79523809Y-139241666D01*
X79619047Y-139146428D01*
X79809523Y-139146428D01*
X79904761Y-139241666D01*
X80809523Y-139146428D02*
X80809523Y-140479761D01*
X80380952Y-139146428D02*
X80380952Y-140194047D01*
X80428571Y-140384523D01*
X80523809Y-140479761D01*
X80666666Y-140479761D01*
X80761904Y-140384523D01*
X80809523Y-140289285D01*
X81666666Y-140384523D02*
X81571428Y-140479761D01*
X81380952Y-140479761D01*
X81285714Y-140384523D01*
X81238095Y-140194047D01*
X81238095Y-139432142D01*
X81285714Y-139241666D01*
X81380952Y-139146428D01*
X81571428Y-139146428D01*
X81666666Y-139241666D01*
X81714285Y-139432142D01*
X81714285Y-139622619D01*
X81238095Y-139813095D01*
X140642857Y-143079761D02*
X140309523Y-142127380D01*
X140071428Y-143079761D02*
X140071428Y-141079761D01*
X140452380Y-141079761D01*
X140547619Y-141175000D01*
X140595238Y-141270238D01*
X140642857Y-141460714D01*
X140642857Y-141746428D01*
X140595238Y-141936904D01*
X140547619Y-142032142D01*
X140452380Y-142127380D01*
X140071428Y-142127380D01*
X141452380Y-142984523D02*
X141357142Y-143079761D01*
X141166666Y-143079761D01*
X141071428Y-142984523D01*
X141023809Y-142794047D01*
X141023809Y-142032142D01*
X141071428Y-141841666D01*
X141166666Y-141746428D01*
X141357142Y-141746428D01*
X141452380Y-141841666D01*
X141500000Y-142032142D01*
X141500000Y-142222619D01*
X141023809Y-142413095D01*
X142071428Y-143079761D02*
X141976190Y-142984523D01*
X141928571Y-142794047D01*
X141928571Y-141079761D01*
X142880952Y-143079761D02*
X142880952Y-142032142D01*
X142833333Y-141841666D01*
X142738095Y-141746428D01*
X142547619Y-141746428D01*
X142452380Y-141841666D01*
X142880952Y-142984523D02*
X142785714Y-143079761D01*
X142547619Y-143079761D01*
X142452380Y-142984523D01*
X142404761Y-142794047D01*
X142404761Y-142603571D01*
X142452380Y-142413095D01*
X142547619Y-142317857D01*
X142785714Y-142317857D01*
X142880952Y-142222619D01*
X143357142Y-143079761D02*
X143357142Y-141746428D01*
X143357142Y-141079761D02*
X143309523Y-141175000D01*
X143357142Y-141270238D01*
X143404761Y-141175000D01*
X143357142Y-141079761D01*
X143357142Y-141270238D01*
X143785714Y-142984523D02*
X143880952Y-143079761D01*
X144071428Y-143079761D01*
X144166666Y-142984523D01*
X144214285Y-142794047D01*
X144214285Y-142698809D01*
X144166666Y-142508333D01*
X144071428Y-142413095D01*
X143928571Y-142413095D01*
X143833333Y-142317857D01*
X143785714Y-142127380D01*
X143785714Y-142032142D01*
X143833333Y-141841666D01*
X143928571Y-141746428D01*
X144071428Y-141746428D01*
X144166666Y-141841666D01*
X141238095Y-146134523D02*
X141380952Y-146229761D01*
X141619047Y-146229761D01*
X141714285Y-146134523D01*
X141761904Y-146039285D01*
X141809523Y-145848809D01*
X141809523Y-145658333D01*
X141761904Y-145467857D01*
X141714285Y-145372619D01*
X141619047Y-145277380D01*
X141428571Y-145182142D01*
X141333333Y-145086904D01*
X141285714Y-144991666D01*
X141238095Y-144801190D01*
X141238095Y-144610714D01*
X141285714Y-144420238D01*
X141333333Y-144325000D01*
X141428571Y-144229761D01*
X141666666Y-144229761D01*
X141809523Y-144325000D01*
X142190476Y-146134523D02*
X142333333Y-146229761D01*
X142571428Y-146229761D01*
X142666666Y-146134523D01*
X142714285Y-146039285D01*
X142761904Y-145848809D01*
X142761904Y-145658333D01*
X142714285Y-145467857D01*
X142666666Y-145372619D01*
X142571428Y-145277380D01*
X142380952Y-145182142D01*
X142285714Y-145086904D01*
X142238095Y-144991666D01*
X142190476Y-144801190D01*
X142190476Y-144610714D01*
X142238095Y-144420238D01*
X142285714Y-144325000D01*
X142380952Y-144229761D01*
X142619047Y-144229761D01*
X142761904Y-144325000D01*
X143761904Y-146229761D02*
X143428571Y-145277380D01*
X143190476Y-146229761D02*
X143190476Y-144229761D01*
X143571428Y-144229761D01*
X143666666Y-144325000D01*
X143714285Y-144420238D01*
X143761904Y-144610714D01*
X143761904Y-144896428D01*
X143714285Y-145086904D01*
X143666666Y-145182142D01*
X143571428Y-145277380D01*
X143190476Y-145277380D01*
X129357142Y-110079761D02*
X129357142Y-108079761D01*
X129595238Y-108079761D01*
X129738095Y-108175000D01*
X129833333Y-108365476D01*
X129880952Y-108555952D01*
X129928571Y-108936904D01*
X129928571Y-109222619D01*
X129880952Y-109603571D01*
X129833333Y-109794047D01*
X129738095Y-109984523D01*
X129595238Y-110079761D01*
X129357142Y-110079761D01*
X130738095Y-109984523D02*
X130642857Y-110079761D01*
X130452380Y-110079761D01*
X130357142Y-109984523D01*
X130309523Y-109794047D01*
X130309523Y-109032142D01*
X130357142Y-108841666D01*
X130452380Y-108746428D01*
X130642857Y-108746428D01*
X130738095Y-108841666D01*
X130785714Y-109032142D01*
X130785714Y-109222619D01*
X130309523Y-109413095D01*
X131214285Y-110079761D02*
X131214285Y-108746428D01*
X131214285Y-108936904D02*
X131261904Y-108841666D01*
X131357142Y-108746428D01*
X131500000Y-108746428D01*
X131595238Y-108841666D01*
X131642857Y-109032142D01*
X131642857Y-110079761D01*
X131642857Y-109032142D02*
X131690476Y-108841666D01*
X131785714Y-108746428D01*
X131928571Y-108746428D01*
X132023809Y-108841666D01*
X132071428Y-109032142D01*
X132071428Y-110079761D01*
X132976190Y-110079761D02*
X132976190Y-109032142D01*
X132928571Y-108841666D01*
X132833333Y-108746428D01*
X132642857Y-108746428D01*
X132547619Y-108841666D01*
X132976190Y-109984523D02*
X132880952Y-110079761D01*
X132642857Y-110079761D01*
X132547619Y-109984523D01*
X132500000Y-109794047D01*
X132500000Y-109603571D01*
X132547619Y-109413095D01*
X132642857Y-109317857D01*
X132880952Y-109317857D01*
X132976190Y-109222619D01*
X133452380Y-108746428D02*
X133452380Y-110079761D01*
X133452380Y-108936904D02*
X133500000Y-108841666D01*
X133595238Y-108746428D01*
X133738095Y-108746428D01*
X133833333Y-108841666D01*
X133880952Y-109032142D01*
X133880952Y-110079761D01*
X134785714Y-110079761D02*
X134785714Y-108079761D01*
X134785714Y-109984523D02*
X134690476Y-110079761D01*
X134500000Y-110079761D01*
X134404761Y-109984523D01*
X134357142Y-109889285D01*
X134309523Y-109698809D01*
X134309523Y-109127380D01*
X134357142Y-108936904D01*
X134404761Y-108841666D01*
X134500000Y-108746428D01*
X134690476Y-108746428D01*
X134785714Y-108841666D01*
X135642857Y-109984523D02*
X135547619Y-110079761D01*
X135357142Y-110079761D01*
X135261904Y-109984523D01*
X135214285Y-109794047D01*
X135214285Y-109032142D01*
X135261904Y-108841666D01*
X135357142Y-108746428D01*
X135547619Y-108746428D01*
X135642857Y-108841666D01*
X135690476Y-109032142D01*
X135690476Y-109222619D01*
X135214285Y-109413095D01*
X128000000Y-111229761D02*
X128571428Y-111229761D01*
X128285714Y-113229761D02*
X128285714Y-111229761D01*
X129285714Y-113134523D02*
X129190476Y-113229761D01*
X129000000Y-113229761D01*
X128904761Y-113134523D01*
X128857142Y-112944047D01*
X128857142Y-112182142D01*
X128904761Y-111991666D01*
X129000000Y-111896428D01*
X129190476Y-111896428D01*
X129285714Y-111991666D01*
X129333333Y-112182142D01*
X129333333Y-112372619D01*
X128857142Y-112563095D01*
X129761904Y-113229761D02*
X129761904Y-111896428D01*
X129761904Y-112086904D02*
X129809523Y-111991666D01*
X129904761Y-111896428D01*
X130047619Y-111896428D01*
X130142857Y-111991666D01*
X130190476Y-112182142D01*
X130190476Y-113229761D01*
X130190476Y-112182142D02*
X130238095Y-111991666D01*
X130333333Y-111896428D01*
X130476190Y-111896428D01*
X130571428Y-111991666D01*
X130619047Y-112182142D01*
X130619047Y-113229761D01*
X131095238Y-111896428D02*
X131095238Y-113896428D01*
X131095238Y-111991666D02*
X131190476Y-111896428D01*
X131380952Y-111896428D01*
X131476190Y-111991666D01*
X131523809Y-112086904D01*
X131571428Y-112277380D01*
X131571428Y-112848809D01*
X131523809Y-113039285D01*
X131476190Y-113134523D01*
X131380952Y-113229761D01*
X131190476Y-113229761D01*
X131095238Y-113134523D01*
X132380952Y-113134523D02*
X132285714Y-113229761D01*
X132095238Y-113229761D01*
X132000000Y-113134523D01*
X131952380Y-112944047D01*
X131952380Y-112182142D01*
X132000000Y-111991666D01*
X132095238Y-111896428D01*
X132285714Y-111896428D01*
X132380952Y-111991666D01*
X132428571Y-112182142D01*
X132428571Y-112372619D01*
X131952380Y-112563095D01*
X132857142Y-113229761D02*
X132857142Y-111896428D01*
X132857142Y-112277380D02*
X132904761Y-112086904D01*
X132952380Y-111991666D01*
X133047619Y-111896428D01*
X133142857Y-111896428D01*
X133904761Y-113229761D02*
X133904761Y-112182142D01*
X133857142Y-111991666D01*
X133761904Y-111896428D01*
X133571428Y-111896428D01*
X133476190Y-111991666D01*
X133904761Y-113134523D02*
X133809523Y-113229761D01*
X133571428Y-113229761D01*
X133476190Y-113134523D01*
X133428571Y-112944047D01*
X133428571Y-112753571D01*
X133476190Y-112563095D01*
X133571428Y-112467857D01*
X133809523Y-112467857D01*
X133904761Y-112372619D01*
X134238095Y-111896428D02*
X134619047Y-111896428D01*
X134380952Y-111229761D02*
X134380952Y-112944047D01*
X134428571Y-113134523D01*
X134523809Y-113229761D01*
X134619047Y-113229761D01*
X135380952Y-111896428D02*
X135380952Y-113229761D01*
X134952380Y-111896428D02*
X134952380Y-112944047D01*
X135000000Y-113134523D01*
X135095238Y-113229761D01*
X135238095Y-113229761D01*
X135333333Y-113134523D01*
X135380952Y-113039285D01*
X135857142Y-113229761D02*
X135857142Y-111896428D01*
X135857142Y-112277380D02*
X135904761Y-112086904D01*
X135952380Y-111991666D01*
X136047619Y-111896428D01*
X136142857Y-111896428D01*
X136857142Y-113134523D02*
X136761904Y-113229761D01*
X136571428Y-113229761D01*
X136476190Y-113134523D01*
X136428571Y-112944047D01*
X136428571Y-112182142D01*
X136476190Y-111991666D01*
X136571428Y-111896428D01*
X136761904Y-111896428D01*
X136857142Y-111991666D01*
X136904761Y-112182142D01*
X136904761Y-112372619D01*
X136428571Y-112563095D01*
X137023809Y-71829761D02*
X136690476Y-70877380D01*
X136452380Y-71829761D02*
X136452380Y-69829761D01*
X136833333Y-69829761D01*
X136928571Y-69925000D01*
X136976190Y-70020238D01*
X137023809Y-70210714D01*
X137023809Y-70496428D01*
X136976190Y-70686904D01*
X136928571Y-70782142D01*
X136833333Y-70877380D01*
X136452380Y-70877380D01*
X137833333Y-71734523D02*
X137738095Y-71829761D01*
X137547619Y-71829761D01*
X137452380Y-71734523D01*
X137404761Y-71544047D01*
X137404761Y-70782142D01*
X137452380Y-70591666D01*
X137547619Y-70496428D01*
X137738095Y-70496428D01*
X137833333Y-70591666D01*
X137880952Y-70782142D01*
X137880952Y-70972619D01*
X137404761Y-71163095D01*
X138452380Y-71829761D02*
X138357142Y-71734523D01*
X138309523Y-71544047D01*
X138309523Y-69829761D01*
X139261904Y-71829761D02*
X139261904Y-70782142D01*
X139214285Y-70591666D01*
X139119047Y-70496428D01*
X138928571Y-70496428D01*
X138833333Y-70591666D01*
X139261904Y-71734523D02*
X139166666Y-71829761D01*
X138928571Y-71829761D01*
X138833333Y-71734523D01*
X138785714Y-71544047D01*
X138785714Y-71353571D01*
X138833333Y-71163095D01*
X138928571Y-71067857D01*
X139166666Y-71067857D01*
X139261904Y-70972619D01*
X139738095Y-71829761D02*
X139738095Y-70496428D01*
X139738095Y-69829761D02*
X139690476Y-69925000D01*
X139738095Y-70020238D01*
X139785714Y-69925000D01*
X139738095Y-69829761D01*
X139738095Y-70020238D01*
X140166666Y-71734523D02*
X140261904Y-71829761D01*
X140452380Y-71829761D01*
X140547619Y-71734523D01*
X140595238Y-71544047D01*
X140595238Y-71448809D01*
X140547619Y-71258333D01*
X140452380Y-71163095D01*
X140309523Y-71163095D01*
X140214285Y-71067857D01*
X140166666Y-70877380D01*
X140166666Y-70782142D01*
X140214285Y-70591666D01*
X140309523Y-70496428D01*
X140452380Y-70496428D01*
X140547619Y-70591666D01*
X136857142Y-74979761D02*
X136857142Y-72979761D01*
X137190476Y-74408333D01*
X137523809Y-72979761D01*
X137523809Y-74979761D01*
X138380952Y-74884523D02*
X138285714Y-74979761D01*
X138095238Y-74979761D01*
X138000000Y-74884523D01*
X137952380Y-74694047D01*
X137952380Y-73932142D01*
X138000000Y-73741666D01*
X138095238Y-73646428D01*
X138285714Y-73646428D01*
X138380952Y-73741666D01*
X138428571Y-73932142D01*
X138428571Y-74122619D01*
X137952380Y-74313095D01*
X139285714Y-74884523D02*
X139190476Y-74979761D01*
X139000000Y-74979761D01*
X138904761Y-74884523D01*
X138857142Y-74789285D01*
X138809523Y-74598809D01*
X138809523Y-74027380D01*
X138857142Y-73836904D01*
X138904761Y-73741666D01*
X139000000Y-73646428D01*
X139190476Y-73646428D01*
X139285714Y-73741666D01*
X140142857Y-74979761D02*
X140142857Y-73932142D01*
X140095238Y-73741666D01*
X140000000Y-73646428D01*
X139809523Y-73646428D01*
X139714285Y-73741666D01*
X140142857Y-74884523D02*
X140047619Y-74979761D01*
X139809523Y-74979761D01*
X139714285Y-74884523D01*
X139666666Y-74694047D01*
X139666666Y-74503571D01*
X139714285Y-74313095D01*
X139809523Y-74217857D01*
X140047619Y-74217857D01*
X140142857Y-74122619D01*
X65607142Y-67404761D02*
X65130952Y-67404761D01*
X65083333Y-68357142D01*
X65130952Y-68261904D01*
X65226190Y-68166666D01*
X65464285Y-68166666D01*
X65559523Y-68261904D01*
X65607142Y-68357142D01*
X65654761Y-68547619D01*
X65654761Y-69023809D01*
X65607142Y-69214285D01*
X65559523Y-69309523D01*
X65464285Y-69404761D01*
X65226190Y-69404761D01*
X65130952Y-69309523D01*
X65083333Y-69214285D01*
X65988095Y-68071428D02*
X66226190Y-69404761D01*
X66464285Y-68071428D01*
X74607142Y-60404761D02*
X74130952Y-60404761D01*
X74083333Y-61357142D01*
X74130952Y-61261904D01*
X74226190Y-61166666D01*
X74464285Y-61166666D01*
X74559523Y-61261904D01*
X74607142Y-61357142D01*
X74654761Y-61547619D01*
X74654761Y-62023809D01*
X74607142Y-62214285D01*
X74559523Y-62309523D01*
X74464285Y-62404761D01*
X74226190Y-62404761D01*
X74130952Y-62309523D01*
X74083333Y-62214285D01*
X74988095Y-61071428D02*
X75226190Y-62404761D01*
X75464285Y-61071428D01*
X74071428Y-71154761D02*
X74690476Y-71154761D01*
X74357142Y-71916666D01*
X74500000Y-71916666D01*
X74595238Y-72011904D01*
X74642857Y-72107142D01*
X74690476Y-72297619D01*
X74690476Y-72773809D01*
X74642857Y-72964285D01*
X74595238Y-73059523D01*
X74500000Y-73154761D01*
X74214285Y-73154761D01*
X74119047Y-73059523D01*
X74071428Y-72964285D01*
X75119047Y-72964285D02*
X75166666Y-73059523D01*
X75119047Y-73154761D01*
X75071428Y-73059523D01*
X75119047Y-72964285D01*
X75119047Y-73154761D01*
X75500000Y-71154761D02*
X76119047Y-71154761D01*
X75785714Y-71916666D01*
X75928571Y-71916666D01*
X76023809Y-72011904D01*
X76071428Y-72107142D01*
X76119047Y-72297619D01*
X76119047Y-72773809D01*
X76071428Y-72964285D01*
X76023809Y-73059523D01*
X75928571Y-73154761D01*
X75642857Y-73154761D01*
X75547619Y-73059523D01*
X75500000Y-72964285D01*
X76452380Y-71821428D02*
X76690476Y-73154761D01*
X76928571Y-71821428D01*
X85821428Y-78404761D02*
X86440476Y-78404761D01*
X86107142Y-79166666D01*
X86250000Y-79166666D01*
X86345238Y-79261904D01*
X86392857Y-79357142D01*
X86440476Y-79547619D01*
X86440476Y-80023809D01*
X86392857Y-80214285D01*
X86345238Y-80309523D01*
X86250000Y-80404761D01*
X85964285Y-80404761D01*
X85869047Y-80309523D01*
X85821428Y-80214285D01*
X86869047Y-80214285D02*
X86916666Y-80309523D01*
X86869047Y-80404761D01*
X86821428Y-80309523D01*
X86869047Y-80214285D01*
X86869047Y-80404761D01*
X87250000Y-78404761D02*
X87869047Y-78404761D01*
X87535714Y-79166666D01*
X87678571Y-79166666D01*
X87773809Y-79261904D01*
X87821428Y-79357142D01*
X87869047Y-79547619D01*
X87869047Y-80023809D01*
X87821428Y-80214285D01*
X87773809Y-80309523D01*
X87678571Y-80404761D01*
X87392857Y-80404761D01*
X87297619Y-80309523D01*
X87250000Y-80214285D01*
X88202380Y-79071428D02*
X88440476Y-80404761D01*
X88678571Y-79071428D01*
X65785714Y-142511904D02*
X64071428Y-142511904D01*
X64928571Y-142511904D02*
X64928571Y-137511904D01*
X64642857Y-138226190D01*
X64357142Y-138702380D01*
X64071428Y-138940476D01*
X66928571Y-137988095D02*
X67071428Y-137750000D01*
X67357142Y-137511904D01*
X68071428Y-137511904D01*
X68357142Y-137750000D01*
X68500000Y-137988095D01*
X68642857Y-138464285D01*
X68642857Y-138940476D01*
X68500000Y-139654761D01*
X66785714Y-142511904D01*
X68642857Y-142511904D01*
X69642857Y-139178571D02*
X70357142Y-142511904D01*
X71071428Y-139178571D01*
D13*
X67725000Y-79945225D02*
X67225000Y-79945225D01*
X67475000Y-79695225D02*
X67475000Y-80195225D01*
X66284000Y-85101000D02*
X65716000Y-85101000D01*
X66518000Y-85061000D02*
X65482000Y-85061000D01*
X66677000Y-85021000D02*
X65323000Y-85021000D01*
X66805000Y-84981000D02*
X65195000Y-84981000D01*
X66915000Y-84941000D02*
X65085000Y-84941000D01*
X67011000Y-84901000D02*
X64989000Y-84901000D01*
X67098000Y-84861000D02*
X64902000Y-84861000D01*
X67178000Y-84821000D02*
X64822000Y-84821000D01*
X64960000Y-84781000D02*
X64749000Y-84781000D01*
X67251000Y-84781000D02*
X67040000Y-84781000D01*
X64960000Y-84741000D02*
X64681000Y-84741000D01*
X67319000Y-84741000D02*
X67040000Y-84741000D01*
X64960000Y-84701000D02*
X64617000Y-84701000D01*
X67383000Y-84701000D02*
X67040000Y-84701000D01*
X64960000Y-84661000D02*
X64557000Y-84661000D01*
X67443000Y-84661000D02*
X67040000Y-84661000D01*
X64960000Y-84621000D02*
X64500000Y-84621000D01*
X67500000Y-84621000D02*
X67040000Y-84621000D01*
X64960000Y-84581000D02*
X64446000Y-84581000D01*
X67554000Y-84581000D02*
X67040000Y-84581000D01*
X64960000Y-84541000D02*
X64395000Y-84541000D01*
X67605000Y-84541000D02*
X67040000Y-84541000D01*
X64960000Y-84501000D02*
X64347000Y-84501000D01*
X67653000Y-84501000D02*
X67040000Y-84501000D01*
X64960000Y-84461000D02*
X64301000Y-84461000D01*
X67699000Y-84461000D02*
X67040000Y-84461000D01*
X64960000Y-84421000D02*
X64257000Y-84421000D01*
X67743000Y-84421000D02*
X67040000Y-84421000D01*
X64960000Y-84381000D02*
X64215000Y-84381000D01*
X67785000Y-84381000D02*
X67040000Y-84381000D01*
X64960000Y-84341000D02*
X64174000Y-84341000D01*
X67826000Y-84341000D02*
X67040000Y-84341000D01*
X64960000Y-84301000D02*
X64136000Y-84301000D01*
X67864000Y-84301000D02*
X67040000Y-84301000D01*
X64960000Y-84261000D02*
X64099000Y-84261000D01*
X67901000Y-84261000D02*
X67040000Y-84261000D01*
X64960000Y-84221000D02*
X64063000Y-84221000D01*
X67937000Y-84221000D02*
X67040000Y-84221000D01*
X64960000Y-84181000D02*
X64029000Y-84181000D01*
X67971000Y-84181000D02*
X67040000Y-84181000D01*
X64960000Y-84141000D02*
X63996000Y-84141000D01*
X68004000Y-84141000D02*
X67040000Y-84141000D01*
X64960000Y-84101000D02*
X63965000Y-84101000D01*
X68035000Y-84101000D02*
X67040000Y-84101000D01*
X64960000Y-84061000D02*
X63935000Y-84061000D01*
X68065000Y-84061000D02*
X67040000Y-84061000D01*
X64960000Y-84021000D02*
X63905000Y-84021000D01*
X68095000Y-84021000D02*
X67040000Y-84021000D01*
X64960000Y-83981000D02*
X63878000Y-83981000D01*
X68122000Y-83981000D02*
X67040000Y-83981000D01*
X64960000Y-83941000D02*
X63851000Y-83941000D01*
X68149000Y-83941000D02*
X67040000Y-83941000D01*
X64960000Y-83901000D02*
X63825000Y-83901000D01*
X68175000Y-83901000D02*
X67040000Y-83901000D01*
X64960000Y-83861000D02*
X63800000Y-83861000D01*
X68200000Y-83861000D02*
X67040000Y-83861000D01*
X64960000Y-83821000D02*
X63776000Y-83821000D01*
X68224000Y-83821000D02*
X67040000Y-83821000D01*
X64960000Y-83781000D02*
X63753000Y-83781000D01*
X68247000Y-83781000D02*
X67040000Y-83781000D01*
X64960000Y-83741000D02*
X63732000Y-83741000D01*
X68268000Y-83741000D02*
X67040000Y-83741000D01*
X64960000Y-83701000D02*
X63710000Y-83701000D01*
X68290000Y-83701000D02*
X67040000Y-83701000D01*
X64960000Y-83661000D02*
X63690000Y-83661000D01*
X68310000Y-83661000D02*
X67040000Y-83661000D01*
X64960000Y-83621000D02*
X63671000Y-83621000D01*
X68329000Y-83621000D02*
X67040000Y-83621000D01*
X64960000Y-83581000D02*
X63652000Y-83581000D01*
X68348000Y-83581000D02*
X67040000Y-83581000D01*
X64960000Y-83541000D02*
X63635000Y-83541000D01*
X68365000Y-83541000D02*
X67040000Y-83541000D01*
X64960000Y-83501000D02*
X63618000Y-83501000D01*
X68382000Y-83501000D02*
X67040000Y-83501000D01*
X64960000Y-83461000D02*
X63602000Y-83461000D01*
X68398000Y-83461000D02*
X67040000Y-83461000D01*
X64960000Y-83421000D02*
X63586000Y-83421000D01*
X68414000Y-83421000D02*
X67040000Y-83421000D01*
X64960000Y-83381000D02*
X63572000Y-83381000D01*
X68428000Y-83381000D02*
X67040000Y-83381000D01*
X64960000Y-83341000D02*
X63558000Y-83341000D01*
X68442000Y-83341000D02*
X67040000Y-83341000D01*
X64960000Y-83301000D02*
X63545000Y-83301000D01*
X68455000Y-83301000D02*
X67040000Y-83301000D01*
X64960000Y-83261000D02*
X63532000Y-83261000D01*
X68468000Y-83261000D02*
X67040000Y-83261000D01*
X64960000Y-83221000D02*
X63520000Y-83221000D01*
X68480000Y-83221000D02*
X67040000Y-83221000D01*
X64960000Y-83180000D02*
X63509000Y-83180000D01*
X68491000Y-83180000D02*
X67040000Y-83180000D01*
X64960000Y-83140000D02*
X63499000Y-83140000D01*
X68501000Y-83140000D02*
X67040000Y-83140000D01*
X64960000Y-83100000D02*
X63489000Y-83100000D01*
X68511000Y-83100000D02*
X67040000Y-83100000D01*
X64960000Y-83060000D02*
X63480000Y-83060000D01*
X68520000Y-83060000D02*
X67040000Y-83060000D01*
X64960000Y-83020000D02*
X63472000Y-83020000D01*
X68528000Y-83020000D02*
X67040000Y-83020000D01*
X64960000Y-82980000D02*
X63464000Y-82980000D01*
X68536000Y-82980000D02*
X67040000Y-82980000D01*
X64960000Y-82940000D02*
X63457000Y-82940000D01*
X68543000Y-82940000D02*
X67040000Y-82940000D01*
X64960000Y-82900000D02*
X63450000Y-82900000D01*
X68550000Y-82900000D02*
X67040000Y-82900000D01*
X64960000Y-82860000D02*
X63444000Y-82860000D01*
X68556000Y-82860000D02*
X67040000Y-82860000D01*
X64960000Y-82820000D02*
X63439000Y-82820000D01*
X68561000Y-82820000D02*
X67040000Y-82820000D01*
X64960000Y-82780000D02*
X63435000Y-82780000D01*
X68565000Y-82780000D02*
X67040000Y-82780000D01*
X64960000Y-82740000D02*
X63431000Y-82740000D01*
X68569000Y-82740000D02*
X67040000Y-82740000D01*
X68573000Y-82700000D02*
X63427000Y-82700000D01*
X68576000Y-82660000D02*
X63424000Y-82660000D01*
X68578000Y-82620000D02*
X63422000Y-82620000D01*
X68579000Y-82580000D02*
X63421000Y-82580000D01*
X68580000Y-82540000D02*
X63420000Y-82540000D01*
X68580000Y-82500000D02*
X63420000Y-82500000D01*
X68620000Y-82500000D02*
G75*
G03X68620000Y-82500000I-2620000J0D01*
G01*
X115680000Y-66830000D02*
X114350000Y-66830000D01*
X115680000Y-65500000D02*
X115680000Y-66830000D01*
X115680000Y-64230000D02*
X113020000Y-64230000D01*
X113020000Y-64230000D02*
X113020000Y-61630000D01*
X115680000Y-64230000D02*
X115680000Y-61630000D01*
X115680000Y-61630000D02*
X113020000Y-61630000D01*
X118580000Y-66830000D02*
X117250000Y-66830000D01*
X118580000Y-65500000D02*
X118580000Y-66830000D01*
X118580000Y-64230000D02*
X115920000Y-64230000D01*
X115920000Y-64230000D02*
X115920000Y-61630000D01*
X118580000Y-64230000D02*
X118580000Y-61630000D01*
X118580000Y-61630000D02*
X115920000Y-61630000D01*
X125670000Y-100580000D02*
X125670000Y-99250000D01*
X127000000Y-100580000D02*
X125670000Y-100580000D01*
X128270000Y-100580000D02*
X128270000Y-97920000D01*
X128270000Y-97920000D02*
X130870000Y-97920000D01*
X128270000Y-100580000D02*
X130870000Y-100580000D01*
X130870000Y-100580000D02*
X130870000Y-97920000D01*
X56510000Y-75330000D02*
X56510000Y-78070000D01*
X56510000Y-78070000D02*
X63050000Y-78070000D01*
X63050000Y-78070000D02*
X63050000Y-75330000D01*
X63050000Y-75330000D02*
X56510000Y-75330000D01*
X55740000Y-76700000D02*
X56510000Y-76700000D01*
X63820000Y-76700000D02*
X63050000Y-76700000D01*
X56110000Y-59630000D02*
X56110000Y-62370000D01*
X56110000Y-62370000D02*
X62650000Y-62370000D01*
X62650000Y-62370000D02*
X62650000Y-59630000D01*
X62650000Y-59630000D02*
X56110000Y-59630000D01*
X55340000Y-61000000D02*
X56110000Y-61000000D01*
X63420000Y-61000000D02*
X62650000Y-61000000D01*
X56010000Y-146330000D02*
X56010000Y-149070000D01*
X56010000Y-149070000D02*
X62550000Y-149070000D01*
X62550000Y-149070000D02*
X62550000Y-146330000D01*
X62550000Y-146330000D02*
X56010000Y-146330000D01*
X55240000Y-147700000D02*
X56010000Y-147700000D01*
X63320000Y-147700000D02*
X62550000Y-147700000D01*
X128850000Y-59630000D02*
X128850000Y-62370000D01*
X128850000Y-62370000D02*
X135390000Y-62370000D01*
X135390000Y-62370000D02*
X135390000Y-59630000D01*
X135390000Y-59630000D02*
X128850000Y-59630000D01*
X128080000Y-61000000D02*
X128850000Y-61000000D01*
X136160000Y-61000000D02*
X135390000Y-61000000D01*
X68357665Y-72678608D02*
G75*
G03X71590000Y-72835516I1672335J1078608D01*
G01*
X68357665Y-70521392D02*
G75*
G02X71590000Y-70364484I1672335J-1078608D01*
G01*
X68988870Y-72679837D02*
G75*
G03X71070961Y-72680000I1041130J1079837D01*
G01*
X68988870Y-70520163D02*
G75*
G02X71070961Y-70520000I1041130J-1079837D01*
G01*
X71590000Y-72836000D02*
X71590000Y-72680000D01*
X71590000Y-70520000D02*
X71590000Y-70364000D01*
X68257665Y-62078608D02*
G75*
G03X71490000Y-62235516I1672335J1078608D01*
G01*
X68257665Y-59921392D02*
G75*
G02X71490000Y-59764484I1672335J-1078608D01*
G01*
X68888870Y-62079837D02*
G75*
G03X70970961Y-62080000I1041130J1079837D01*
G01*
X68888870Y-59920163D02*
G75*
G02X70970961Y-59920000I1041130J-1079837D01*
G01*
X71490000Y-62236000D02*
X71490000Y-62080000D01*
X71490000Y-59920000D02*
X71490000Y-59764000D01*
X67457665Y-148678608D02*
G75*
G03X70690000Y-148835516I1672335J1078608D01*
G01*
X67457665Y-146521392D02*
G75*
G02X70690000Y-146364484I1672335J-1078608D01*
G01*
X68088870Y-148679837D02*
G75*
G03X70170961Y-148680000I1041130J1079837D01*
G01*
X68088870Y-146520163D02*
G75*
G02X70170961Y-146520000I1041130J-1079837D01*
G01*
X70690000Y-148836000D02*
X70690000Y-148680000D01*
X70690000Y-146520000D02*
X70690000Y-146364000D01*
X63470000Y-96070000D02*
X66130000Y-96070000D01*
X63470000Y-93470000D02*
X63470000Y-96070000D01*
X66130000Y-93470000D02*
X66130000Y-96070000D01*
X63470000Y-93470000D02*
X66130000Y-93470000D01*
X63470000Y-92200000D02*
X63470000Y-90870000D01*
X63470000Y-90870000D02*
X64800000Y-90870000D01*
X130560000Y-90130000D02*
X130560000Y-92870000D01*
X130560000Y-92870000D02*
X137100000Y-92870000D01*
X137100000Y-92870000D02*
X137100000Y-90130000D01*
X137100000Y-90130000D02*
X130560000Y-90130000D01*
X129790000Y-91500000D02*
X130560000Y-91500000D01*
X137870000Y-91500000D02*
X137100000Y-91500000D01*
X84100000Y-74600000D02*
X86900000Y-71800000D01*
X85100000Y-75600000D02*
X87900000Y-72800000D01*
X88121320Y-73700000D02*
G75*
G03X88121320Y-73700000I-2121320J0D01*
G01*
X91900000Y-71800000D02*
X89100000Y-74600000D01*
X90100000Y-75600000D02*
X92900000Y-72800000D01*
D14*
G36*
X86000000Y-71200000D02*
G01*
X87000000Y-69700000D01*
X85000000Y-69700000D01*
X86000000Y-71200000D01*
G37*
X86000000Y-71200000D02*
X87000000Y-69700000D01*
X85000000Y-69700000D01*
X86000000Y-71200000D01*
G36*
X91000000Y-71200000D02*
G01*
X92000000Y-69700000D01*
X90000000Y-69700000D01*
X91000000Y-71200000D01*
G37*
X91000000Y-71200000D02*
X92000000Y-69700000D01*
X90000000Y-69700000D01*
X91000000Y-71200000D01*
D13*
X83000000Y-76700000D02*
X83500000Y-76700000D01*
X83000000Y-77200000D02*
X83000000Y-76700000D01*
X83500000Y-77200000D02*
X83000000Y-77200000D01*
X93000000Y-76700000D02*
X93500000Y-76700000D01*
X93000000Y-77200000D02*
X93000000Y-76700000D01*
X93500000Y-77200000D02*
X93000000Y-77200000D01*
X93500000Y-76200000D02*
X83500000Y-76200000D01*
X93121320Y-73700000D02*
G75*
G03X93121320Y-73700000I-2121320J0D01*
G01*
X93500000Y-70200000D02*
X83500000Y-70200000D01*
X93500000Y-69700000D02*
X93500000Y-77700000D01*
X83500000Y-69700000D02*
X93500000Y-69700000D01*
X83500000Y-77700000D02*
X83500000Y-69700000D01*
X93500000Y-77700000D02*
X83500000Y-77700000D01*
X60900000Y-72800000D02*
X58100000Y-70000000D01*
X61900000Y-71800000D02*
X59100000Y-69000000D01*
X62121320Y-70900000D02*
G75*
G03X62121320Y-70900000I-2121320J0D01*
G01*
X58100000Y-65000000D02*
X60900000Y-67800000D01*
X61900000Y-66800000D02*
X59100000Y-64000000D01*
D14*
G36*
X57500000Y-70900000D02*
G01*
X56000000Y-69900000D01*
X56000000Y-71900000D01*
X57500000Y-70900000D01*
G37*
X57500000Y-70900000D02*
X56000000Y-69900000D01*
X56000000Y-71900000D01*
X57500000Y-70900000D01*
G36*
X57500000Y-65900000D02*
G01*
X56000000Y-64900000D01*
X56000000Y-66900000D01*
X57500000Y-65900000D01*
G37*
X57500000Y-65900000D02*
X56000000Y-64900000D01*
X56000000Y-66900000D01*
X57500000Y-65900000D01*
D13*
X63000000Y-73900000D02*
X63000000Y-73400000D01*
X63500000Y-73900000D02*
X63000000Y-73900000D01*
X63500000Y-73400000D02*
X63500000Y-73900000D01*
X63000000Y-63900000D02*
X63000000Y-63400000D01*
X63500000Y-63900000D02*
X63000000Y-63900000D01*
X63500000Y-63400000D02*
X63500000Y-63900000D01*
X62500000Y-63400000D02*
X62500000Y-73400000D01*
X62121320Y-65900000D02*
G75*
G03X62121320Y-65900000I-2121320J0D01*
G01*
X56500000Y-63400000D02*
X56500000Y-73400000D01*
X56000000Y-63400000D02*
X64000000Y-63400000D01*
X56000000Y-73400000D02*
X56000000Y-63400000D01*
X64000000Y-73400000D02*
X56000000Y-73400000D01*
X64000000Y-63400000D02*
X64000000Y-73400000D01*
X55500000Y-134900000D02*
X58300000Y-137700000D01*
X54500000Y-135900000D02*
X57300000Y-138700000D01*
X58521320Y-136800000D02*
G75*
G03X58521320Y-136800000I-2121320J0D01*
G01*
X58300000Y-142700000D02*
X55500000Y-139900000D01*
X54500000Y-140900000D02*
X57300000Y-143700000D01*
D14*
G36*
X58900000Y-136800000D02*
G01*
X60400000Y-137800000D01*
X60400000Y-135800000D01*
X58900000Y-136800000D01*
G37*
X58900000Y-136800000D02*
X60400000Y-137800000D01*
X60400000Y-135800000D01*
X58900000Y-136800000D01*
G36*
X58900000Y-141800000D02*
G01*
X60400000Y-142800000D01*
X60400000Y-140800000D01*
X58900000Y-141800000D01*
G37*
X58900000Y-141800000D02*
X60400000Y-142800000D01*
X60400000Y-140800000D01*
X58900000Y-141800000D01*
D13*
X53400000Y-133800000D02*
X53400000Y-134300000D01*
X52900000Y-133800000D02*
X53400000Y-133800000D01*
X52900000Y-134300000D02*
X52900000Y-133800000D01*
X53400000Y-143800000D02*
X53400000Y-144300000D01*
X52900000Y-143800000D02*
X53400000Y-143800000D01*
X52900000Y-144300000D02*
X52900000Y-143800000D01*
X53900000Y-144300000D02*
X53900000Y-134300000D01*
X58521320Y-141800000D02*
G75*
G03X58521320Y-141800000I-2121320J0D01*
G01*
X59900000Y-144300000D02*
X59900000Y-134300000D01*
X60400000Y-144300000D02*
X52400000Y-144300000D01*
X60400000Y-134300000D02*
X60400000Y-144300000D01*
X52400000Y-134300000D02*
X60400000Y-134300000D01*
X52400000Y-144300000D02*
X52400000Y-134300000D01*
X120770000Y-140330000D02*
X120770000Y-137670000D01*
X118170000Y-140330000D02*
X120770000Y-140330000D01*
X118170000Y-137670000D02*
X120770000Y-137670000D01*
X118170000Y-140330000D02*
X118170000Y-137670000D01*
X116900000Y-140330000D02*
X115570000Y-140330000D01*
X115570000Y-140330000D02*
X115570000Y-139000000D01*
X104830000Y-140330000D02*
X104830000Y-137670000D01*
X102230000Y-140330000D02*
X104830000Y-140330000D01*
X102230000Y-137670000D02*
X104830000Y-137670000D01*
X102230000Y-140330000D02*
X102230000Y-137670000D01*
X100960000Y-140330000D02*
X99630000Y-140330000D01*
X99630000Y-140330000D02*
X99630000Y-139000000D01*
X87770000Y-140930000D02*
X87770000Y-138270000D01*
X85170000Y-140930000D02*
X87770000Y-140930000D01*
X85170000Y-138270000D02*
X87770000Y-138270000D01*
X85170000Y-140930000D02*
X85170000Y-138270000D01*
X83900000Y-140930000D02*
X82570000Y-140930000D01*
X82570000Y-140930000D02*
X82570000Y-139600000D01*
X134970000Y-135530000D02*
X134970000Y-132870000D01*
X132370000Y-135530000D02*
X134970000Y-135530000D01*
X132370000Y-132870000D02*
X134970000Y-132870000D01*
X132370000Y-135530000D02*
X132370000Y-132870000D01*
X131100000Y-135530000D02*
X129770000Y-135530000D01*
X129770000Y-135530000D02*
X129770000Y-134200000D01*
X100330000Y-116380000D02*
X97670000Y-116380000D01*
X100330000Y-118980000D02*
X100330000Y-116380000D01*
X97670000Y-118980000D02*
X97670000Y-116380000D01*
X100330000Y-118980000D02*
X97670000Y-118980000D01*
X100330000Y-120250000D02*
X100330000Y-121580000D01*
X100330000Y-121580000D02*
X99000000Y-121580000D01*
X68630000Y-104420000D02*
X68630000Y-107080000D01*
X71230000Y-104420000D02*
X68630000Y-104420000D01*
X71230000Y-107080000D02*
X68630000Y-107080000D01*
X71230000Y-104420000D02*
X71230000Y-107080000D01*
X72500000Y-104420000D02*
X73830000Y-104420000D01*
X73830000Y-104420000D02*
X73830000Y-105750000D01*
X68630000Y-109420000D02*
X68630000Y-112080000D01*
X71230000Y-109420000D02*
X68630000Y-109420000D01*
X71230000Y-112080000D02*
X68630000Y-112080000D01*
X71230000Y-109420000D02*
X71230000Y-112080000D01*
X72500000Y-109420000D02*
X73830000Y-109420000D01*
X73830000Y-109420000D02*
X73830000Y-110750000D01*
X68630000Y-114420000D02*
X68630000Y-117080000D01*
X71230000Y-114420000D02*
X68630000Y-114420000D01*
X71230000Y-117080000D02*
X68630000Y-117080000D01*
X71230000Y-114420000D02*
X71230000Y-117080000D01*
X72500000Y-114420000D02*
X73830000Y-114420000D01*
X73830000Y-114420000D02*
X73830000Y-115750000D01*
X68630000Y-119420000D02*
X68630000Y-122080000D01*
X71230000Y-119420000D02*
X68630000Y-119420000D01*
X71230000Y-122080000D02*
X68630000Y-122080000D01*
X71230000Y-119420000D02*
X71230000Y-122080000D01*
X72500000Y-119420000D02*
X73830000Y-119420000D01*
X73830000Y-119420000D02*
X73830000Y-120750000D01*
X68630000Y-124420000D02*
X68630000Y-127080000D01*
X71230000Y-124420000D02*
X68630000Y-124420000D01*
X71230000Y-127080000D02*
X68630000Y-127080000D01*
X71230000Y-124420000D02*
X71230000Y-127080000D01*
X72500000Y-124420000D02*
X73830000Y-124420000D01*
X73830000Y-124420000D02*
X73830000Y-125750000D01*
X134870000Y-139330000D02*
X134870000Y-136670000D01*
X132270000Y-139330000D02*
X134870000Y-139330000D01*
X132270000Y-136670000D02*
X134870000Y-136670000D01*
X132270000Y-139330000D02*
X132270000Y-136670000D01*
X131000000Y-139330000D02*
X129670000Y-139330000D01*
X129670000Y-139330000D02*
X129670000Y-138000000D01*
X87870000Y-138330000D02*
X87870000Y-135670000D01*
X85270000Y-138330000D02*
X87870000Y-138330000D01*
X85270000Y-135670000D02*
X87870000Y-135670000D01*
X85270000Y-138330000D02*
X85270000Y-135670000D01*
X84000000Y-138330000D02*
X82670000Y-138330000D01*
X82670000Y-138330000D02*
X82670000Y-137000000D01*
X104870000Y-137330000D02*
X104870000Y-134670000D01*
X102270000Y-137330000D02*
X104870000Y-137330000D01*
X102270000Y-134670000D02*
X104870000Y-134670000D01*
X102270000Y-137330000D02*
X102270000Y-134670000D01*
X101000000Y-137330000D02*
X99670000Y-137330000D01*
X99670000Y-137330000D02*
X99670000Y-136000000D01*
X120870000Y-137330000D02*
X120870000Y-134670000D01*
X118270000Y-137330000D02*
X120870000Y-137330000D01*
X118270000Y-134670000D02*
X120870000Y-134670000D01*
X118270000Y-137330000D02*
X118270000Y-134670000D01*
X117000000Y-137330000D02*
X115670000Y-137330000D01*
X115670000Y-137330000D02*
X115670000Y-136000000D01*
X140457665Y-115578608D02*
G75*
G03X143690000Y-115735516I1672335J1078608D01*
G01*
X140457665Y-113421392D02*
G75*
G02X143690000Y-113264484I1672335J-1078608D01*
G01*
X141088870Y-115579837D02*
G75*
G03X143170961Y-115580000I1041130J1079837D01*
G01*
X141088870Y-113420163D02*
G75*
G02X143170961Y-113420000I1041130J-1079837D01*
G01*
X143690000Y-115736000D02*
X143690000Y-115580000D01*
X143690000Y-113420000D02*
X143690000Y-113264000D01*
X140457665Y-139578608D02*
G75*
G03X143690000Y-139735516I1672335J1078608D01*
G01*
X140457665Y-137421392D02*
G75*
G02X143690000Y-137264484I1672335J-1078608D01*
G01*
X141088870Y-139579837D02*
G75*
G03X143170961Y-139580000I1041130J1079837D01*
G01*
X141088870Y-137420163D02*
G75*
G02X143170961Y-137420000I1041130J-1079837D01*
G01*
X143690000Y-139736000D02*
X143690000Y-139580000D01*
X143690000Y-137420000D02*
X143690000Y-137264000D01*
X140457665Y-109328608D02*
G75*
G03X143690000Y-109485516I1672335J1078608D01*
G01*
X140457665Y-107171392D02*
G75*
G02X143690000Y-107014484I1672335J-1078608D01*
G01*
X141088870Y-109329837D02*
G75*
G03X143170961Y-109330000I1041130J1079837D01*
G01*
X141088870Y-107170163D02*
G75*
G02X143170961Y-107170000I1041130J-1079837D01*
G01*
X143690000Y-109486000D02*
X143690000Y-109330000D01*
X143690000Y-107170000D02*
X143690000Y-107014000D01*
X140257665Y-62078608D02*
G75*
G03X143490000Y-62235516I1672335J1078608D01*
G01*
X140257665Y-59921392D02*
G75*
G02X143490000Y-59764484I1672335J-1078608D01*
G01*
X140888870Y-62079837D02*
G75*
G03X142970961Y-62080000I1041130J1079837D01*
G01*
X140888870Y-59920163D02*
G75*
G02X142970961Y-59920000I1041130J-1079837D01*
G01*
X143490000Y-62236000D02*
X143490000Y-62080000D01*
X143490000Y-59920000D02*
X143490000Y-59764000D01*
X140257665Y-68078608D02*
G75*
G03X143490000Y-68235516I1672335J1078608D01*
G01*
X140257665Y-65921392D02*
G75*
G02X143490000Y-65764484I1672335J-1078608D01*
G01*
X140888870Y-68079837D02*
G75*
G03X142970961Y-68080000I1041130J1079837D01*
G01*
X140888870Y-65920163D02*
G75*
G02X142970961Y-65920000I1041130J-1079837D01*
G01*
X143490000Y-68236000D02*
X143490000Y-68080000D01*
X143490000Y-65920000D02*
X143490000Y-65764000D01*
X72120000Y-78560000D02*
X69380000Y-78560000D01*
X69380000Y-78560000D02*
X69380000Y-85100000D01*
X69380000Y-85100000D02*
X72120000Y-85100000D01*
X72120000Y-85100000D02*
X72120000Y-78560000D01*
X70750000Y-77790000D02*
X70750000Y-78560000D01*
X70750000Y-85870000D02*
X70750000Y-85100000D01*
X132060000Y-116880000D02*
X132060000Y-119620000D01*
X132060000Y-119620000D02*
X138600000Y-119620000D01*
X138600000Y-119620000D02*
X138600000Y-116880000D01*
X138600000Y-116880000D02*
X132060000Y-116880000D01*
X131290000Y-118250000D02*
X132060000Y-118250000D01*
X139370000Y-118250000D02*
X138600000Y-118250000D01*
X85850000Y-107120000D02*
X85850000Y-104380000D01*
X85850000Y-104380000D02*
X79310000Y-104380000D01*
X79310000Y-104380000D02*
X79310000Y-107120000D01*
X79310000Y-107120000D02*
X85850000Y-107120000D01*
X86620000Y-105750000D02*
X85850000Y-105750000D01*
X78540000Y-105750000D02*
X79310000Y-105750000D01*
X79150000Y-109380000D02*
X79150000Y-112120000D01*
X79150000Y-112120000D02*
X85690000Y-112120000D01*
X85690000Y-112120000D02*
X85690000Y-109380000D01*
X85690000Y-109380000D02*
X79150000Y-109380000D01*
X78380000Y-110750000D02*
X79150000Y-110750000D01*
X86460000Y-110750000D02*
X85690000Y-110750000D01*
X79150000Y-114380000D02*
X79150000Y-117120000D01*
X79150000Y-117120000D02*
X85690000Y-117120000D01*
X85690000Y-117120000D02*
X85690000Y-114380000D01*
X85690000Y-114380000D02*
X79150000Y-114380000D01*
X78380000Y-115750000D02*
X79150000Y-115750000D01*
X86460000Y-115750000D02*
X85690000Y-115750000D01*
X79310000Y-119380000D02*
X79310000Y-122120000D01*
X79310000Y-122120000D02*
X85850000Y-122120000D01*
X85850000Y-122120000D02*
X85850000Y-119380000D01*
X85850000Y-119380000D02*
X79310000Y-119380000D01*
X78540000Y-120750000D02*
X79310000Y-120750000D01*
X86620000Y-120750000D02*
X85850000Y-120750000D01*
X79150000Y-123380000D02*
X79150000Y-126120000D01*
X79150000Y-126120000D02*
X85690000Y-126120000D01*
X85690000Y-126120000D02*
X85690000Y-123380000D01*
X85690000Y-123380000D02*
X79150000Y-123380000D01*
X78380000Y-124750000D02*
X79150000Y-124750000D01*
X86460000Y-124750000D02*
X85690000Y-124750000D01*
X79150000Y-128380000D02*
X79150000Y-131120000D01*
X79150000Y-131120000D02*
X85690000Y-131120000D01*
X85690000Y-131120000D02*
X85690000Y-128380000D01*
X85690000Y-128380000D02*
X79150000Y-128380000D01*
X78380000Y-129750000D02*
X79150000Y-129750000D01*
X86460000Y-129750000D02*
X85690000Y-129750000D01*
X78370000Y-78560000D02*
X75630000Y-78560000D01*
X75630000Y-78560000D02*
X75630000Y-85100000D01*
X75630000Y-85100000D02*
X78370000Y-85100000D01*
X78370000Y-85100000D02*
X78370000Y-78560000D01*
X77000000Y-77790000D02*
X77000000Y-78560000D01*
X77000000Y-85870000D02*
X77000000Y-85100000D01*
X132060000Y-126830000D02*
X132060000Y-129570000D01*
X132060000Y-129570000D02*
X138600000Y-129570000D01*
X138600000Y-129570000D02*
X138600000Y-126830000D01*
X138600000Y-126830000D02*
X132060000Y-126830000D01*
X131290000Y-128200000D02*
X132060000Y-128200000D01*
X139370000Y-128200000D02*
X138600000Y-128200000D01*
X132060000Y-121030000D02*
X132060000Y-123770000D01*
X132060000Y-123770000D02*
X138600000Y-123770000D01*
X138600000Y-123770000D02*
X138600000Y-121030000D01*
X138600000Y-121030000D02*
X132060000Y-121030000D01*
X131290000Y-122400000D02*
X132060000Y-122400000D01*
X139370000Y-122400000D02*
X138600000Y-122400000D01*
X136790000Y-97570000D02*
X136790000Y-94830000D01*
X136790000Y-94830000D02*
X130250000Y-94830000D01*
X130250000Y-94830000D02*
X130250000Y-97570000D01*
X130250000Y-97570000D02*
X136790000Y-97570000D01*
X137560000Y-96200000D02*
X136790000Y-96200000D01*
X129480000Y-96200000D02*
X130250000Y-96200000D01*
X132060000Y-103130000D02*
X132060000Y-105870000D01*
X132060000Y-105870000D02*
X138600000Y-105870000D01*
X138600000Y-105870000D02*
X138600000Y-103130000D01*
X138600000Y-103130000D02*
X132060000Y-103130000D01*
X131290000Y-104500000D02*
X132060000Y-104500000D01*
X139370000Y-104500000D02*
X138600000Y-104500000D01*
X129010000Y-65630000D02*
X129010000Y-68370000D01*
X129010000Y-68370000D02*
X135550000Y-68370000D01*
X135550000Y-68370000D02*
X135550000Y-65630000D01*
X135550000Y-65630000D02*
X129010000Y-65630000D01*
X128240000Y-67000000D02*
X129010000Y-67000000D01*
X136320000Y-67000000D02*
X135550000Y-67000000D01*
X68970000Y-96100000D02*
X72570000Y-96100000D01*
X68931522Y-96088478D02*
G75*
G02X70770000Y-91650000I1838478J1838478D01*
G01*
X72608478Y-96088478D02*
G75*
G03X70770000Y-91650000I-1838478J1838478D01*
G01*
X75200000Y-96005000D02*
X78800000Y-96005000D01*
X75161522Y-95993478D02*
G75*
G02X77000000Y-91555000I1838478J1838478D01*
G01*
X78838478Y-95993478D02*
G75*
G03X77000000Y-91555000I-1838478J1838478D01*
G01*
X144255000Y-134730000D02*
X144255000Y-131130000D01*
X144243478Y-134768478D02*
G75*
G02X139805000Y-132930000I-1838478J1838478D01*
G01*
X144243478Y-131091522D02*
G75*
G03X139805000Y-132930000I-1838478J-1838478D01*
G01*
X144255000Y-101700000D02*
X144255000Y-98100000D01*
X144243478Y-101738478D02*
G75*
G02X139805000Y-99900000I-1838478J1838478D01*
G01*
X144243478Y-98061522D02*
G75*
G03X139805000Y-99900000I-1838478J-1838478D01*
G01*
X144315000Y-89470000D02*
X144315000Y-85870000D01*
X144303478Y-89508478D02*
G75*
G02X139865000Y-87670000I-1838478J1838478D01*
G01*
X144303478Y-85831522D02*
G75*
G03X139865000Y-87670000I-1838478J-1838478D01*
G01*
X84130000Y-84920000D02*
X85460000Y-84920000D01*
X84130000Y-86250000D02*
X84130000Y-84920000D01*
X86730000Y-84920000D02*
X89330000Y-84920000D01*
X86730000Y-87520000D02*
X86730000Y-84920000D01*
X84130000Y-87520000D02*
X86730000Y-87520000D01*
X89330000Y-84920000D02*
X89330000Y-97740000D01*
X84130000Y-87520000D02*
X84130000Y-97740000D01*
X84130000Y-97740000D02*
X89330000Y-97740000D01*
X132330000Y-86830000D02*
X131000000Y-86830000D01*
X132330000Y-85500000D02*
X132330000Y-86830000D01*
X129730000Y-86830000D02*
X127130000Y-86830000D01*
X129730000Y-84230000D02*
X129730000Y-86830000D01*
X132330000Y-84230000D02*
X129730000Y-84230000D01*
X127130000Y-86830000D02*
X127130000Y-74010000D01*
X132330000Y-84230000D02*
X132330000Y-74010000D01*
X132330000Y-74010000D02*
X127130000Y-74010000D01*
X62900000Y-78600000D02*
X62900000Y-130600000D01*
X62900000Y-130600000D02*
X52900000Y-130600000D01*
X52900000Y-130600000D02*
X52900000Y-78600000D01*
X52900000Y-78600000D02*
X62900000Y-78600000D01*
X52900000Y-78600000D02*
X37900000Y-78600000D01*
X37900000Y-78600000D02*
X37900000Y-130600000D01*
X37900000Y-130600000D02*
X52900000Y-130600000D01*
X37900000Y-102600000D02*
X39900000Y-102600000D01*
X39900000Y-102600000D02*
X39900000Y-106600000D01*
X39900000Y-106600000D02*
X37900000Y-106600000D01*
X127500000Y-141000000D02*
X137500000Y-141000000D01*
X137500000Y-141000000D02*
X137500000Y-149000000D01*
X137500000Y-149000000D02*
X127500000Y-149000000D01*
X127500000Y-149000000D02*
X127500000Y-141000000D01*
X127500000Y-148500000D02*
X137500000Y-148500000D01*
X132121320Y-145000000D02*
G75*
G03X132121320Y-145000000I-2121320J0D01*
G01*
X127500000Y-142500000D02*
X137500000Y-142500000D01*
X127500000Y-141500000D02*
X128000000Y-141500000D01*
X128000000Y-141500000D02*
X128000000Y-142000000D01*
X128000000Y-142000000D02*
X127500000Y-142000000D01*
X137500000Y-141500000D02*
X138000000Y-141500000D01*
X138000000Y-141500000D02*
X138000000Y-142000000D01*
X138000000Y-142000000D02*
X137500000Y-142000000D01*
D14*
G36*
X130000000Y-147500000D02*
G01*
X129000000Y-149000000D01*
X131000000Y-149000000D01*
X130000000Y-147500000D01*
G37*
X130000000Y-147500000D02*
X129000000Y-149000000D01*
X131000000Y-149000000D01*
X130000000Y-147500000D01*
G36*
X135000000Y-147500000D02*
G01*
X134000000Y-149000000D01*
X136000000Y-149000000D01*
X135000000Y-147500000D01*
G37*
X135000000Y-147500000D02*
X134000000Y-149000000D01*
X136000000Y-149000000D01*
X135000000Y-147500000D01*
D13*
X130900000Y-143100000D02*
X128100000Y-145900000D01*
X129100000Y-146900000D02*
X131900000Y-144100000D01*
X137121320Y-145000000D02*
G75*
G03X137121320Y-145000000I-2121320J0D01*
G01*
X135900000Y-143100000D02*
X133100000Y-145900000D01*
X136900000Y-144100000D02*
X134100000Y-146900000D01*
X89900000Y-144100000D02*
X87100000Y-146900000D01*
X88900000Y-143100000D02*
X86100000Y-145900000D01*
X90121320Y-145000000D02*
G75*
G03X90121320Y-145000000I-2121320J0D01*
G01*
X82100000Y-146900000D02*
X84900000Y-144100000D01*
X83900000Y-143100000D02*
X81100000Y-145900000D01*
D14*
G36*
X88000000Y-147500000D02*
G01*
X87000000Y-149000000D01*
X89000000Y-149000000D01*
X88000000Y-147500000D01*
G37*
X88000000Y-147500000D02*
X87000000Y-149000000D01*
X89000000Y-149000000D01*
X88000000Y-147500000D01*
G36*
X83000000Y-147500000D02*
G01*
X82000000Y-149000000D01*
X84000000Y-149000000D01*
X83000000Y-147500000D01*
G37*
X83000000Y-147500000D02*
X82000000Y-149000000D01*
X84000000Y-149000000D01*
X83000000Y-147500000D01*
D13*
X91000000Y-142000000D02*
X90500000Y-142000000D01*
X91000000Y-141500000D02*
X91000000Y-142000000D01*
X90500000Y-141500000D02*
X91000000Y-141500000D01*
X81000000Y-142000000D02*
X80500000Y-142000000D01*
X81000000Y-141500000D02*
X81000000Y-142000000D01*
X80500000Y-141500000D02*
X81000000Y-141500000D01*
X80500000Y-142500000D02*
X90500000Y-142500000D01*
X85121320Y-145000000D02*
G75*
G03X85121320Y-145000000I-2121320J0D01*
G01*
X80500000Y-148500000D02*
X90500000Y-148500000D01*
X80500000Y-149000000D02*
X80500000Y-141000000D01*
X90500000Y-149000000D02*
X80500000Y-149000000D01*
X90500000Y-141000000D02*
X90500000Y-149000000D01*
X80500000Y-141000000D02*
X90500000Y-141000000D01*
X106900000Y-144100000D02*
X104100000Y-146900000D01*
X105900000Y-143100000D02*
X103100000Y-145900000D01*
X107121320Y-145000000D02*
G75*
G03X107121320Y-145000000I-2121320J0D01*
G01*
X99100000Y-146900000D02*
X101900000Y-144100000D01*
X100900000Y-143100000D02*
X98100000Y-145900000D01*
D14*
G36*
X105000000Y-147500000D02*
G01*
X104000000Y-149000000D01*
X106000000Y-149000000D01*
X105000000Y-147500000D01*
G37*
X105000000Y-147500000D02*
X104000000Y-149000000D01*
X106000000Y-149000000D01*
X105000000Y-147500000D01*
G36*
X100000000Y-147500000D02*
G01*
X99000000Y-149000000D01*
X101000000Y-149000000D01*
X100000000Y-147500000D01*
G37*
X100000000Y-147500000D02*
X99000000Y-149000000D01*
X101000000Y-149000000D01*
X100000000Y-147500000D01*
D13*
X108000000Y-142000000D02*
X107500000Y-142000000D01*
X108000000Y-141500000D02*
X108000000Y-142000000D01*
X107500000Y-141500000D02*
X108000000Y-141500000D01*
X98000000Y-142000000D02*
X97500000Y-142000000D01*
X98000000Y-141500000D02*
X98000000Y-142000000D01*
X97500000Y-141500000D02*
X98000000Y-141500000D01*
X97500000Y-142500000D02*
X107500000Y-142500000D01*
X102121320Y-145000000D02*
G75*
G03X102121320Y-145000000I-2121320J0D01*
G01*
X97500000Y-148500000D02*
X107500000Y-148500000D01*
X97500000Y-149000000D02*
X97500000Y-141000000D01*
X107500000Y-149000000D02*
X97500000Y-149000000D01*
X107500000Y-141000000D02*
X107500000Y-149000000D01*
X97500000Y-141000000D02*
X107500000Y-141000000D01*
X112500000Y-141000000D02*
X122500000Y-141000000D01*
X122500000Y-141000000D02*
X122500000Y-149000000D01*
X122500000Y-149000000D02*
X112500000Y-149000000D01*
X112500000Y-149000000D02*
X112500000Y-141000000D01*
X112500000Y-148500000D02*
X122500000Y-148500000D01*
X117121320Y-145000000D02*
G75*
G03X117121320Y-145000000I-2121320J0D01*
G01*
X112500000Y-142500000D02*
X122500000Y-142500000D01*
X112500000Y-141500000D02*
X113000000Y-141500000D01*
X113000000Y-141500000D02*
X113000000Y-142000000D01*
X113000000Y-142000000D02*
X112500000Y-142000000D01*
X122500000Y-141500000D02*
X123000000Y-141500000D01*
X123000000Y-141500000D02*
X123000000Y-142000000D01*
X123000000Y-142000000D02*
X122500000Y-142000000D01*
D14*
G36*
X115000000Y-147500000D02*
G01*
X114000000Y-149000000D01*
X116000000Y-149000000D01*
X115000000Y-147500000D01*
G37*
X115000000Y-147500000D02*
X114000000Y-149000000D01*
X116000000Y-149000000D01*
X115000000Y-147500000D01*
G36*
X120000000Y-147500000D02*
G01*
X119000000Y-149000000D01*
X121000000Y-149000000D01*
X120000000Y-147500000D01*
G37*
X120000000Y-147500000D02*
X119000000Y-149000000D01*
X121000000Y-149000000D01*
X120000000Y-147500000D01*
D13*
X115900000Y-143100000D02*
X113100000Y-145900000D01*
X114100000Y-146900000D02*
X116900000Y-144100000D01*
X122121320Y-145000000D02*
G75*
G03X122121320Y-145000000I-2121320J0D01*
G01*
X120900000Y-143100000D02*
X118100000Y-145900000D01*
X121900000Y-144100000D02*
X119100000Y-146900000D01*
D12*
X122430000Y-67350000D02*
X98300000Y-67350000D01*
X122956051Y-69890000D02*
G75*
G03X122956051Y-69890000I-1796051J0D01*
G01*
X102001051Y-69890000D02*
G75*
G03X102001051Y-69890000I-1796051J0D01*
G01*
X102001051Y-113070000D02*
G75*
G03X102001051Y-113070000I-1796051J0D01*
G01*
X122956051Y-113070000D02*
G75*
G03X122956051Y-113070000I-1796051J0D01*
G01*
X107190000Y-115610000D02*
X98935000Y-115610000D01*
X97665000Y-68620000D02*
X97665000Y-114340000D01*
X123700000Y-68620000D02*
X123700000Y-114340000D01*
X97665000Y-114340000D02*
G75*
G03X98935000Y-115610000I1270000J0D01*
G01*
X122430000Y-115610000D02*
G75*
G03X123700000Y-114340000I0J1270000D01*
G01*
X123700000Y-68620000D02*
G75*
G03X122430000Y-67350000I-1270000J0D01*
G01*
X98935000Y-67350000D02*
G75*
G03X97665000Y-68620000I0J-1270000D01*
G01*
X114800000Y-116610000D02*
X107200000Y-116610000D01*
X114800000Y-110880000D02*
X114800000Y-116610000D01*
X107200000Y-110880000D02*
X114800000Y-110880000D01*
X107200000Y-116610000D02*
X107200000Y-110880000D01*
X105500000Y-74480000D02*
X105500000Y-67350000D01*
X116500000Y-67350000D02*
X116500000Y-74480000D01*
X116500000Y-74480000D02*
X105500000Y-74480000D01*
X122430000Y-115610000D02*
X114810000Y-115610000D01*
X90916666Y-127952380D02*
X90583333Y-127476190D01*
X90345238Y-127952380D02*
X90345238Y-126952380D01*
X90726190Y-126952380D01*
X90821428Y-127000000D01*
X90869047Y-127047619D01*
X90916666Y-127142857D01*
X90916666Y-127285714D01*
X90869047Y-127380952D01*
X90821428Y-127428571D01*
X90726190Y-127476190D01*
X90345238Y-127476190D01*
X91345238Y-127428571D02*
X91678571Y-127428571D01*
X91821428Y-127952380D02*
X91345238Y-127952380D01*
X91345238Y-126952380D01*
X91821428Y-126952380D01*
X92583333Y-127428571D02*
X92250000Y-127428571D01*
X92250000Y-127952380D02*
X92250000Y-126952380D01*
X92726190Y-126952380D01*
X93250000Y-126952380D02*
X93250000Y-127190476D01*
X93011904Y-127095238D02*
X93250000Y-127190476D01*
X93488095Y-127095238D01*
X93107142Y-127380952D02*
X93250000Y-127190476D01*
X93392857Y-127380952D01*
X94011904Y-126952380D02*
X94011904Y-127190476D01*
X93773809Y-127095238D02*
X94011904Y-127190476D01*
X94250000Y-127095238D01*
X93869047Y-127380952D02*
X94011904Y-127190476D01*
X94154761Y-127380952D01*
X70107142Y-82666666D02*
X70154761Y-82714285D01*
X70202380Y-82857142D01*
X70202380Y-82952380D01*
X70154761Y-83095238D01*
X70059523Y-83190476D01*
X69964285Y-83238095D01*
X69773809Y-83285714D01*
X69630952Y-83285714D01*
X69440476Y-83238095D01*
X69345238Y-83190476D01*
X69250000Y-83095238D01*
X69202380Y-82952380D01*
X69202380Y-82857142D01*
X69250000Y-82714285D01*
X69297619Y-82666666D01*
X70202380Y-81714285D02*
X70202380Y-82285714D01*
X70202380Y-82000000D02*
X69202380Y-82000000D01*
X69345238Y-82095238D01*
X69440476Y-82190476D01*
X69488095Y-82285714D01*
X113190476Y-59702380D02*
X113190476Y-60416666D01*
X113142857Y-60559523D01*
X113047619Y-60654761D01*
X112904761Y-60702380D01*
X112809523Y-60702380D01*
X113619047Y-59797619D02*
X113666666Y-59750000D01*
X113761904Y-59702380D01*
X114000000Y-59702380D01*
X114095238Y-59750000D01*
X114142857Y-59797619D01*
X114190476Y-59892857D01*
X114190476Y-59988095D01*
X114142857Y-60130952D01*
X113571428Y-60702380D01*
X114190476Y-60702380D01*
X114761904Y-60130952D02*
X114666666Y-60083333D01*
X114619047Y-60035714D01*
X114571428Y-59940476D01*
X114571428Y-59892857D01*
X114619047Y-59797619D01*
X114666666Y-59750000D01*
X114761904Y-59702380D01*
X114952380Y-59702380D01*
X115047619Y-59750000D01*
X115095238Y-59797619D01*
X115142857Y-59892857D01*
X115142857Y-59940476D01*
X115095238Y-60035714D01*
X115047619Y-60083333D01*
X114952380Y-60130952D01*
X114761904Y-60130952D01*
X114666666Y-60178571D01*
X114619047Y-60226190D01*
X114571428Y-60321428D01*
X114571428Y-60511904D01*
X114619047Y-60607142D01*
X114666666Y-60654761D01*
X114761904Y-60702380D01*
X114952380Y-60702380D01*
X115047619Y-60654761D01*
X115095238Y-60607142D01*
X115142857Y-60511904D01*
X115142857Y-60321428D01*
X115095238Y-60226190D01*
X115047619Y-60178571D01*
X114952380Y-60130952D01*
X116690476Y-59702380D02*
X116690476Y-60416666D01*
X116642857Y-60559523D01*
X116547619Y-60654761D01*
X116404761Y-60702380D01*
X116309523Y-60702380D01*
X117119047Y-59797619D02*
X117166666Y-59750000D01*
X117261904Y-59702380D01*
X117500000Y-59702380D01*
X117595238Y-59750000D01*
X117642857Y-59797619D01*
X117690476Y-59892857D01*
X117690476Y-59988095D01*
X117642857Y-60130952D01*
X117071428Y-60702380D01*
X117690476Y-60702380D01*
X118547619Y-59702380D02*
X118357142Y-59702380D01*
X118261904Y-59750000D01*
X118214285Y-59797619D01*
X118119047Y-59940476D01*
X118071428Y-60130952D01*
X118071428Y-60511904D01*
X118119047Y-60607142D01*
X118166666Y-60654761D01*
X118261904Y-60702380D01*
X118452380Y-60702380D01*
X118547619Y-60654761D01*
X118595238Y-60607142D01*
X118642857Y-60511904D01*
X118642857Y-60273809D01*
X118595238Y-60178571D01*
X118547619Y-60130952D01*
X118452380Y-60083333D01*
X118261904Y-60083333D01*
X118166666Y-60130952D01*
X118119047Y-60178571D01*
X118071428Y-60273809D01*
X132440476Y-99952380D02*
X132440476Y-100666666D01*
X132392857Y-100809523D01*
X132297619Y-100904761D01*
X132154761Y-100952380D01*
X132059523Y-100952380D01*
X132869047Y-100047619D02*
X132916666Y-100000000D01*
X133011904Y-99952380D01*
X133250000Y-99952380D01*
X133345238Y-100000000D01*
X133392857Y-100047619D01*
X133440476Y-100142857D01*
X133440476Y-100238095D01*
X133392857Y-100380952D01*
X132821428Y-100952380D01*
X133440476Y-100952380D01*
X133773809Y-99952380D02*
X134440476Y-99952380D01*
X134011904Y-100952380D01*
X58757142Y-74852380D02*
X58423809Y-74376190D01*
X58185714Y-74852380D02*
X58185714Y-73852380D01*
X58566666Y-73852380D01*
X58661904Y-73900000D01*
X58709523Y-73947619D01*
X58757142Y-74042857D01*
X58757142Y-74185714D01*
X58709523Y-74280952D01*
X58661904Y-74328571D01*
X58566666Y-74376190D01*
X58185714Y-74376190D01*
X59709523Y-74852380D02*
X59138095Y-74852380D01*
X59423809Y-74852380D02*
X59423809Y-73852380D01*
X59328571Y-73995238D01*
X59233333Y-74090476D01*
X59138095Y-74138095D01*
X60185714Y-74852380D02*
X60376190Y-74852380D01*
X60471428Y-74804761D01*
X60519047Y-74757142D01*
X60614285Y-74614285D01*
X60661904Y-74423809D01*
X60661904Y-74042857D01*
X60614285Y-73947619D01*
X60566666Y-73900000D01*
X60471428Y-73852380D01*
X60280952Y-73852380D01*
X60185714Y-73900000D01*
X60138095Y-73947619D01*
X60090476Y-74042857D01*
X60090476Y-74280952D01*
X60138095Y-74376190D01*
X60185714Y-74423809D01*
X60280952Y-74471428D01*
X60471428Y-74471428D01*
X60566666Y-74423809D01*
X60614285Y-74376190D01*
X60661904Y-74280952D01*
X58737142Y-59082380D02*
X58403809Y-58606190D01*
X58165714Y-59082380D02*
X58165714Y-58082380D01*
X58546666Y-58082380D01*
X58641904Y-58130000D01*
X58689523Y-58177619D01*
X58737142Y-58272857D01*
X58737142Y-58415714D01*
X58689523Y-58510952D01*
X58641904Y-58558571D01*
X58546666Y-58606190D01*
X58165714Y-58606190D01*
X59689523Y-59082380D02*
X59118095Y-59082380D01*
X59403809Y-59082380D02*
X59403809Y-58082380D01*
X59308571Y-58225238D01*
X59213333Y-58320476D01*
X59118095Y-58368095D01*
X60260952Y-58510952D02*
X60165714Y-58463333D01*
X60118095Y-58415714D01*
X60070476Y-58320476D01*
X60070476Y-58272857D01*
X60118095Y-58177619D01*
X60165714Y-58130000D01*
X60260952Y-58082380D01*
X60451428Y-58082380D01*
X60546666Y-58130000D01*
X60594285Y-58177619D01*
X60641904Y-58272857D01*
X60641904Y-58320476D01*
X60594285Y-58415714D01*
X60546666Y-58463333D01*
X60451428Y-58510952D01*
X60260952Y-58510952D01*
X60165714Y-58558571D01*
X60118095Y-58606190D01*
X60070476Y-58701428D01*
X60070476Y-58891904D01*
X60118095Y-58987142D01*
X60165714Y-59034761D01*
X60260952Y-59082380D01*
X60451428Y-59082380D01*
X60546666Y-59034761D01*
X60594285Y-58987142D01*
X60641904Y-58891904D01*
X60641904Y-58701428D01*
X60594285Y-58606190D01*
X60546666Y-58558571D01*
X60451428Y-58510952D01*
X58637142Y-145782380D02*
X58303809Y-145306190D01*
X58065714Y-145782380D02*
X58065714Y-144782380D01*
X58446666Y-144782380D01*
X58541904Y-144830000D01*
X58589523Y-144877619D01*
X58637142Y-144972857D01*
X58637142Y-145115714D01*
X58589523Y-145210952D01*
X58541904Y-145258571D01*
X58446666Y-145306190D01*
X58065714Y-145306190D01*
X59589523Y-145782380D02*
X59018095Y-145782380D01*
X59303809Y-145782380D02*
X59303809Y-144782380D01*
X59208571Y-144925238D01*
X59113333Y-145020476D01*
X59018095Y-145068095D01*
X59922857Y-144782380D02*
X60589523Y-144782380D01*
X60160952Y-145782380D01*
X131477142Y-59082380D02*
X131143809Y-58606190D01*
X130905714Y-59082380D02*
X130905714Y-58082380D01*
X131286666Y-58082380D01*
X131381904Y-58130000D01*
X131429523Y-58177619D01*
X131477142Y-58272857D01*
X131477142Y-58415714D01*
X131429523Y-58510952D01*
X131381904Y-58558571D01*
X131286666Y-58606190D01*
X130905714Y-58606190D01*
X132429523Y-59082380D02*
X131858095Y-59082380D01*
X132143809Y-59082380D02*
X132143809Y-58082380D01*
X132048571Y-58225238D01*
X131953333Y-58320476D01*
X131858095Y-58368095D01*
X133286666Y-58415714D02*
X133286666Y-59082380D01*
X133048571Y-58034761D02*
X132810476Y-58749047D01*
X133429523Y-58749047D01*
X73761904Y-70452380D02*
X73761904Y-69452380D01*
X74000000Y-69452380D01*
X74142857Y-69500000D01*
X74238095Y-69595238D01*
X74285714Y-69690476D01*
X74333333Y-69880952D01*
X74333333Y-70023809D01*
X74285714Y-70214285D01*
X74238095Y-70309523D01*
X74142857Y-70404761D01*
X74000000Y-70452380D01*
X73761904Y-70452380D01*
X74904761Y-69880952D02*
X74809523Y-69833333D01*
X74761904Y-69785714D01*
X74714285Y-69690476D01*
X74714285Y-69642857D01*
X74761904Y-69547619D01*
X74809523Y-69500000D01*
X74904761Y-69452380D01*
X75095238Y-69452380D01*
X75190476Y-69500000D01*
X75238095Y-69547619D01*
X75285714Y-69642857D01*
X75285714Y-69690476D01*
X75238095Y-69785714D01*
X75190476Y-69833333D01*
X75095238Y-69880952D01*
X74904761Y-69880952D01*
X74809523Y-69928571D01*
X74761904Y-69976190D01*
X74714285Y-70071428D01*
X74714285Y-70261904D01*
X74761904Y-70357142D01*
X74809523Y-70404761D01*
X74904761Y-70452380D01*
X75095238Y-70452380D01*
X75190476Y-70404761D01*
X75238095Y-70357142D01*
X75285714Y-70261904D01*
X75285714Y-70071428D01*
X75238095Y-69976190D01*
X75190476Y-69928571D01*
X75095238Y-69880952D01*
X73761904Y-59702380D02*
X73761904Y-58702380D01*
X74000000Y-58702380D01*
X74142857Y-58750000D01*
X74238095Y-58845238D01*
X74285714Y-58940476D01*
X74333333Y-59130952D01*
X74333333Y-59273809D01*
X74285714Y-59464285D01*
X74238095Y-59559523D01*
X74142857Y-59654761D01*
X74000000Y-59702380D01*
X73761904Y-59702380D01*
X74666666Y-58702380D02*
X75333333Y-58702380D01*
X74904761Y-59702380D01*
X72561904Y-147952380D02*
X72561904Y-146952380D01*
X72800000Y-146952380D01*
X72942857Y-147000000D01*
X73038095Y-147095238D01*
X73085714Y-147190476D01*
X73133333Y-147380952D01*
X73133333Y-147523809D01*
X73085714Y-147714285D01*
X73038095Y-147809523D01*
X72942857Y-147904761D01*
X72800000Y-147952380D01*
X72561904Y-147952380D01*
X73990476Y-146952380D02*
X73800000Y-146952380D01*
X73704761Y-147000000D01*
X73657142Y-147047619D01*
X73561904Y-147190476D01*
X73514285Y-147380952D01*
X73514285Y-147761904D01*
X73561904Y-147857142D01*
X73609523Y-147904761D01*
X73704761Y-147952380D01*
X73895238Y-147952380D01*
X73990476Y-147904761D01*
X74038095Y-147857142D01*
X74085714Y-147761904D01*
X74085714Y-147523809D01*
X74038095Y-147428571D01*
X73990476Y-147380952D01*
X73895238Y-147333333D01*
X73704761Y-147333333D01*
X73609523Y-147380952D01*
X73561904Y-147428571D01*
X73514285Y-147523809D01*
X63990476Y-89322380D02*
X63990476Y-90036666D01*
X63942857Y-90179523D01*
X63847619Y-90274761D01*
X63704761Y-90322380D01*
X63609523Y-90322380D01*
X64419047Y-89417619D02*
X64466666Y-89370000D01*
X64561904Y-89322380D01*
X64800000Y-89322380D01*
X64895238Y-89370000D01*
X64942857Y-89417619D01*
X64990476Y-89512857D01*
X64990476Y-89608095D01*
X64942857Y-89750952D01*
X64371428Y-90322380D01*
X64990476Y-90322380D01*
X65895238Y-89322380D02*
X65419047Y-89322380D01*
X65371428Y-89798571D01*
X65419047Y-89750952D01*
X65514285Y-89703333D01*
X65752380Y-89703333D01*
X65847619Y-89750952D01*
X65895238Y-89798571D01*
X65942857Y-89893809D01*
X65942857Y-90131904D01*
X65895238Y-90227142D01*
X65847619Y-90274761D01*
X65752380Y-90322380D01*
X65514285Y-90322380D01*
X65419047Y-90274761D01*
X65371428Y-90227142D01*
X133187142Y-89582380D02*
X132853809Y-89106190D01*
X132615714Y-89582380D02*
X132615714Y-88582380D01*
X132996666Y-88582380D01*
X133091904Y-88630000D01*
X133139523Y-88677619D01*
X133187142Y-88772857D01*
X133187142Y-88915714D01*
X133139523Y-89010952D01*
X133091904Y-89058571D01*
X132996666Y-89106190D01*
X132615714Y-89106190D01*
X134139523Y-89582380D02*
X133568095Y-89582380D01*
X133853809Y-89582380D02*
X133853809Y-88582380D01*
X133758571Y-88725238D01*
X133663333Y-88820476D01*
X133568095Y-88868095D01*
X134472857Y-88582380D02*
X135091904Y-88582380D01*
X134758571Y-88963333D01*
X134901428Y-88963333D01*
X134996666Y-89010952D01*
X135044285Y-89058571D01*
X135091904Y-89153809D01*
X135091904Y-89391904D01*
X135044285Y-89487142D01*
X134996666Y-89534761D01*
X134901428Y-89582380D01*
X134615714Y-89582380D01*
X134520476Y-89534761D01*
X134472857Y-89487142D01*
X90690476Y-78152380D02*
X90690476Y-78866666D01*
X90642857Y-79009523D01*
X90547619Y-79104761D01*
X90404761Y-79152380D01*
X90309523Y-79152380D01*
X91119047Y-78247619D02*
X91166666Y-78200000D01*
X91261904Y-78152380D01*
X91500000Y-78152380D01*
X91595238Y-78200000D01*
X91642857Y-78247619D01*
X91690476Y-78342857D01*
X91690476Y-78438095D01*
X91642857Y-78580952D01*
X91071428Y-79152380D01*
X91690476Y-79152380D01*
X92547619Y-78485714D02*
X92547619Y-79152380D01*
X92309523Y-78104761D02*
X92071428Y-78819047D01*
X92690476Y-78819047D01*
X64452380Y-65609523D02*
X65166666Y-65609523D01*
X65309523Y-65657142D01*
X65404761Y-65752380D01*
X65452380Y-65895238D01*
X65452380Y-65990476D01*
X64547619Y-65180952D02*
X64500000Y-65133333D01*
X64452380Y-65038095D01*
X64452380Y-64800000D01*
X64500000Y-64704761D01*
X64547619Y-64657142D01*
X64642857Y-64609523D01*
X64738095Y-64609523D01*
X64880952Y-64657142D01*
X65452380Y-65228571D01*
X65452380Y-64609523D01*
X64452380Y-64276190D02*
X64452380Y-63657142D01*
X64833333Y-63990476D01*
X64833333Y-63847619D01*
X64880952Y-63752380D01*
X64928571Y-63704761D01*
X65023809Y-63657142D01*
X65261904Y-63657142D01*
X65357142Y-63704761D01*
X65404761Y-63752380D01*
X65452380Y-63847619D01*
X65452380Y-64133333D01*
X65404761Y-64228571D01*
X65357142Y-64276190D01*
X61440476Y-134452380D02*
X61440476Y-135166666D01*
X61392857Y-135309523D01*
X61297619Y-135404761D01*
X61154761Y-135452380D01*
X61059523Y-135452380D01*
X61869047Y-134547619D02*
X61916666Y-134500000D01*
X62011904Y-134452380D01*
X62250000Y-134452380D01*
X62345238Y-134500000D01*
X62392857Y-134547619D01*
X62440476Y-134642857D01*
X62440476Y-134738095D01*
X62392857Y-134880952D01*
X61821428Y-135452380D01*
X62440476Y-135452380D01*
X62821428Y-134547619D02*
X62869047Y-134500000D01*
X62964285Y-134452380D01*
X63202380Y-134452380D01*
X63297619Y-134500000D01*
X63345238Y-134547619D01*
X63392857Y-134642857D01*
X63392857Y-134738095D01*
X63345238Y-134880952D01*
X62773809Y-135452380D01*
X63392857Y-135452380D01*
X122090476Y-138652380D02*
X122090476Y-139366666D01*
X122042857Y-139509523D01*
X121947619Y-139604761D01*
X121804761Y-139652380D01*
X121709523Y-139652380D01*
X122519047Y-138747619D02*
X122566666Y-138700000D01*
X122661904Y-138652380D01*
X122900000Y-138652380D01*
X122995238Y-138700000D01*
X123042857Y-138747619D01*
X123090476Y-138842857D01*
X123090476Y-138938095D01*
X123042857Y-139080952D01*
X122471428Y-139652380D01*
X123090476Y-139652380D01*
X124042857Y-139652380D02*
X123471428Y-139652380D01*
X123757142Y-139652380D02*
X123757142Y-138652380D01*
X123661904Y-138795238D01*
X123566666Y-138890476D01*
X123471428Y-138938095D01*
X106290476Y-138352380D02*
X106290476Y-139066666D01*
X106242857Y-139209523D01*
X106147619Y-139304761D01*
X106004761Y-139352380D01*
X105909523Y-139352380D01*
X106719047Y-138447619D02*
X106766666Y-138400000D01*
X106861904Y-138352380D01*
X107100000Y-138352380D01*
X107195238Y-138400000D01*
X107242857Y-138447619D01*
X107290476Y-138542857D01*
X107290476Y-138638095D01*
X107242857Y-138780952D01*
X106671428Y-139352380D01*
X107290476Y-139352380D01*
X107909523Y-138352380D02*
X108004761Y-138352380D01*
X108100000Y-138400000D01*
X108147619Y-138447619D01*
X108195238Y-138542857D01*
X108242857Y-138733333D01*
X108242857Y-138971428D01*
X108195238Y-139161904D01*
X108147619Y-139257142D01*
X108100000Y-139304761D01*
X108004761Y-139352380D01*
X107909523Y-139352380D01*
X107814285Y-139304761D01*
X107766666Y-139257142D01*
X107719047Y-139161904D01*
X107671428Y-138971428D01*
X107671428Y-138733333D01*
X107719047Y-138542857D01*
X107766666Y-138447619D01*
X107814285Y-138400000D01*
X107909523Y-138352380D01*
X89090476Y-138652380D02*
X89090476Y-139366666D01*
X89042857Y-139509523D01*
X88947619Y-139604761D01*
X88804761Y-139652380D01*
X88709523Y-139652380D01*
X90090476Y-139652380D02*
X89519047Y-139652380D01*
X89804761Y-139652380D02*
X89804761Y-138652380D01*
X89709523Y-138795238D01*
X89614285Y-138890476D01*
X89519047Y-138938095D01*
X90566666Y-139652380D02*
X90757142Y-139652380D01*
X90852380Y-139604761D01*
X90900000Y-139557142D01*
X90995238Y-139414285D01*
X91042857Y-139223809D01*
X91042857Y-138842857D01*
X90995238Y-138747619D01*
X90947619Y-138700000D01*
X90852380Y-138652380D01*
X90661904Y-138652380D01*
X90566666Y-138700000D01*
X90519047Y-138747619D01*
X90471428Y-138842857D01*
X90471428Y-139080952D01*
X90519047Y-139176190D01*
X90566666Y-139223809D01*
X90661904Y-139271428D01*
X90852380Y-139271428D01*
X90947619Y-139223809D01*
X90995238Y-139176190D01*
X91042857Y-139080952D01*
X136590476Y-133852380D02*
X136590476Y-134566666D01*
X136542857Y-134709523D01*
X136447619Y-134804761D01*
X136304761Y-134852380D01*
X136209523Y-134852380D01*
X137590476Y-134852380D02*
X137019047Y-134852380D01*
X137304761Y-134852380D02*
X137304761Y-133852380D01*
X137209523Y-133995238D01*
X137114285Y-134090476D01*
X137019047Y-134138095D01*
X138161904Y-134280952D02*
X138066666Y-134233333D01*
X138019047Y-134185714D01*
X137971428Y-134090476D01*
X137971428Y-134042857D01*
X138019047Y-133947619D01*
X138066666Y-133900000D01*
X138161904Y-133852380D01*
X138352380Y-133852380D01*
X138447619Y-133900000D01*
X138495238Y-133947619D01*
X138542857Y-134042857D01*
X138542857Y-134090476D01*
X138495238Y-134185714D01*
X138447619Y-134233333D01*
X138352380Y-134280952D01*
X138161904Y-134280952D01*
X138066666Y-134328571D01*
X138019047Y-134376190D01*
X137971428Y-134471428D01*
X137971428Y-134661904D01*
X138019047Y-134757142D01*
X138066666Y-134804761D01*
X138161904Y-134852380D01*
X138352380Y-134852380D01*
X138447619Y-134804761D01*
X138495238Y-134757142D01*
X138542857Y-134661904D01*
X138542857Y-134471428D01*
X138495238Y-134376190D01*
X138447619Y-134328571D01*
X138352380Y-134280952D01*
X98666666Y-122032380D02*
X98666666Y-122746666D01*
X98619047Y-122889523D01*
X98523809Y-122984761D01*
X98380952Y-123032380D01*
X98285714Y-123032380D01*
X99095238Y-122127619D02*
X99142857Y-122080000D01*
X99238095Y-122032380D01*
X99476190Y-122032380D01*
X99571428Y-122080000D01*
X99619047Y-122127619D01*
X99666666Y-122222857D01*
X99666666Y-122318095D01*
X99619047Y-122460952D01*
X99047619Y-123032380D01*
X99666666Y-123032380D01*
X66366666Y-105252380D02*
X66366666Y-105966666D01*
X66319047Y-106109523D01*
X66223809Y-106204761D01*
X66080952Y-106252380D01*
X65985714Y-106252380D01*
X66747619Y-105252380D02*
X67366666Y-105252380D01*
X67033333Y-105633333D01*
X67176190Y-105633333D01*
X67271428Y-105680952D01*
X67319047Y-105728571D01*
X67366666Y-105823809D01*
X67366666Y-106061904D01*
X67319047Y-106157142D01*
X67271428Y-106204761D01*
X67176190Y-106252380D01*
X66890476Y-106252380D01*
X66795238Y-106204761D01*
X66747619Y-106157142D01*
X66466666Y-110352380D02*
X66466666Y-111066666D01*
X66419047Y-111209523D01*
X66323809Y-111304761D01*
X66180952Y-111352380D01*
X66085714Y-111352380D01*
X67371428Y-110685714D02*
X67371428Y-111352380D01*
X67133333Y-110304761D02*
X66895238Y-111019047D01*
X67514285Y-111019047D01*
X66566666Y-115152380D02*
X66566666Y-115866666D01*
X66519047Y-116009523D01*
X66423809Y-116104761D01*
X66280952Y-116152380D01*
X66185714Y-116152380D01*
X67519047Y-115152380D02*
X67042857Y-115152380D01*
X66995238Y-115628571D01*
X67042857Y-115580952D01*
X67138095Y-115533333D01*
X67376190Y-115533333D01*
X67471428Y-115580952D01*
X67519047Y-115628571D01*
X67566666Y-115723809D01*
X67566666Y-115961904D01*
X67519047Y-116057142D01*
X67471428Y-116104761D01*
X67376190Y-116152380D01*
X67138095Y-116152380D01*
X67042857Y-116104761D01*
X66995238Y-116057142D01*
X66566666Y-120152380D02*
X66566666Y-120866666D01*
X66519047Y-121009523D01*
X66423809Y-121104761D01*
X66280952Y-121152380D01*
X66185714Y-121152380D01*
X67471428Y-120152380D02*
X67280952Y-120152380D01*
X67185714Y-120200000D01*
X67138095Y-120247619D01*
X67042857Y-120390476D01*
X66995238Y-120580952D01*
X66995238Y-120961904D01*
X67042857Y-121057142D01*
X67090476Y-121104761D01*
X67185714Y-121152380D01*
X67376190Y-121152380D01*
X67471428Y-121104761D01*
X67519047Y-121057142D01*
X67566666Y-120961904D01*
X67566666Y-120723809D01*
X67519047Y-120628571D01*
X67471428Y-120580952D01*
X67376190Y-120533333D01*
X67185714Y-120533333D01*
X67090476Y-120580952D01*
X67042857Y-120628571D01*
X66995238Y-120723809D01*
X66666666Y-125152380D02*
X66666666Y-125866666D01*
X66619047Y-126009523D01*
X66523809Y-126104761D01*
X66380952Y-126152380D01*
X66285714Y-126152380D01*
X67047619Y-125152380D02*
X67714285Y-125152380D01*
X67285714Y-126152380D01*
X136690476Y-137552380D02*
X136690476Y-138266666D01*
X136642857Y-138409523D01*
X136547619Y-138504761D01*
X136404761Y-138552380D01*
X136309523Y-138552380D01*
X137690476Y-138552380D02*
X137119047Y-138552380D01*
X137404761Y-138552380D02*
X137404761Y-137552380D01*
X137309523Y-137695238D01*
X137214285Y-137790476D01*
X137119047Y-137838095D01*
X138309523Y-137552380D02*
X138404761Y-137552380D01*
X138500000Y-137600000D01*
X138547619Y-137647619D01*
X138595238Y-137742857D01*
X138642857Y-137933333D01*
X138642857Y-138171428D01*
X138595238Y-138361904D01*
X138547619Y-138457142D01*
X138500000Y-138504761D01*
X138404761Y-138552380D01*
X138309523Y-138552380D01*
X138214285Y-138504761D01*
X138166666Y-138457142D01*
X138119047Y-138361904D01*
X138071428Y-138171428D01*
X138071428Y-137933333D01*
X138119047Y-137742857D01*
X138166666Y-137647619D01*
X138214285Y-137600000D01*
X138309523Y-137552380D01*
X88890476Y-136252380D02*
X88890476Y-136966666D01*
X88842857Y-137109523D01*
X88747619Y-137204761D01*
X88604761Y-137252380D01*
X88509523Y-137252380D01*
X89890476Y-137252380D02*
X89319047Y-137252380D01*
X89604761Y-137252380D02*
X89604761Y-136252380D01*
X89509523Y-136395238D01*
X89414285Y-136490476D01*
X89319047Y-136538095D01*
X90271428Y-136347619D02*
X90319047Y-136300000D01*
X90414285Y-136252380D01*
X90652380Y-136252380D01*
X90747619Y-136300000D01*
X90795238Y-136347619D01*
X90842857Y-136442857D01*
X90842857Y-136538095D01*
X90795238Y-136680952D01*
X90223809Y-137252380D01*
X90842857Y-137252380D01*
X106290476Y-135052380D02*
X106290476Y-135766666D01*
X106242857Y-135909523D01*
X106147619Y-136004761D01*
X106004761Y-136052380D01*
X105909523Y-136052380D01*
X107290476Y-136052380D02*
X106719047Y-136052380D01*
X107004761Y-136052380D02*
X107004761Y-135052380D01*
X106909523Y-135195238D01*
X106814285Y-135290476D01*
X106719047Y-135338095D01*
X108147619Y-135385714D02*
X108147619Y-136052380D01*
X107909523Y-135004761D02*
X107671428Y-135719047D01*
X108290476Y-135719047D01*
X121990476Y-135652380D02*
X121990476Y-136366666D01*
X121942857Y-136509523D01*
X121847619Y-136604761D01*
X121704761Y-136652380D01*
X121609523Y-136652380D01*
X122990476Y-136652380D02*
X122419047Y-136652380D01*
X122704761Y-136652380D02*
X122704761Y-135652380D01*
X122609523Y-135795238D01*
X122514285Y-135890476D01*
X122419047Y-135938095D01*
X123847619Y-135652380D02*
X123657142Y-135652380D01*
X123561904Y-135700000D01*
X123514285Y-135747619D01*
X123419047Y-135890476D01*
X123371428Y-136080952D01*
X123371428Y-136461904D01*
X123419047Y-136557142D01*
X123466666Y-136604761D01*
X123561904Y-136652380D01*
X123752380Y-136652380D01*
X123847619Y-136604761D01*
X123895238Y-136557142D01*
X123942857Y-136461904D01*
X123942857Y-136223809D01*
X123895238Y-136128571D01*
X123847619Y-136080952D01*
X123752380Y-136033333D01*
X123561904Y-136033333D01*
X123466666Y-136080952D01*
X123419047Y-136128571D01*
X123371428Y-136223809D01*
X137761904Y-116202380D02*
X137761904Y-115202380D01*
X138000000Y-115202380D01*
X138142857Y-115250000D01*
X138238095Y-115345238D01*
X138285714Y-115440476D01*
X138333333Y-115630952D01*
X138333333Y-115773809D01*
X138285714Y-115964285D01*
X138238095Y-116059523D01*
X138142857Y-116154761D01*
X138000000Y-116202380D01*
X137761904Y-116202380D01*
X139238095Y-115202380D02*
X138761904Y-115202380D01*
X138714285Y-115678571D01*
X138761904Y-115630952D01*
X138857142Y-115583333D01*
X139095238Y-115583333D01*
X139190476Y-115630952D01*
X139238095Y-115678571D01*
X139285714Y-115773809D01*
X139285714Y-116011904D01*
X139238095Y-116107142D01*
X139190476Y-116154761D01*
X139095238Y-116202380D01*
X138857142Y-116202380D01*
X138761904Y-116154761D01*
X138714285Y-116107142D01*
X137011904Y-140452380D02*
X137011904Y-139452380D01*
X137250000Y-139452380D01*
X137392857Y-139500000D01*
X137488095Y-139595238D01*
X137535714Y-139690476D01*
X137583333Y-139880952D01*
X137583333Y-140023809D01*
X137535714Y-140214285D01*
X137488095Y-140309523D01*
X137392857Y-140404761D01*
X137250000Y-140452380D01*
X137011904Y-140452380D01*
X138535714Y-140452380D02*
X137964285Y-140452380D01*
X138250000Y-140452380D02*
X138250000Y-139452380D01*
X138154761Y-139595238D01*
X138059523Y-139690476D01*
X137964285Y-139738095D01*
X137761904Y-107452380D02*
X137761904Y-106452380D01*
X138000000Y-106452380D01*
X138142857Y-106500000D01*
X138238095Y-106595238D01*
X138285714Y-106690476D01*
X138333333Y-106880952D01*
X138333333Y-107023809D01*
X138285714Y-107214285D01*
X138238095Y-107309523D01*
X138142857Y-107404761D01*
X138000000Y-107452380D01*
X137761904Y-107452380D01*
X138714285Y-106547619D02*
X138761904Y-106500000D01*
X138857142Y-106452380D01*
X139095238Y-106452380D01*
X139190476Y-106500000D01*
X139238095Y-106547619D01*
X139285714Y-106642857D01*
X139285714Y-106738095D01*
X139238095Y-106880952D01*
X138666666Y-107452380D01*
X139285714Y-107452380D01*
X141191904Y-64412380D02*
X141191904Y-63412380D01*
X141430000Y-63412380D01*
X141572857Y-63460000D01*
X141668095Y-63555238D01*
X141715714Y-63650476D01*
X141763333Y-63840952D01*
X141763333Y-63983809D01*
X141715714Y-64174285D01*
X141668095Y-64269523D01*
X141572857Y-64364761D01*
X141430000Y-64412380D01*
X141191904Y-64412380D01*
X142096666Y-63412380D02*
X142715714Y-63412380D01*
X142382380Y-63793333D01*
X142525238Y-63793333D01*
X142620476Y-63840952D01*
X142668095Y-63888571D01*
X142715714Y-63983809D01*
X142715714Y-64221904D01*
X142668095Y-64317142D01*
X142620476Y-64364761D01*
X142525238Y-64412380D01*
X142239523Y-64412380D01*
X142144285Y-64364761D01*
X142096666Y-64317142D01*
X141191904Y-70412380D02*
X141191904Y-69412380D01*
X141430000Y-69412380D01*
X141572857Y-69460000D01*
X141668095Y-69555238D01*
X141715714Y-69650476D01*
X141763333Y-69840952D01*
X141763333Y-69983809D01*
X141715714Y-70174285D01*
X141668095Y-70269523D01*
X141572857Y-70364761D01*
X141430000Y-70412380D01*
X141191904Y-70412380D01*
X142620476Y-69745714D02*
X142620476Y-70412380D01*
X142382380Y-69364761D02*
X142144285Y-70079047D01*
X142763333Y-70079047D01*
X73533333Y-82282380D02*
X73200000Y-81806190D01*
X72961904Y-82282380D02*
X72961904Y-81282380D01*
X73342857Y-81282380D01*
X73438095Y-81330000D01*
X73485714Y-81377619D01*
X73533333Y-81472857D01*
X73533333Y-81615714D01*
X73485714Y-81710952D01*
X73438095Y-81758571D01*
X73342857Y-81806190D01*
X72961904Y-81806190D01*
X74104761Y-81710952D02*
X74009523Y-81663333D01*
X73961904Y-81615714D01*
X73914285Y-81520476D01*
X73914285Y-81472857D01*
X73961904Y-81377619D01*
X74009523Y-81330000D01*
X74104761Y-81282380D01*
X74295238Y-81282380D01*
X74390476Y-81330000D01*
X74438095Y-81377619D01*
X74485714Y-81472857D01*
X74485714Y-81520476D01*
X74438095Y-81615714D01*
X74390476Y-81663333D01*
X74295238Y-81710952D01*
X74104761Y-81710952D01*
X74009523Y-81758571D01*
X73961904Y-81806190D01*
X73914285Y-81901428D01*
X73914285Y-82091904D01*
X73961904Y-82187142D01*
X74009523Y-82234761D01*
X74104761Y-82282380D01*
X74295238Y-82282380D01*
X74390476Y-82234761D01*
X74438095Y-82187142D01*
X74485714Y-82091904D01*
X74485714Y-81901428D01*
X74438095Y-81806190D01*
X74390476Y-81758571D01*
X74295238Y-81710952D01*
X125957142Y-118752380D02*
X125623809Y-118276190D01*
X125385714Y-118752380D02*
X125385714Y-117752380D01*
X125766666Y-117752380D01*
X125861904Y-117800000D01*
X125909523Y-117847619D01*
X125957142Y-117942857D01*
X125957142Y-118085714D01*
X125909523Y-118180952D01*
X125861904Y-118228571D01*
X125766666Y-118276190D01*
X125385714Y-118276190D01*
X126909523Y-118752380D02*
X126338095Y-118752380D01*
X126623809Y-118752380D02*
X126623809Y-117752380D01*
X126528571Y-117895238D01*
X126433333Y-117990476D01*
X126338095Y-118038095D01*
X127766666Y-117752380D02*
X127576190Y-117752380D01*
X127480952Y-117800000D01*
X127433333Y-117847619D01*
X127338095Y-117990476D01*
X127290476Y-118180952D01*
X127290476Y-118561904D01*
X127338095Y-118657142D01*
X127385714Y-118704761D01*
X127480952Y-118752380D01*
X127671428Y-118752380D01*
X127766666Y-118704761D01*
X127814285Y-118657142D01*
X127861904Y-118561904D01*
X127861904Y-118323809D01*
X127814285Y-118228571D01*
X127766666Y-118180952D01*
X127671428Y-118133333D01*
X127480952Y-118133333D01*
X127385714Y-118180952D01*
X127338095Y-118228571D01*
X127290476Y-118323809D01*
X90633333Y-106252380D02*
X90300000Y-105776190D01*
X90061904Y-106252380D02*
X90061904Y-105252380D01*
X90442857Y-105252380D01*
X90538095Y-105300000D01*
X90585714Y-105347619D01*
X90633333Y-105442857D01*
X90633333Y-105585714D01*
X90585714Y-105680952D01*
X90538095Y-105728571D01*
X90442857Y-105776190D01*
X90061904Y-105776190D01*
X91585714Y-106252380D02*
X91014285Y-106252380D01*
X91300000Y-106252380D02*
X91300000Y-105252380D01*
X91204761Y-105395238D01*
X91109523Y-105490476D01*
X91014285Y-105538095D01*
X90433333Y-111252380D02*
X90100000Y-110776190D01*
X89861904Y-111252380D02*
X89861904Y-110252380D01*
X90242857Y-110252380D01*
X90338095Y-110300000D01*
X90385714Y-110347619D01*
X90433333Y-110442857D01*
X90433333Y-110585714D01*
X90385714Y-110680952D01*
X90338095Y-110728571D01*
X90242857Y-110776190D01*
X89861904Y-110776190D01*
X90814285Y-110347619D02*
X90861904Y-110300000D01*
X90957142Y-110252380D01*
X91195238Y-110252380D01*
X91290476Y-110300000D01*
X91338095Y-110347619D01*
X91385714Y-110442857D01*
X91385714Y-110538095D01*
X91338095Y-110680952D01*
X90766666Y-111252380D01*
X91385714Y-111252380D01*
X90433333Y-116252380D02*
X90100000Y-115776190D01*
X89861904Y-116252380D02*
X89861904Y-115252380D01*
X90242857Y-115252380D01*
X90338095Y-115300000D01*
X90385714Y-115347619D01*
X90433333Y-115442857D01*
X90433333Y-115585714D01*
X90385714Y-115680952D01*
X90338095Y-115728571D01*
X90242857Y-115776190D01*
X89861904Y-115776190D01*
X90766666Y-115252380D02*
X91385714Y-115252380D01*
X91052380Y-115633333D01*
X91195238Y-115633333D01*
X91290476Y-115680952D01*
X91338095Y-115728571D01*
X91385714Y-115823809D01*
X91385714Y-116061904D01*
X91338095Y-116157142D01*
X91290476Y-116204761D01*
X91195238Y-116252380D01*
X90909523Y-116252380D01*
X90814285Y-116204761D01*
X90766666Y-116157142D01*
X90633333Y-121252380D02*
X90300000Y-120776190D01*
X90061904Y-121252380D02*
X90061904Y-120252380D01*
X90442857Y-120252380D01*
X90538095Y-120300000D01*
X90585714Y-120347619D01*
X90633333Y-120442857D01*
X90633333Y-120585714D01*
X90585714Y-120680952D01*
X90538095Y-120728571D01*
X90442857Y-120776190D01*
X90061904Y-120776190D01*
X91490476Y-120585714D02*
X91490476Y-121252380D01*
X91252380Y-120204761D02*
X91014285Y-120919047D01*
X91633333Y-120919047D01*
X90433333Y-125252380D02*
X90100000Y-124776190D01*
X89861904Y-125252380D02*
X89861904Y-124252380D01*
X90242857Y-124252380D01*
X90338095Y-124300000D01*
X90385714Y-124347619D01*
X90433333Y-124442857D01*
X90433333Y-124585714D01*
X90385714Y-124680952D01*
X90338095Y-124728571D01*
X90242857Y-124776190D01*
X89861904Y-124776190D01*
X91338095Y-124252380D02*
X90861904Y-124252380D01*
X90814285Y-124728571D01*
X90861904Y-124680952D01*
X90957142Y-124633333D01*
X91195238Y-124633333D01*
X91290476Y-124680952D01*
X91338095Y-124728571D01*
X91385714Y-124823809D01*
X91385714Y-125061904D01*
X91338095Y-125157142D01*
X91290476Y-125204761D01*
X91195238Y-125252380D01*
X90957142Y-125252380D01*
X90861904Y-125204761D01*
X90814285Y-125157142D01*
X90533333Y-130252380D02*
X90200000Y-129776190D01*
X89961904Y-130252380D02*
X89961904Y-129252380D01*
X90342857Y-129252380D01*
X90438095Y-129300000D01*
X90485714Y-129347619D01*
X90533333Y-129442857D01*
X90533333Y-129585714D01*
X90485714Y-129680952D01*
X90438095Y-129728571D01*
X90342857Y-129776190D01*
X89961904Y-129776190D01*
X91390476Y-129252380D02*
X91200000Y-129252380D01*
X91104761Y-129300000D01*
X91057142Y-129347619D01*
X90961904Y-129490476D01*
X90914285Y-129680952D01*
X90914285Y-130061904D01*
X90961904Y-130157142D01*
X91009523Y-130204761D01*
X91104761Y-130252380D01*
X91295238Y-130252380D01*
X91390476Y-130204761D01*
X91438095Y-130157142D01*
X91485714Y-130061904D01*
X91485714Y-129823809D01*
X91438095Y-129728571D01*
X91390476Y-129680952D01*
X91295238Y-129633333D01*
X91104761Y-129633333D01*
X91009523Y-129680952D01*
X90961904Y-129728571D01*
X90914285Y-129823809D01*
X79833333Y-82452380D02*
X79500000Y-81976190D01*
X79261904Y-82452380D02*
X79261904Y-81452380D01*
X79642857Y-81452380D01*
X79738095Y-81500000D01*
X79785714Y-81547619D01*
X79833333Y-81642857D01*
X79833333Y-81785714D01*
X79785714Y-81880952D01*
X79738095Y-81928571D01*
X79642857Y-81976190D01*
X79261904Y-81976190D01*
X80166666Y-81452380D02*
X80833333Y-81452380D01*
X80404761Y-82452380D01*
X127183333Y-128652380D02*
X126850000Y-128176190D01*
X126611904Y-128652380D02*
X126611904Y-127652380D01*
X126992857Y-127652380D01*
X127088095Y-127700000D01*
X127135714Y-127747619D01*
X127183333Y-127842857D01*
X127183333Y-127985714D01*
X127135714Y-128080952D01*
X127088095Y-128128571D01*
X126992857Y-128176190D01*
X126611904Y-128176190D01*
X127659523Y-128652380D02*
X127850000Y-128652380D01*
X127945238Y-128604761D01*
X127992857Y-128557142D01*
X128088095Y-128414285D01*
X128135714Y-128223809D01*
X128135714Y-127842857D01*
X128088095Y-127747619D01*
X128040476Y-127700000D01*
X127945238Y-127652380D01*
X127754761Y-127652380D01*
X127659523Y-127700000D01*
X127611904Y-127747619D01*
X127564285Y-127842857D01*
X127564285Y-128080952D01*
X127611904Y-128176190D01*
X127659523Y-128223809D01*
X127754761Y-128271428D01*
X127945238Y-128271428D01*
X128040476Y-128223809D01*
X128088095Y-128176190D01*
X128135714Y-128080952D01*
X125917142Y-122802380D02*
X125583809Y-122326190D01*
X125345714Y-122802380D02*
X125345714Y-121802380D01*
X125726666Y-121802380D01*
X125821904Y-121850000D01*
X125869523Y-121897619D01*
X125917142Y-121992857D01*
X125917142Y-122135714D01*
X125869523Y-122230952D01*
X125821904Y-122278571D01*
X125726666Y-122326190D01*
X125345714Y-122326190D01*
X126869523Y-122802380D02*
X126298095Y-122802380D01*
X126583809Y-122802380D02*
X126583809Y-121802380D01*
X126488571Y-121945238D01*
X126393333Y-122040476D01*
X126298095Y-122088095D01*
X127488571Y-121802380D02*
X127583809Y-121802380D01*
X127679047Y-121850000D01*
X127726666Y-121897619D01*
X127774285Y-121992857D01*
X127821904Y-122183333D01*
X127821904Y-122421428D01*
X127774285Y-122611904D01*
X127726666Y-122707142D01*
X127679047Y-122754761D01*
X127583809Y-122802380D01*
X127488571Y-122802380D01*
X127393333Y-122754761D01*
X127345714Y-122707142D01*
X127298095Y-122611904D01*
X127250476Y-122421428D01*
X127250476Y-122183333D01*
X127298095Y-121992857D01*
X127345714Y-121897619D01*
X127393333Y-121850000D01*
X127488571Y-121802380D01*
X132877142Y-99022380D02*
X132543809Y-98546190D01*
X132305714Y-99022380D02*
X132305714Y-98022380D01*
X132686666Y-98022380D01*
X132781904Y-98070000D01*
X132829523Y-98117619D01*
X132877142Y-98212857D01*
X132877142Y-98355714D01*
X132829523Y-98450952D01*
X132781904Y-98498571D01*
X132686666Y-98546190D01*
X132305714Y-98546190D01*
X133829523Y-99022380D02*
X133258095Y-99022380D01*
X133543809Y-99022380D02*
X133543809Y-98022380D01*
X133448571Y-98165238D01*
X133353333Y-98260476D01*
X133258095Y-98308095D01*
X134781904Y-99022380D02*
X134210476Y-99022380D01*
X134496190Y-99022380D02*
X134496190Y-98022380D01*
X134400952Y-98165238D01*
X134305714Y-98260476D01*
X134210476Y-98308095D01*
X126017142Y-105002380D02*
X125683809Y-104526190D01*
X125445714Y-105002380D02*
X125445714Y-104002380D01*
X125826666Y-104002380D01*
X125921904Y-104050000D01*
X125969523Y-104097619D01*
X126017142Y-104192857D01*
X126017142Y-104335714D01*
X125969523Y-104430952D01*
X125921904Y-104478571D01*
X125826666Y-104526190D01*
X125445714Y-104526190D01*
X126969523Y-105002380D02*
X126398095Y-105002380D01*
X126683809Y-105002380D02*
X126683809Y-104002380D01*
X126588571Y-104145238D01*
X126493333Y-104240476D01*
X126398095Y-104288095D01*
X127350476Y-104097619D02*
X127398095Y-104050000D01*
X127493333Y-104002380D01*
X127731428Y-104002380D01*
X127826666Y-104050000D01*
X127874285Y-104097619D01*
X127921904Y-104192857D01*
X127921904Y-104288095D01*
X127874285Y-104430952D01*
X127302857Y-105002380D01*
X127921904Y-105002380D01*
X131637142Y-65082380D02*
X131303809Y-64606190D01*
X131065714Y-65082380D02*
X131065714Y-64082380D01*
X131446666Y-64082380D01*
X131541904Y-64130000D01*
X131589523Y-64177619D01*
X131637142Y-64272857D01*
X131637142Y-64415714D01*
X131589523Y-64510952D01*
X131541904Y-64558571D01*
X131446666Y-64606190D01*
X131065714Y-64606190D01*
X132589523Y-65082380D02*
X132018095Y-65082380D01*
X132303809Y-65082380D02*
X132303809Y-64082380D01*
X132208571Y-64225238D01*
X132113333Y-64320476D01*
X132018095Y-64368095D01*
X133494285Y-64082380D02*
X133018095Y-64082380D01*
X132970476Y-64558571D01*
X133018095Y-64510952D01*
X133113333Y-64463333D01*
X133351428Y-64463333D01*
X133446666Y-64510952D01*
X133494285Y-64558571D01*
X133541904Y-64653809D01*
X133541904Y-64891904D01*
X133494285Y-64987142D01*
X133446666Y-65034761D01*
X133351428Y-65082380D01*
X133113333Y-65082380D01*
X133018095Y-65034761D01*
X132970476Y-64987142D01*
X70804761Y-98447619D02*
X70709523Y-98400000D01*
X70614285Y-98304761D01*
X70471428Y-98161904D01*
X70376190Y-98114285D01*
X70280952Y-98114285D01*
X70328571Y-98352380D02*
X70233333Y-98304761D01*
X70138095Y-98209523D01*
X70090476Y-98019047D01*
X70090476Y-97685714D01*
X70138095Y-97495238D01*
X70233333Y-97400000D01*
X70328571Y-97352380D01*
X70519047Y-97352380D01*
X70614285Y-97400000D01*
X70709523Y-97495238D01*
X70757142Y-97685714D01*
X70757142Y-98019047D01*
X70709523Y-98209523D01*
X70614285Y-98304761D01*
X70519047Y-98352380D01*
X70328571Y-98352380D01*
X71138095Y-97447619D02*
X71185714Y-97400000D01*
X71280952Y-97352380D01*
X71519047Y-97352380D01*
X71614285Y-97400000D01*
X71661904Y-97447619D01*
X71709523Y-97542857D01*
X71709523Y-97638095D01*
X71661904Y-97780952D01*
X71090476Y-98352380D01*
X71709523Y-98352380D01*
X76904761Y-98447619D02*
X76809523Y-98400000D01*
X76714285Y-98304761D01*
X76571428Y-98161904D01*
X76476190Y-98114285D01*
X76380952Y-98114285D01*
X76428571Y-98352380D02*
X76333333Y-98304761D01*
X76238095Y-98209523D01*
X76190476Y-98019047D01*
X76190476Y-97685714D01*
X76238095Y-97495238D01*
X76333333Y-97400000D01*
X76428571Y-97352380D01*
X76619047Y-97352380D01*
X76714285Y-97400000D01*
X76809523Y-97495238D01*
X76857142Y-97685714D01*
X76857142Y-98019047D01*
X76809523Y-98209523D01*
X76714285Y-98304761D01*
X76619047Y-98352380D01*
X76428571Y-98352380D01*
X77809523Y-98352380D02*
X77238095Y-98352380D01*
X77523809Y-98352380D02*
X77523809Y-97352380D01*
X77428571Y-97495238D01*
X77333333Y-97590476D01*
X77238095Y-97638095D01*
X138154761Y-133297619D02*
X138059523Y-133250000D01*
X137964285Y-133154761D01*
X137821428Y-133011904D01*
X137726190Y-132964285D01*
X137630952Y-132964285D01*
X137678571Y-133202380D02*
X137583333Y-133154761D01*
X137488095Y-133059523D01*
X137440476Y-132869047D01*
X137440476Y-132535714D01*
X137488095Y-132345238D01*
X137583333Y-132250000D01*
X137678571Y-132202380D01*
X137869047Y-132202380D01*
X137964285Y-132250000D01*
X138059523Y-132345238D01*
X138107142Y-132535714D01*
X138107142Y-132869047D01*
X138059523Y-133059523D01*
X137964285Y-133154761D01*
X137869047Y-133202380D01*
X137678571Y-133202380D01*
X138440476Y-132202380D02*
X139059523Y-132202380D01*
X138726190Y-132583333D01*
X138869047Y-132583333D01*
X138964285Y-132630952D01*
X139011904Y-132678571D01*
X139059523Y-132773809D01*
X139059523Y-133011904D01*
X139011904Y-133107142D01*
X138964285Y-133154761D01*
X138869047Y-133202380D01*
X138583333Y-133202380D01*
X138488095Y-133154761D01*
X138440476Y-133107142D01*
X137109761Y-100417619D02*
X137014523Y-100370000D01*
X136919285Y-100274761D01*
X136776428Y-100131904D01*
X136681190Y-100084285D01*
X136585952Y-100084285D01*
X136633571Y-100322380D02*
X136538333Y-100274761D01*
X136443095Y-100179523D01*
X136395476Y-99989047D01*
X136395476Y-99655714D01*
X136443095Y-99465238D01*
X136538333Y-99370000D01*
X136633571Y-99322380D01*
X136824047Y-99322380D01*
X136919285Y-99370000D01*
X137014523Y-99465238D01*
X137062142Y-99655714D01*
X137062142Y-99989047D01*
X137014523Y-100179523D01*
X136919285Y-100274761D01*
X136824047Y-100322380D01*
X136633571Y-100322380D01*
X137919285Y-99655714D02*
X137919285Y-100322380D01*
X137681190Y-99274761D02*
X137443095Y-99989047D01*
X138062142Y-99989047D01*
X141919761Y-84087619D02*
X141824523Y-84040000D01*
X141729285Y-83944761D01*
X141586428Y-83801904D01*
X141491190Y-83754285D01*
X141395952Y-83754285D01*
X141443571Y-83992380D02*
X141348333Y-83944761D01*
X141253095Y-83849523D01*
X141205476Y-83659047D01*
X141205476Y-83325714D01*
X141253095Y-83135238D01*
X141348333Y-83040000D01*
X141443571Y-82992380D01*
X141634047Y-82992380D01*
X141729285Y-83040000D01*
X141824523Y-83135238D01*
X141872142Y-83325714D01*
X141872142Y-83659047D01*
X141824523Y-83849523D01*
X141729285Y-83944761D01*
X141634047Y-83992380D01*
X141443571Y-83992380D01*
X142776904Y-82992380D02*
X142300714Y-82992380D01*
X142253095Y-83468571D01*
X142300714Y-83420952D01*
X142395952Y-83373333D01*
X142634047Y-83373333D01*
X142729285Y-83420952D01*
X142776904Y-83468571D01*
X142824523Y-83563809D01*
X142824523Y-83801904D01*
X142776904Y-83897142D01*
X142729285Y-83944761D01*
X142634047Y-83992380D01*
X142395952Y-83992380D01*
X142300714Y-83944761D01*
X142253095Y-83897142D01*
X86366666Y-82852380D02*
X86366666Y-83566666D01*
X86319047Y-83709523D01*
X86223809Y-83804761D01*
X86080952Y-83852380D01*
X85985714Y-83852380D01*
X86890476Y-83852380D02*
X87080952Y-83852380D01*
X87176190Y-83804761D01*
X87223809Y-83757142D01*
X87319047Y-83614285D01*
X87366666Y-83423809D01*
X87366666Y-83042857D01*
X87319047Y-82947619D01*
X87271428Y-82900000D01*
X87176190Y-82852380D01*
X86985714Y-82852380D01*
X86890476Y-82900000D01*
X86842857Y-82947619D01*
X86795238Y-83042857D01*
X86795238Y-83280952D01*
X86842857Y-83376190D01*
X86890476Y-83423809D01*
X86985714Y-83471428D01*
X87176190Y-83471428D01*
X87271428Y-83423809D01*
X87319047Y-83376190D01*
X87366666Y-83280952D01*
X127416666Y-71452380D02*
X127416666Y-72166666D01*
X127369047Y-72309523D01*
X127273809Y-72404761D01*
X127130952Y-72452380D01*
X127035714Y-72452380D01*
X128035714Y-71880952D02*
X127940476Y-71833333D01*
X127892857Y-71785714D01*
X127845238Y-71690476D01*
X127845238Y-71642857D01*
X127892857Y-71547619D01*
X127940476Y-71500000D01*
X128035714Y-71452380D01*
X128226190Y-71452380D01*
X128321428Y-71500000D01*
X128369047Y-71547619D01*
X128416666Y-71642857D01*
X128416666Y-71690476D01*
X128369047Y-71785714D01*
X128321428Y-71833333D01*
X128226190Y-71880952D01*
X128035714Y-71880952D01*
X127940476Y-71928571D01*
X127892857Y-71976190D01*
X127845238Y-72071428D01*
X127845238Y-72261904D01*
X127892857Y-72357142D01*
X127940476Y-72404761D01*
X128035714Y-72452380D01*
X128226190Y-72452380D01*
X128321428Y-72404761D01*
X128369047Y-72357142D01*
X128416666Y-72261904D01*
X128416666Y-72071428D01*
X128369047Y-71976190D01*
X128321428Y-71928571D01*
X128226190Y-71880952D01*
X43352380Y-104933333D02*
X44066666Y-104933333D01*
X44209523Y-104980952D01*
X44304761Y-105076190D01*
X44352380Y-105219047D01*
X44352380Y-105314285D01*
X44352380Y-103933333D02*
X44352380Y-104504761D01*
X44352380Y-104219047D02*
X43352380Y-104219047D01*
X43495238Y-104314285D01*
X43590476Y-104409523D01*
X43638095Y-104504761D01*
X138490476Y-144452380D02*
X138490476Y-145166666D01*
X138442857Y-145309523D01*
X138347619Y-145404761D01*
X138204761Y-145452380D01*
X138109523Y-145452380D01*
X139490476Y-145452380D02*
X138919047Y-145452380D01*
X139204761Y-145452380D02*
X139204761Y-144452380D01*
X139109523Y-144595238D01*
X139014285Y-144690476D01*
X138919047Y-144738095D01*
X140442857Y-145452380D02*
X139871428Y-145452380D01*
X140157142Y-145452380D02*
X140157142Y-144452380D01*
X140061904Y-144595238D01*
X139966666Y-144690476D01*
X139871428Y-144738095D01*
X91390476Y-144052380D02*
X91390476Y-144766666D01*
X91342857Y-144909523D01*
X91247619Y-145004761D01*
X91104761Y-145052380D01*
X91009523Y-145052380D01*
X92390476Y-145052380D02*
X91819047Y-145052380D01*
X92104761Y-145052380D02*
X92104761Y-144052380D01*
X92009523Y-144195238D01*
X91914285Y-144290476D01*
X91819047Y-144338095D01*
X92723809Y-144052380D02*
X93342857Y-144052380D01*
X93009523Y-144433333D01*
X93152380Y-144433333D01*
X93247619Y-144480952D01*
X93295238Y-144528571D01*
X93342857Y-144623809D01*
X93342857Y-144861904D01*
X93295238Y-144957142D01*
X93247619Y-145004761D01*
X93152380Y-145052380D01*
X92866666Y-145052380D01*
X92771428Y-145004761D01*
X92723809Y-144957142D01*
X108490476Y-144452380D02*
X108490476Y-145166666D01*
X108442857Y-145309523D01*
X108347619Y-145404761D01*
X108204761Y-145452380D01*
X108109523Y-145452380D01*
X109490476Y-145452380D02*
X108919047Y-145452380D01*
X109204761Y-145452380D02*
X109204761Y-144452380D01*
X109109523Y-144595238D01*
X109014285Y-144690476D01*
X108919047Y-144738095D01*
X110395238Y-144452380D02*
X109919047Y-144452380D01*
X109871428Y-144928571D01*
X109919047Y-144880952D01*
X110014285Y-144833333D01*
X110252380Y-144833333D01*
X110347619Y-144880952D01*
X110395238Y-144928571D01*
X110442857Y-145023809D01*
X110442857Y-145261904D01*
X110395238Y-145357142D01*
X110347619Y-145404761D01*
X110252380Y-145452380D01*
X110014285Y-145452380D01*
X109919047Y-145404761D01*
X109871428Y-145357142D01*
X123390476Y-144452380D02*
X123390476Y-145166666D01*
X123342857Y-145309523D01*
X123247619Y-145404761D01*
X123104761Y-145452380D01*
X123009523Y-145452380D01*
X124390476Y-145452380D02*
X123819047Y-145452380D01*
X124104761Y-145452380D02*
X124104761Y-144452380D01*
X124009523Y-144595238D01*
X123914285Y-144690476D01*
X123819047Y-144738095D01*
X124723809Y-144452380D02*
X125390476Y-144452380D01*
X124961904Y-145452380D01*
X111087380Y-92241904D02*
X111896904Y-92241904D01*
X111992142Y-92194285D01*
X112039761Y-92146666D01*
X112087380Y-92051428D01*
X112087380Y-91860952D01*
X112039761Y-91765714D01*
X111992142Y-91718095D01*
X111896904Y-91670476D01*
X111087380Y-91670476D01*
X111182619Y-91241904D02*
X111135000Y-91194285D01*
X111087380Y-91099047D01*
X111087380Y-90860952D01*
X111135000Y-90765714D01*
X111182619Y-90718095D01*
X111277857Y-90670476D01*
X111373095Y-90670476D01*
X111515952Y-90718095D01*
X112087380Y-91289523D01*
X112087380Y-90670476D01*
X116166666Y-73200000D02*
X116071428Y-73152380D01*
X115928571Y-73152380D01*
X115785714Y-73200000D01*
X115690476Y-73295238D01*
X115642857Y-73390476D01*
X115595238Y-73580952D01*
X115595238Y-73723809D01*
X115642857Y-73914285D01*
X115690476Y-74009523D01*
X115785714Y-74104761D01*
X115928571Y-74152380D01*
X116023809Y-74152380D01*
X116166666Y-74104761D01*
X116214285Y-74057142D01*
X116214285Y-73723809D01*
X116023809Y-73723809D01*
X116642857Y-74152380D02*
X116642857Y-73152380D01*
X117023809Y-73152380D01*
X117119047Y-73200000D01*
X117166666Y-73247619D01*
X117214285Y-73342857D01*
X117214285Y-73485714D01*
X117166666Y-73580952D01*
X117119047Y-73628571D01*
X117023809Y-73676190D01*
X116642857Y-73676190D01*
X117642857Y-74152380D02*
X117642857Y-73152380D01*
X118309523Y-73152380D02*
X118500000Y-73152380D01*
X118595238Y-73200000D01*
X118690476Y-73295238D01*
X118738095Y-73485714D01*
X118738095Y-73819047D01*
X118690476Y-74009523D01*
X118595238Y-74104761D01*
X118500000Y-74152380D01*
X118309523Y-74152380D01*
X118214285Y-74104761D01*
X118119047Y-74009523D01*
X118071428Y-73819047D01*
X118071428Y-73485714D01*
X118119047Y-73295238D01*
X118214285Y-73200000D01*
X118309523Y-73152380D01*
X118928571Y-74247619D02*
X119690476Y-74247619D01*
X120452380Y-74152380D02*
X119880952Y-74152380D01*
X120166666Y-74152380D02*
X120166666Y-73152380D01*
X120071428Y-73295238D01*
X119976190Y-73390476D01*
X119880952Y-73438095D01*
X121309523Y-73152380D02*
X121119047Y-73152380D01*
X121023809Y-73200000D01*
X120976190Y-73247619D01*
X120880952Y-73390476D01*
X120833333Y-73580952D01*
X120833333Y-73961904D01*
X120880952Y-74057142D01*
X120928571Y-74104761D01*
X121023809Y-74152380D01*
X121214285Y-74152380D01*
X121309523Y-74104761D01*
X121357142Y-74057142D01*
X121404761Y-73961904D01*
X121404761Y-73723809D01*
X121357142Y-73628571D01*
X121309523Y-73580952D01*
X121214285Y-73533333D01*
X121023809Y-73533333D01*
X120928571Y-73580952D01*
X120880952Y-73628571D01*
X120833333Y-73723809D01*
X116142857Y-75740000D02*
X116047619Y-75692380D01*
X115904761Y-75692380D01*
X115761904Y-75740000D01*
X115666666Y-75835238D01*
X115619047Y-75930476D01*
X115571428Y-76120952D01*
X115571428Y-76263809D01*
X115619047Y-76454285D01*
X115666666Y-76549523D01*
X115761904Y-76644761D01*
X115904761Y-76692380D01*
X116000000Y-76692380D01*
X116142857Y-76644761D01*
X116190476Y-76597142D01*
X116190476Y-76263809D01*
X116000000Y-76263809D01*
X116619047Y-76692380D02*
X116619047Y-75692380D01*
X117000000Y-75692380D01*
X117095238Y-75740000D01*
X117142857Y-75787619D01*
X117190476Y-75882857D01*
X117190476Y-76025714D01*
X117142857Y-76120952D01*
X117095238Y-76168571D01*
X117000000Y-76216190D01*
X116619047Y-76216190D01*
X117619047Y-76692380D02*
X117619047Y-75692380D01*
X118285714Y-75692380D02*
X118476190Y-75692380D01*
X118571428Y-75740000D01*
X118666666Y-75835238D01*
X118714285Y-76025714D01*
X118714285Y-76359047D01*
X118666666Y-76549523D01*
X118571428Y-76644761D01*
X118476190Y-76692380D01*
X118285714Y-76692380D01*
X118190476Y-76644761D01*
X118095238Y-76549523D01*
X118047619Y-76359047D01*
X118047619Y-76025714D01*
X118095238Y-75835238D01*
X118190476Y-75740000D01*
X118285714Y-75692380D01*
X118904761Y-76787619D02*
X119666666Y-76787619D01*
X120380952Y-75692380D02*
X119904761Y-75692380D01*
X119857142Y-76168571D01*
X119904761Y-76120952D01*
X120000000Y-76073333D01*
X120238095Y-76073333D01*
X120333333Y-76120952D01*
X120380952Y-76168571D01*
X120428571Y-76263809D01*
X120428571Y-76501904D01*
X120380952Y-76597142D01*
X120333333Y-76644761D01*
X120238095Y-76692380D01*
X120000000Y-76692380D01*
X119904761Y-76644761D01*
X119857142Y-76597142D01*
X116142857Y-78250000D02*
X116047619Y-78202380D01*
X115904761Y-78202380D01*
X115761904Y-78250000D01*
X115666666Y-78345238D01*
X115619047Y-78440476D01*
X115571428Y-78630952D01*
X115571428Y-78773809D01*
X115619047Y-78964285D01*
X115666666Y-79059523D01*
X115761904Y-79154761D01*
X115904761Y-79202380D01*
X116000000Y-79202380D01*
X116142857Y-79154761D01*
X116190476Y-79107142D01*
X116190476Y-78773809D01*
X116000000Y-78773809D01*
X116619047Y-79202380D02*
X116619047Y-78202380D01*
X117000000Y-78202380D01*
X117095238Y-78250000D01*
X117142857Y-78297619D01*
X117190476Y-78392857D01*
X117190476Y-78535714D01*
X117142857Y-78630952D01*
X117095238Y-78678571D01*
X117000000Y-78726190D01*
X116619047Y-78726190D01*
X117619047Y-79202380D02*
X117619047Y-78202380D01*
X118285714Y-78202380D02*
X118476190Y-78202380D01*
X118571428Y-78250000D01*
X118666666Y-78345238D01*
X118714285Y-78535714D01*
X118714285Y-78869047D01*
X118666666Y-79059523D01*
X118571428Y-79154761D01*
X118476190Y-79202380D01*
X118285714Y-79202380D01*
X118190476Y-79154761D01*
X118095238Y-79059523D01*
X118047619Y-78869047D01*
X118047619Y-78535714D01*
X118095238Y-78345238D01*
X118190476Y-78250000D01*
X118285714Y-78202380D01*
X118904761Y-79297619D02*
X119666666Y-79297619D01*
X120333333Y-78535714D02*
X120333333Y-79202380D01*
X120095238Y-78154761D02*
X119857142Y-78869047D01*
X120476190Y-78869047D01*
X116142857Y-80750000D02*
X116047619Y-80702380D01*
X115904761Y-80702380D01*
X115761904Y-80750000D01*
X115666666Y-80845238D01*
X115619047Y-80940476D01*
X115571428Y-81130952D01*
X115571428Y-81273809D01*
X115619047Y-81464285D01*
X115666666Y-81559523D01*
X115761904Y-81654761D01*
X115904761Y-81702380D01*
X116000000Y-81702380D01*
X116142857Y-81654761D01*
X116190476Y-81607142D01*
X116190476Y-81273809D01*
X116000000Y-81273809D01*
X116619047Y-81702380D02*
X116619047Y-80702380D01*
X117000000Y-80702380D01*
X117095238Y-80750000D01*
X117142857Y-80797619D01*
X117190476Y-80892857D01*
X117190476Y-81035714D01*
X117142857Y-81130952D01*
X117095238Y-81178571D01*
X117000000Y-81226190D01*
X116619047Y-81226190D01*
X117619047Y-81702380D02*
X117619047Y-80702380D01*
X118285714Y-80702380D02*
X118476190Y-80702380D01*
X118571428Y-80750000D01*
X118666666Y-80845238D01*
X118714285Y-81035714D01*
X118714285Y-81369047D01*
X118666666Y-81559523D01*
X118571428Y-81654761D01*
X118476190Y-81702380D01*
X118285714Y-81702380D01*
X118190476Y-81654761D01*
X118095238Y-81559523D01*
X118047619Y-81369047D01*
X118047619Y-81035714D01*
X118095238Y-80845238D01*
X118190476Y-80750000D01*
X118285714Y-80702380D01*
X118904761Y-81797619D02*
X119666666Y-81797619D01*
X120095238Y-80702380D02*
X120190476Y-80702380D01*
X120285714Y-80750000D01*
X120333333Y-80797619D01*
X120380952Y-80892857D01*
X120428571Y-81083333D01*
X120428571Y-81321428D01*
X120380952Y-81511904D01*
X120333333Y-81607142D01*
X120285714Y-81654761D01*
X120190476Y-81702380D01*
X120095238Y-81702380D01*
X120000000Y-81654761D01*
X119952380Y-81607142D01*
X119904761Y-81511904D01*
X119857142Y-81321428D01*
X119857142Y-81083333D01*
X119904761Y-80892857D01*
X119952380Y-80797619D01*
X120000000Y-80750000D01*
X120095238Y-80702380D01*
X116142857Y-83360000D02*
X116047619Y-83312380D01*
X115904761Y-83312380D01*
X115761904Y-83360000D01*
X115666666Y-83455238D01*
X115619047Y-83550476D01*
X115571428Y-83740952D01*
X115571428Y-83883809D01*
X115619047Y-84074285D01*
X115666666Y-84169523D01*
X115761904Y-84264761D01*
X115904761Y-84312380D01*
X116000000Y-84312380D01*
X116142857Y-84264761D01*
X116190476Y-84217142D01*
X116190476Y-83883809D01*
X116000000Y-83883809D01*
X116619047Y-84312380D02*
X116619047Y-83312380D01*
X117000000Y-83312380D01*
X117095238Y-83360000D01*
X117142857Y-83407619D01*
X117190476Y-83502857D01*
X117190476Y-83645714D01*
X117142857Y-83740952D01*
X117095238Y-83788571D01*
X117000000Y-83836190D01*
X116619047Y-83836190D01*
X117619047Y-84312380D02*
X117619047Y-83312380D01*
X118285714Y-83312380D02*
X118476190Y-83312380D01*
X118571428Y-83360000D01*
X118666666Y-83455238D01*
X118714285Y-83645714D01*
X118714285Y-83979047D01*
X118666666Y-84169523D01*
X118571428Y-84264761D01*
X118476190Y-84312380D01*
X118285714Y-84312380D01*
X118190476Y-84264761D01*
X118095238Y-84169523D01*
X118047619Y-83979047D01*
X118047619Y-83645714D01*
X118095238Y-83455238D01*
X118190476Y-83360000D01*
X118285714Y-83312380D01*
X118904761Y-84407619D02*
X119666666Y-84407619D01*
X119857142Y-83407619D02*
X119904761Y-83360000D01*
X120000000Y-83312380D01*
X120238095Y-83312380D01*
X120333333Y-83360000D01*
X120380952Y-83407619D01*
X120428571Y-83502857D01*
X120428571Y-83598095D01*
X120380952Y-83740952D01*
X119809523Y-84312380D01*
X120428571Y-84312380D01*
X116238095Y-85852380D02*
X116857142Y-85852380D01*
X116523809Y-86233333D01*
X116666666Y-86233333D01*
X116761904Y-86280952D01*
X116809523Y-86328571D01*
X116857142Y-86423809D01*
X116857142Y-86661904D01*
X116809523Y-86757142D01*
X116761904Y-86804761D01*
X116666666Y-86852380D01*
X116380952Y-86852380D01*
X116285714Y-86804761D01*
X116238095Y-86757142D01*
X117142857Y-85852380D02*
X117476190Y-86852380D01*
X117809523Y-85852380D01*
X119247142Y-88440000D02*
X119151904Y-88392380D01*
X119009047Y-88392380D01*
X118866190Y-88440000D01*
X118770952Y-88535238D01*
X118723333Y-88630476D01*
X118675714Y-88820952D01*
X118675714Y-88963809D01*
X118723333Y-89154285D01*
X118770952Y-89249523D01*
X118866190Y-89344761D01*
X119009047Y-89392380D01*
X119104285Y-89392380D01*
X119247142Y-89344761D01*
X119294761Y-89297142D01*
X119294761Y-88963809D01*
X119104285Y-88963809D01*
X119723333Y-88725714D02*
X119723333Y-89392380D01*
X119723333Y-88820952D02*
X119770952Y-88773333D01*
X119866190Y-88725714D01*
X120009047Y-88725714D01*
X120104285Y-88773333D01*
X120151904Y-88868571D01*
X120151904Y-89392380D01*
X121056666Y-89392380D02*
X121056666Y-88392380D01*
X121056666Y-89344761D02*
X120961428Y-89392380D01*
X120770952Y-89392380D01*
X120675714Y-89344761D01*
X120628095Y-89297142D01*
X120580476Y-89201904D01*
X120580476Y-88916190D01*
X120628095Y-88820952D01*
X120675714Y-88773333D01*
X120770952Y-88725714D01*
X120961428Y-88725714D01*
X121056666Y-88773333D01*
X116166666Y-91000000D02*
X116071428Y-90952380D01*
X115928571Y-90952380D01*
X115785714Y-91000000D01*
X115690476Y-91095238D01*
X115642857Y-91190476D01*
X115595238Y-91380952D01*
X115595238Y-91523809D01*
X115642857Y-91714285D01*
X115690476Y-91809523D01*
X115785714Y-91904761D01*
X115928571Y-91952380D01*
X116023809Y-91952380D01*
X116166666Y-91904761D01*
X116214285Y-91857142D01*
X116214285Y-91523809D01*
X116023809Y-91523809D01*
X116642857Y-91952380D02*
X116642857Y-90952380D01*
X117023809Y-90952380D01*
X117119047Y-91000000D01*
X117166666Y-91047619D01*
X117214285Y-91142857D01*
X117214285Y-91285714D01*
X117166666Y-91380952D01*
X117119047Y-91428571D01*
X117023809Y-91476190D01*
X116642857Y-91476190D01*
X117642857Y-91952380D02*
X117642857Y-90952380D01*
X118309523Y-90952380D02*
X118500000Y-90952380D01*
X118595238Y-91000000D01*
X118690476Y-91095238D01*
X118738095Y-91285714D01*
X118738095Y-91619047D01*
X118690476Y-91809523D01*
X118595238Y-91904761D01*
X118500000Y-91952380D01*
X118309523Y-91952380D01*
X118214285Y-91904761D01*
X118119047Y-91809523D01*
X118071428Y-91619047D01*
X118071428Y-91285714D01*
X118119047Y-91095238D01*
X118214285Y-91000000D01*
X118309523Y-90952380D01*
X118928571Y-92047619D02*
X119690476Y-92047619D01*
X120452380Y-91952380D02*
X119880952Y-91952380D01*
X120166666Y-91952380D02*
X120166666Y-90952380D01*
X120071428Y-91095238D01*
X119976190Y-91190476D01*
X119880952Y-91238095D01*
X121309523Y-91285714D02*
X121309523Y-91952380D01*
X121071428Y-90904761D02*
X120833333Y-91619047D01*
X121452380Y-91619047D01*
X116166666Y-93520000D02*
X116071428Y-93472380D01*
X115928571Y-93472380D01*
X115785714Y-93520000D01*
X115690476Y-93615238D01*
X115642857Y-93710476D01*
X115595238Y-93900952D01*
X115595238Y-94043809D01*
X115642857Y-94234285D01*
X115690476Y-94329523D01*
X115785714Y-94424761D01*
X115928571Y-94472380D01*
X116023809Y-94472380D01*
X116166666Y-94424761D01*
X116214285Y-94377142D01*
X116214285Y-94043809D01*
X116023809Y-94043809D01*
X116642857Y-94472380D02*
X116642857Y-93472380D01*
X117023809Y-93472380D01*
X117119047Y-93520000D01*
X117166666Y-93567619D01*
X117214285Y-93662857D01*
X117214285Y-93805714D01*
X117166666Y-93900952D01*
X117119047Y-93948571D01*
X117023809Y-93996190D01*
X116642857Y-93996190D01*
X117642857Y-94472380D02*
X117642857Y-93472380D01*
X118309523Y-93472380D02*
X118500000Y-93472380D01*
X118595238Y-93520000D01*
X118690476Y-93615238D01*
X118738095Y-93805714D01*
X118738095Y-94139047D01*
X118690476Y-94329523D01*
X118595238Y-94424761D01*
X118500000Y-94472380D01*
X118309523Y-94472380D01*
X118214285Y-94424761D01*
X118119047Y-94329523D01*
X118071428Y-94139047D01*
X118071428Y-93805714D01*
X118119047Y-93615238D01*
X118214285Y-93520000D01*
X118309523Y-93472380D01*
X118928571Y-94567619D02*
X119690476Y-94567619D01*
X120452380Y-94472380D02*
X119880952Y-94472380D01*
X120166666Y-94472380D02*
X120166666Y-93472380D01*
X120071428Y-93615238D01*
X119976190Y-93710476D01*
X119880952Y-93758095D01*
X120833333Y-93567619D02*
X120880952Y-93520000D01*
X120976190Y-93472380D01*
X121214285Y-93472380D01*
X121309523Y-93520000D01*
X121357142Y-93567619D01*
X121404761Y-93662857D01*
X121404761Y-93758095D01*
X121357142Y-93900952D01*
X120785714Y-94472380D01*
X121404761Y-94472380D01*
X116166666Y-96060000D02*
X116071428Y-96012380D01*
X115928571Y-96012380D01*
X115785714Y-96060000D01*
X115690476Y-96155238D01*
X115642857Y-96250476D01*
X115595238Y-96440952D01*
X115595238Y-96583809D01*
X115642857Y-96774285D01*
X115690476Y-96869523D01*
X115785714Y-96964761D01*
X115928571Y-97012380D01*
X116023809Y-97012380D01*
X116166666Y-96964761D01*
X116214285Y-96917142D01*
X116214285Y-96583809D01*
X116023809Y-96583809D01*
X116642857Y-97012380D02*
X116642857Y-96012380D01*
X117023809Y-96012380D01*
X117119047Y-96060000D01*
X117166666Y-96107619D01*
X117214285Y-96202857D01*
X117214285Y-96345714D01*
X117166666Y-96440952D01*
X117119047Y-96488571D01*
X117023809Y-96536190D01*
X116642857Y-96536190D01*
X117642857Y-97012380D02*
X117642857Y-96012380D01*
X118309523Y-96012380D02*
X118500000Y-96012380D01*
X118595238Y-96060000D01*
X118690476Y-96155238D01*
X118738095Y-96345714D01*
X118738095Y-96679047D01*
X118690476Y-96869523D01*
X118595238Y-96964761D01*
X118500000Y-97012380D01*
X118309523Y-97012380D01*
X118214285Y-96964761D01*
X118119047Y-96869523D01*
X118071428Y-96679047D01*
X118071428Y-96345714D01*
X118119047Y-96155238D01*
X118214285Y-96060000D01*
X118309523Y-96012380D01*
X118928571Y-97107619D02*
X119690476Y-97107619D01*
X120452380Y-97012380D02*
X119880952Y-97012380D01*
X120166666Y-97012380D02*
X120166666Y-96012380D01*
X120071428Y-96155238D01*
X119976190Y-96250476D01*
X119880952Y-96298095D01*
X120785714Y-96012380D02*
X121404761Y-96012380D01*
X121071428Y-96393333D01*
X121214285Y-96393333D01*
X121309523Y-96440952D01*
X121357142Y-96488571D01*
X121404761Y-96583809D01*
X121404761Y-96821904D01*
X121357142Y-96917142D01*
X121309523Y-96964761D01*
X121214285Y-97012380D01*
X120928571Y-97012380D01*
X120833333Y-96964761D01*
X120785714Y-96917142D01*
X116166666Y-98600000D02*
X116071428Y-98552380D01*
X115928571Y-98552380D01*
X115785714Y-98600000D01*
X115690476Y-98695238D01*
X115642857Y-98790476D01*
X115595238Y-98980952D01*
X115595238Y-99123809D01*
X115642857Y-99314285D01*
X115690476Y-99409523D01*
X115785714Y-99504761D01*
X115928571Y-99552380D01*
X116023809Y-99552380D01*
X116166666Y-99504761D01*
X116214285Y-99457142D01*
X116214285Y-99123809D01*
X116023809Y-99123809D01*
X116642857Y-99552380D02*
X116642857Y-98552380D01*
X117023809Y-98552380D01*
X117119047Y-98600000D01*
X117166666Y-98647619D01*
X117214285Y-98742857D01*
X117214285Y-98885714D01*
X117166666Y-98980952D01*
X117119047Y-99028571D01*
X117023809Y-99076190D01*
X116642857Y-99076190D01*
X117642857Y-99552380D02*
X117642857Y-98552380D01*
X118309523Y-98552380D02*
X118500000Y-98552380D01*
X118595238Y-98600000D01*
X118690476Y-98695238D01*
X118738095Y-98885714D01*
X118738095Y-99219047D01*
X118690476Y-99409523D01*
X118595238Y-99504761D01*
X118500000Y-99552380D01*
X118309523Y-99552380D01*
X118214285Y-99504761D01*
X118119047Y-99409523D01*
X118071428Y-99219047D01*
X118071428Y-98885714D01*
X118119047Y-98695238D01*
X118214285Y-98600000D01*
X118309523Y-98552380D01*
X118928571Y-99647619D02*
X119690476Y-99647619D01*
X120452380Y-99552380D02*
X119880952Y-99552380D01*
X120166666Y-99552380D02*
X120166666Y-98552380D01*
X120071428Y-98695238D01*
X119976190Y-98790476D01*
X119880952Y-98838095D01*
X121357142Y-98552380D02*
X120880952Y-98552380D01*
X120833333Y-99028571D01*
X120880952Y-98980952D01*
X120976190Y-98933333D01*
X121214285Y-98933333D01*
X121309523Y-98980952D01*
X121357142Y-99028571D01*
X121404761Y-99123809D01*
X121404761Y-99361904D01*
X121357142Y-99457142D01*
X121309523Y-99504761D01*
X121214285Y-99552380D01*
X120976190Y-99552380D01*
X120880952Y-99504761D01*
X120833333Y-99457142D01*
X116142857Y-101250000D02*
X116047619Y-101202380D01*
X115904761Y-101202380D01*
X115761904Y-101250000D01*
X115666666Y-101345238D01*
X115619047Y-101440476D01*
X115571428Y-101630952D01*
X115571428Y-101773809D01*
X115619047Y-101964285D01*
X115666666Y-102059523D01*
X115761904Y-102154761D01*
X115904761Y-102202380D01*
X116000000Y-102202380D01*
X116142857Y-102154761D01*
X116190476Y-102107142D01*
X116190476Y-101773809D01*
X116000000Y-101773809D01*
X116619047Y-102202380D02*
X116619047Y-101202380D01*
X117000000Y-101202380D01*
X117095238Y-101250000D01*
X117142857Y-101297619D01*
X117190476Y-101392857D01*
X117190476Y-101535714D01*
X117142857Y-101630952D01*
X117095238Y-101678571D01*
X117000000Y-101726190D01*
X116619047Y-101726190D01*
X117619047Y-102202380D02*
X117619047Y-101202380D01*
X118285714Y-101202380D02*
X118476190Y-101202380D01*
X118571428Y-101250000D01*
X118666666Y-101345238D01*
X118714285Y-101535714D01*
X118714285Y-101869047D01*
X118666666Y-102059523D01*
X118571428Y-102154761D01*
X118476190Y-102202380D01*
X118285714Y-102202380D01*
X118190476Y-102154761D01*
X118095238Y-102059523D01*
X118047619Y-101869047D01*
X118047619Y-101535714D01*
X118095238Y-101345238D01*
X118190476Y-101250000D01*
X118285714Y-101202380D01*
X118904761Y-102297619D02*
X119666666Y-102297619D01*
X119809523Y-101202380D02*
X120428571Y-101202380D01*
X120095238Y-101583333D01*
X120238095Y-101583333D01*
X120333333Y-101630952D01*
X120380952Y-101678571D01*
X120428571Y-101773809D01*
X120428571Y-102011904D01*
X120380952Y-102107142D01*
X120333333Y-102154761D01*
X120238095Y-102202380D01*
X119952380Y-102202380D01*
X119857142Y-102154761D01*
X119809523Y-102107142D01*
X116142857Y-103680000D02*
X116047619Y-103632380D01*
X115904761Y-103632380D01*
X115761904Y-103680000D01*
X115666666Y-103775238D01*
X115619047Y-103870476D01*
X115571428Y-104060952D01*
X115571428Y-104203809D01*
X115619047Y-104394285D01*
X115666666Y-104489523D01*
X115761904Y-104584761D01*
X115904761Y-104632380D01*
X116000000Y-104632380D01*
X116142857Y-104584761D01*
X116190476Y-104537142D01*
X116190476Y-104203809D01*
X116000000Y-104203809D01*
X116619047Y-104632380D02*
X116619047Y-103632380D01*
X117000000Y-103632380D01*
X117095238Y-103680000D01*
X117142857Y-103727619D01*
X117190476Y-103822857D01*
X117190476Y-103965714D01*
X117142857Y-104060952D01*
X117095238Y-104108571D01*
X117000000Y-104156190D01*
X116619047Y-104156190D01*
X117619047Y-104632380D02*
X117619047Y-103632380D01*
X118285714Y-103632380D02*
X118476190Y-103632380D01*
X118571428Y-103680000D01*
X118666666Y-103775238D01*
X118714285Y-103965714D01*
X118714285Y-104299047D01*
X118666666Y-104489523D01*
X118571428Y-104584761D01*
X118476190Y-104632380D01*
X118285714Y-104632380D01*
X118190476Y-104584761D01*
X118095238Y-104489523D01*
X118047619Y-104299047D01*
X118047619Y-103965714D01*
X118095238Y-103775238D01*
X118190476Y-103680000D01*
X118285714Y-103632380D01*
X118904761Y-104727619D02*
X119666666Y-104727619D01*
X120428571Y-104632380D02*
X119857142Y-104632380D01*
X120142857Y-104632380D02*
X120142857Y-103632380D01*
X120047619Y-103775238D01*
X119952380Y-103870476D01*
X119857142Y-103918095D01*
X119247142Y-106220000D02*
X119151904Y-106172380D01*
X119009047Y-106172380D01*
X118866190Y-106220000D01*
X118770952Y-106315238D01*
X118723333Y-106410476D01*
X118675714Y-106600952D01*
X118675714Y-106743809D01*
X118723333Y-106934285D01*
X118770952Y-107029523D01*
X118866190Y-107124761D01*
X119009047Y-107172380D01*
X119104285Y-107172380D01*
X119247142Y-107124761D01*
X119294761Y-107077142D01*
X119294761Y-106743809D01*
X119104285Y-106743809D01*
X119723333Y-106505714D02*
X119723333Y-107172380D01*
X119723333Y-106600952D02*
X119770952Y-106553333D01*
X119866190Y-106505714D01*
X120009047Y-106505714D01*
X120104285Y-106553333D01*
X120151904Y-106648571D01*
X120151904Y-107172380D01*
X121056666Y-107172380D02*
X121056666Y-106172380D01*
X121056666Y-107124761D02*
X120961428Y-107172380D01*
X120770952Y-107172380D01*
X120675714Y-107124761D01*
X120628095Y-107077142D01*
X120580476Y-106981904D01*
X120580476Y-106696190D01*
X120628095Y-106600952D01*
X120675714Y-106553333D01*
X120770952Y-106505714D01*
X120961428Y-106505714D01*
X121056666Y-106553333D01*
X116238095Y-108712380D02*
X116857142Y-108712380D01*
X116523809Y-109093333D01*
X116666666Y-109093333D01*
X116761904Y-109140952D01*
X116809523Y-109188571D01*
X116857142Y-109283809D01*
X116857142Y-109521904D01*
X116809523Y-109617142D01*
X116761904Y-109664761D01*
X116666666Y-109712380D01*
X116380952Y-109712380D01*
X116285714Y-109664761D01*
X116238095Y-109617142D01*
X117142857Y-108712380D02*
X117476190Y-109712380D01*
X117809523Y-108712380D01*
X100760714Y-73866666D02*
X101236904Y-73866666D01*
X100665476Y-74152380D02*
X100998809Y-73152380D01*
X101332142Y-74152380D01*
X101855952Y-73152380D02*
X101951190Y-73152380D01*
X102046428Y-73200000D01*
X102094047Y-73247619D01*
X102141666Y-73342857D01*
X102189285Y-73533333D01*
X102189285Y-73771428D01*
X102141666Y-73961904D01*
X102094047Y-74057142D01*
X102046428Y-74104761D01*
X101951190Y-74152380D01*
X101855952Y-74152380D01*
X101760714Y-74104761D01*
X101713095Y-74057142D01*
X101665476Y-73961904D01*
X101617857Y-73771428D01*
X101617857Y-73533333D01*
X101665476Y-73342857D01*
X101713095Y-73247619D01*
X101760714Y-73200000D01*
X101855952Y-73152380D01*
X100832142Y-75740000D02*
X100736904Y-75692380D01*
X100594047Y-75692380D01*
X100451190Y-75740000D01*
X100355952Y-75835238D01*
X100308333Y-75930476D01*
X100260714Y-76120952D01*
X100260714Y-76263809D01*
X100308333Y-76454285D01*
X100355952Y-76549523D01*
X100451190Y-76644761D01*
X100594047Y-76692380D01*
X100689285Y-76692380D01*
X100832142Y-76644761D01*
X100879761Y-76597142D01*
X100879761Y-76263809D01*
X100689285Y-76263809D01*
X101308333Y-76025714D02*
X101308333Y-76692380D01*
X101308333Y-76120952D02*
X101355952Y-76073333D01*
X101451190Y-76025714D01*
X101594047Y-76025714D01*
X101689285Y-76073333D01*
X101736904Y-76168571D01*
X101736904Y-76692380D01*
X102641666Y-76692380D02*
X102641666Y-75692380D01*
X102641666Y-76644761D02*
X102546428Y-76692380D01*
X102355952Y-76692380D01*
X102260714Y-76644761D01*
X102213095Y-76597142D01*
X102165476Y-76501904D01*
X102165476Y-76216190D01*
X102213095Y-76120952D01*
X102260714Y-76073333D01*
X102355952Y-76025714D01*
X102546428Y-76025714D01*
X102641666Y-76073333D01*
X100617857Y-78232380D02*
X100951190Y-79232380D01*
X101284523Y-78232380D01*
X101617857Y-78232380D02*
X101617857Y-79041904D01*
X101665476Y-79137142D01*
X101713095Y-79184761D01*
X101808333Y-79232380D01*
X101998809Y-79232380D01*
X102094047Y-79184761D01*
X102141666Y-79137142D01*
X102189285Y-79041904D01*
X102189285Y-78232380D01*
X100666666Y-81000000D02*
X100571428Y-80952380D01*
X100428571Y-80952380D01*
X100285714Y-81000000D01*
X100190476Y-81095238D01*
X100142857Y-81190476D01*
X100095238Y-81380952D01*
X100095238Y-81523809D01*
X100142857Y-81714285D01*
X100190476Y-81809523D01*
X100285714Y-81904761D01*
X100428571Y-81952380D01*
X100523809Y-81952380D01*
X100666666Y-81904761D01*
X100714285Y-81857142D01*
X100714285Y-81523809D01*
X100523809Y-81523809D01*
X101142857Y-81952380D02*
X101142857Y-80952380D01*
X101523809Y-80952380D01*
X101619047Y-81000000D01*
X101666666Y-81047619D01*
X101714285Y-81142857D01*
X101714285Y-81285714D01*
X101666666Y-81380952D01*
X101619047Y-81428571D01*
X101523809Y-81476190D01*
X101142857Y-81476190D01*
X102142857Y-81952380D02*
X102142857Y-80952380D01*
X102809523Y-80952380D02*
X103000000Y-80952380D01*
X103095238Y-81000000D01*
X103190476Y-81095238D01*
X103238095Y-81285714D01*
X103238095Y-81619047D01*
X103190476Y-81809523D01*
X103095238Y-81904761D01*
X103000000Y-81952380D01*
X102809523Y-81952380D01*
X102714285Y-81904761D01*
X102619047Y-81809523D01*
X102571428Y-81619047D01*
X102571428Y-81285714D01*
X102619047Y-81095238D01*
X102714285Y-81000000D01*
X102809523Y-80952380D01*
X103428571Y-82047619D02*
X104190476Y-82047619D01*
X104952380Y-81952380D02*
X104380952Y-81952380D01*
X104666666Y-81952380D02*
X104666666Y-80952380D01*
X104571428Y-81095238D01*
X104476190Y-81190476D01*
X104380952Y-81238095D01*
X105571428Y-80952380D02*
X105666666Y-80952380D01*
X105761904Y-81000000D01*
X105809523Y-81047619D01*
X105857142Y-81142857D01*
X105904761Y-81333333D01*
X105904761Y-81571428D01*
X105857142Y-81761904D01*
X105809523Y-81857142D01*
X105761904Y-81904761D01*
X105666666Y-81952380D01*
X105571428Y-81952380D01*
X105476190Y-81904761D01*
X105428571Y-81857142D01*
X105380952Y-81761904D01*
X105333333Y-81571428D01*
X105333333Y-81333333D01*
X105380952Y-81142857D01*
X105428571Y-81047619D01*
X105476190Y-81000000D01*
X105571428Y-80952380D01*
X100642857Y-83500000D02*
X100547619Y-83452380D01*
X100404761Y-83452380D01*
X100261904Y-83500000D01*
X100166666Y-83595238D01*
X100119047Y-83690476D01*
X100071428Y-83880952D01*
X100071428Y-84023809D01*
X100119047Y-84214285D01*
X100166666Y-84309523D01*
X100261904Y-84404761D01*
X100404761Y-84452380D01*
X100500000Y-84452380D01*
X100642857Y-84404761D01*
X100690476Y-84357142D01*
X100690476Y-84023809D01*
X100500000Y-84023809D01*
X101119047Y-84452380D02*
X101119047Y-83452380D01*
X101500000Y-83452380D01*
X101595238Y-83500000D01*
X101642857Y-83547619D01*
X101690476Y-83642857D01*
X101690476Y-83785714D01*
X101642857Y-83880952D01*
X101595238Y-83928571D01*
X101500000Y-83976190D01*
X101119047Y-83976190D01*
X102119047Y-84452380D02*
X102119047Y-83452380D01*
X102785714Y-83452380D02*
X102976190Y-83452380D01*
X103071428Y-83500000D01*
X103166666Y-83595238D01*
X103214285Y-83785714D01*
X103214285Y-84119047D01*
X103166666Y-84309523D01*
X103071428Y-84404761D01*
X102976190Y-84452380D01*
X102785714Y-84452380D01*
X102690476Y-84404761D01*
X102595238Y-84309523D01*
X102547619Y-84119047D01*
X102547619Y-83785714D01*
X102595238Y-83595238D01*
X102690476Y-83500000D01*
X102785714Y-83452380D01*
X103404761Y-84547619D02*
X104166666Y-84547619D01*
X104452380Y-84452380D02*
X104642857Y-84452380D01*
X104738095Y-84404761D01*
X104785714Y-84357142D01*
X104880952Y-84214285D01*
X104928571Y-84023809D01*
X104928571Y-83642857D01*
X104880952Y-83547619D01*
X104833333Y-83500000D01*
X104738095Y-83452380D01*
X104547619Y-83452380D01*
X104452380Y-83500000D01*
X104404761Y-83547619D01*
X104357142Y-83642857D01*
X104357142Y-83880952D01*
X104404761Y-83976190D01*
X104452380Y-84023809D01*
X104547619Y-84071428D01*
X104738095Y-84071428D01*
X104833333Y-84023809D01*
X104880952Y-83976190D01*
X104928571Y-83880952D01*
X100642857Y-86000000D02*
X100547619Y-85952380D01*
X100404761Y-85952380D01*
X100261904Y-86000000D01*
X100166666Y-86095238D01*
X100119047Y-86190476D01*
X100071428Y-86380952D01*
X100071428Y-86523809D01*
X100119047Y-86714285D01*
X100166666Y-86809523D01*
X100261904Y-86904761D01*
X100404761Y-86952380D01*
X100500000Y-86952380D01*
X100642857Y-86904761D01*
X100690476Y-86857142D01*
X100690476Y-86523809D01*
X100500000Y-86523809D01*
X101119047Y-86952380D02*
X101119047Y-85952380D01*
X101500000Y-85952380D01*
X101595238Y-86000000D01*
X101642857Y-86047619D01*
X101690476Y-86142857D01*
X101690476Y-86285714D01*
X101642857Y-86380952D01*
X101595238Y-86428571D01*
X101500000Y-86476190D01*
X101119047Y-86476190D01*
X102119047Y-86952380D02*
X102119047Y-85952380D01*
X102785714Y-85952380D02*
X102976190Y-85952380D01*
X103071428Y-86000000D01*
X103166666Y-86095238D01*
X103214285Y-86285714D01*
X103214285Y-86619047D01*
X103166666Y-86809523D01*
X103071428Y-86904761D01*
X102976190Y-86952380D01*
X102785714Y-86952380D01*
X102690476Y-86904761D01*
X102595238Y-86809523D01*
X102547619Y-86619047D01*
X102547619Y-86285714D01*
X102595238Y-86095238D01*
X102690476Y-86000000D01*
X102785714Y-85952380D01*
X103404761Y-87047619D02*
X104166666Y-87047619D01*
X104547619Y-86380952D02*
X104452380Y-86333333D01*
X104404761Y-86285714D01*
X104357142Y-86190476D01*
X104357142Y-86142857D01*
X104404761Y-86047619D01*
X104452380Y-86000000D01*
X104547619Y-85952380D01*
X104738095Y-85952380D01*
X104833333Y-86000000D01*
X104880952Y-86047619D01*
X104928571Y-86142857D01*
X104928571Y-86190476D01*
X104880952Y-86285714D01*
X104833333Y-86333333D01*
X104738095Y-86380952D01*
X104547619Y-86380952D01*
X104452380Y-86428571D01*
X104404761Y-86476190D01*
X104357142Y-86571428D01*
X104357142Y-86761904D01*
X104404761Y-86857142D01*
X104452380Y-86904761D01*
X104547619Y-86952380D01*
X104738095Y-86952380D01*
X104833333Y-86904761D01*
X104880952Y-86857142D01*
X104928571Y-86761904D01*
X104928571Y-86571428D01*
X104880952Y-86476190D01*
X104833333Y-86428571D01*
X104738095Y-86380952D01*
X100666666Y-88500000D02*
X100571428Y-88452380D01*
X100428571Y-88452380D01*
X100285714Y-88500000D01*
X100190476Y-88595238D01*
X100142857Y-88690476D01*
X100095238Y-88880952D01*
X100095238Y-89023809D01*
X100142857Y-89214285D01*
X100190476Y-89309523D01*
X100285714Y-89404761D01*
X100428571Y-89452380D01*
X100523809Y-89452380D01*
X100666666Y-89404761D01*
X100714285Y-89357142D01*
X100714285Y-89023809D01*
X100523809Y-89023809D01*
X101142857Y-89452380D02*
X101142857Y-88452380D01*
X101523809Y-88452380D01*
X101619047Y-88500000D01*
X101666666Y-88547619D01*
X101714285Y-88642857D01*
X101714285Y-88785714D01*
X101666666Y-88880952D01*
X101619047Y-88928571D01*
X101523809Y-88976190D01*
X101142857Y-88976190D01*
X102142857Y-89452380D02*
X102142857Y-88452380D01*
X102809523Y-88452380D02*
X103000000Y-88452380D01*
X103095238Y-88500000D01*
X103190476Y-88595238D01*
X103238095Y-88785714D01*
X103238095Y-89119047D01*
X103190476Y-89309523D01*
X103095238Y-89404761D01*
X103000000Y-89452380D01*
X102809523Y-89452380D01*
X102714285Y-89404761D01*
X102619047Y-89309523D01*
X102571428Y-89119047D01*
X102571428Y-88785714D01*
X102619047Y-88595238D01*
X102714285Y-88500000D01*
X102809523Y-88452380D01*
X103428571Y-89547619D02*
X104190476Y-89547619D01*
X104952380Y-89452380D02*
X104380952Y-89452380D01*
X104666666Y-89452380D02*
X104666666Y-88452380D01*
X104571428Y-88595238D01*
X104476190Y-88690476D01*
X104380952Y-88738095D01*
X105904761Y-89452380D02*
X105333333Y-89452380D01*
X105619047Y-89452380D02*
X105619047Y-88452380D01*
X105523809Y-88595238D01*
X105428571Y-88690476D01*
X105333333Y-88738095D01*
X100642857Y-91000000D02*
X100547619Y-90952380D01*
X100404761Y-90952380D01*
X100261904Y-91000000D01*
X100166666Y-91095238D01*
X100119047Y-91190476D01*
X100071428Y-91380952D01*
X100071428Y-91523809D01*
X100119047Y-91714285D01*
X100166666Y-91809523D01*
X100261904Y-91904761D01*
X100404761Y-91952380D01*
X100500000Y-91952380D01*
X100642857Y-91904761D01*
X100690476Y-91857142D01*
X100690476Y-91523809D01*
X100500000Y-91523809D01*
X101119047Y-91952380D02*
X101119047Y-90952380D01*
X101500000Y-90952380D01*
X101595238Y-91000000D01*
X101642857Y-91047619D01*
X101690476Y-91142857D01*
X101690476Y-91285714D01*
X101642857Y-91380952D01*
X101595238Y-91428571D01*
X101500000Y-91476190D01*
X101119047Y-91476190D01*
X102119047Y-91952380D02*
X102119047Y-90952380D01*
X102785714Y-90952380D02*
X102976190Y-90952380D01*
X103071428Y-91000000D01*
X103166666Y-91095238D01*
X103214285Y-91285714D01*
X103214285Y-91619047D01*
X103166666Y-91809523D01*
X103071428Y-91904761D01*
X102976190Y-91952380D01*
X102785714Y-91952380D01*
X102690476Y-91904761D01*
X102595238Y-91809523D01*
X102547619Y-91619047D01*
X102547619Y-91285714D01*
X102595238Y-91095238D01*
X102690476Y-91000000D01*
X102785714Y-90952380D01*
X103404761Y-92047619D02*
X104166666Y-92047619D01*
X104309523Y-90952380D02*
X104976190Y-90952380D01*
X104547619Y-91952380D01*
X100642857Y-93500000D02*
X100547619Y-93452380D01*
X100404761Y-93452380D01*
X100261904Y-93500000D01*
X100166666Y-93595238D01*
X100119047Y-93690476D01*
X100071428Y-93880952D01*
X100071428Y-94023809D01*
X100119047Y-94214285D01*
X100166666Y-94309523D01*
X100261904Y-94404761D01*
X100404761Y-94452380D01*
X100500000Y-94452380D01*
X100642857Y-94404761D01*
X100690476Y-94357142D01*
X100690476Y-94023809D01*
X100500000Y-94023809D01*
X101119047Y-94452380D02*
X101119047Y-93452380D01*
X101500000Y-93452380D01*
X101595238Y-93500000D01*
X101642857Y-93547619D01*
X101690476Y-93642857D01*
X101690476Y-93785714D01*
X101642857Y-93880952D01*
X101595238Y-93928571D01*
X101500000Y-93976190D01*
X101119047Y-93976190D01*
X102119047Y-94452380D02*
X102119047Y-93452380D01*
X102785714Y-93452380D02*
X102976190Y-93452380D01*
X103071428Y-93500000D01*
X103166666Y-93595238D01*
X103214285Y-93785714D01*
X103214285Y-94119047D01*
X103166666Y-94309523D01*
X103071428Y-94404761D01*
X102976190Y-94452380D01*
X102785714Y-94452380D01*
X102690476Y-94404761D01*
X102595238Y-94309523D01*
X102547619Y-94119047D01*
X102547619Y-93785714D01*
X102595238Y-93595238D01*
X102690476Y-93500000D01*
X102785714Y-93452380D01*
X103404761Y-94547619D02*
X104166666Y-94547619D01*
X104833333Y-93452380D02*
X104642857Y-93452380D01*
X104547619Y-93500000D01*
X104500000Y-93547619D01*
X104404761Y-93690476D01*
X104357142Y-93880952D01*
X104357142Y-94261904D01*
X104404761Y-94357142D01*
X104452380Y-94404761D01*
X104547619Y-94452380D01*
X104738095Y-94452380D01*
X104833333Y-94404761D01*
X104880952Y-94357142D01*
X104928571Y-94261904D01*
X104928571Y-94023809D01*
X104880952Y-93928571D01*
X104833333Y-93880952D01*
X104738095Y-93833333D01*
X104547619Y-93833333D01*
X104452380Y-93880952D01*
X104404761Y-93928571D01*
X104357142Y-94023809D01*
X100832142Y-96060000D02*
X100736904Y-96012380D01*
X100594047Y-96012380D01*
X100451190Y-96060000D01*
X100355952Y-96155238D01*
X100308333Y-96250476D01*
X100260714Y-96440952D01*
X100260714Y-96583809D01*
X100308333Y-96774285D01*
X100355952Y-96869523D01*
X100451190Y-96964761D01*
X100594047Y-97012380D01*
X100689285Y-97012380D01*
X100832142Y-96964761D01*
X100879761Y-96917142D01*
X100879761Y-96583809D01*
X100689285Y-96583809D01*
X101308333Y-96345714D02*
X101308333Y-97012380D01*
X101308333Y-96440952D02*
X101355952Y-96393333D01*
X101451190Y-96345714D01*
X101594047Y-96345714D01*
X101689285Y-96393333D01*
X101736904Y-96488571D01*
X101736904Y-97012380D01*
X102641666Y-97012380D02*
X102641666Y-96012380D01*
X102641666Y-96964761D02*
X102546428Y-97012380D01*
X102355952Y-97012380D01*
X102260714Y-96964761D01*
X102213095Y-96917142D01*
X102165476Y-96821904D01*
X102165476Y-96536190D01*
X102213095Y-96440952D01*
X102260714Y-96393333D01*
X102355952Y-96345714D01*
X102546428Y-96345714D01*
X102641666Y-96393333D01*
X103238095Y-98552380D02*
X103857142Y-98552380D01*
X103523809Y-98933333D01*
X103666666Y-98933333D01*
X103761904Y-98980952D01*
X103809523Y-99028571D01*
X103857142Y-99123809D01*
X103857142Y-99361904D01*
X103809523Y-99457142D01*
X103761904Y-99504761D01*
X103666666Y-99552380D01*
X103380952Y-99552380D01*
X103285714Y-99504761D01*
X103238095Y-99457142D01*
X104142857Y-98552380D02*
X104476190Y-99552380D01*
X104809523Y-98552380D01*
X100736904Y-101568571D02*
X101070238Y-101568571D01*
X101213095Y-102092380D02*
X100736904Y-102092380D01*
X100736904Y-101092380D01*
X101213095Y-101092380D01*
X101641666Y-102092380D02*
X101641666Y-101092380D01*
X102213095Y-102092380D01*
X102213095Y-101092380D01*
X100927380Y-104632380D02*
X100594047Y-104156190D01*
X100355952Y-104632380D02*
X100355952Y-103632380D01*
X100736904Y-103632380D01*
X100832142Y-103680000D01*
X100879761Y-103727619D01*
X100927380Y-103822857D01*
X100927380Y-103965714D01*
X100879761Y-104060952D01*
X100832142Y-104108571D01*
X100736904Y-104156190D01*
X100355952Y-104156190D01*
X101308333Y-104584761D02*
X101451190Y-104632380D01*
X101689285Y-104632380D01*
X101784523Y-104584761D01*
X101832142Y-104537142D01*
X101879761Y-104441904D01*
X101879761Y-104346666D01*
X101832142Y-104251428D01*
X101784523Y-104203809D01*
X101689285Y-104156190D01*
X101498809Y-104108571D01*
X101403571Y-104060952D01*
X101355952Y-104013333D01*
X101308333Y-103918095D01*
X101308333Y-103822857D01*
X101355952Y-103727619D01*
X101403571Y-103680000D01*
X101498809Y-103632380D01*
X101736904Y-103632380D01*
X101879761Y-103680000D01*
X102165476Y-103632380D02*
X102736904Y-103632380D01*
X102451190Y-104632380D02*
X102451190Y-103632380D01*
X100832142Y-106220000D02*
X100736904Y-106172380D01*
X100594047Y-106172380D01*
X100451190Y-106220000D01*
X100355952Y-106315238D01*
X100308333Y-106410476D01*
X100260714Y-106600952D01*
X100260714Y-106743809D01*
X100308333Y-106934285D01*
X100355952Y-107029523D01*
X100451190Y-107124761D01*
X100594047Y-107172380D01*
X100689285Y-107172380D01*
X100832142Y-107124761D01*
X100879761Y-107077142D01*
X100879761Y-106743809D01*
X100689285Y-106743809D01*
X101308333Y-106505714D02*
X101308333Y-107172380D01*
X101308333Y-106600952D02*
X101355952Y-106553333D01*
X101451190Y-106505714D01*
X101594047Y-106505714D01*
X101689285Y-106553333D01*
X101736904Y-106648571D01*
X101736904Y-107172380D01*
X102641666Y-107172380D02*
X102641666Y-106172380D01*
X102641666Y-107124761D02*
X102546428Y-107172380D01*
X102355952Y-107172380D01*
X102260714Y-107124761D01*
X102213095Y-107077142D01*
X102165476Y-106981904D01*
X102165476Y-106696190D01*
X102213095Y-106600952D01*
X102260714Y-106553333D01*
X102355952Y-106505714D01*
X102546428Y-106505714D01*
X102641666Y-106553333D01*
X100379761Y-108712380D02*
X100713095Y-109712380D01*
X101046428Y-108712380D01*
X101379761Y-109712380D02*
X101379761Y-108712380D01*
X101855952Y-109712380D02*
X101855952Y-108712380D01*
X102427380Y-109712380D01*
X102427380Y-108712380D01*
X107547619Y-71612380D02*
X107214285Y-71136190D01*
X106976190Y-71612380D02*
X106976190Y-70612380D01*
X107357142Y-70612380D01*
X107452380Y-70660000D01*
X107500000Y-70707619D01*
X107547619Y-70802857D01*
X107547619Y-70945714D01*
X107500000Y-71040952D01*
X107452380Y-71088571D01*
X107357142Y-71136190D01*
X106976190Y-71136190D01*
X108309523Y-71088571D02*
X107976190Y-71088571D01*
X107976190Y-71612380D02*
X107976190Y-70612380D01*
X108452380Y-70612380D01*
X109547619Y-71326666D02*
X110023809Y-71326666D01*
X109452380Y-71612380D02*
X109785714Y-70612380D01*
X110119047Y-71612380D01*
X110452380Y-70945714D02*
X110452380Y-71612380D01*
X110452380Y-71040952D02*
X110500000Y-70993333D01*
X110595238Y-70945714D01*
X110738095Y-70945714D01*
X110833333Y-70993333D01*
X110880952Y-71088571D01*
X110880952Y-71612380D01*
X111214285Y-70945714D02*
X111595238Y-70945714D01*
X111357142Y-70612380D02*
X111357142Y-71469523D01*
X111404761Y-71564761D01*
X111500000Y-71612380D01*
X111595238Y-71612380D01*
X112309523Y-71564761D02*
X112214285Y-71612380D01*
X112023809Y-71612380D01*
X111928571Y-71564761D01*
X111880952Y-71469523D01*
X111880952Y-71088571D01*
X111928571Y-70993333D01*
X112023809Y-70945714D01*
X112214285Y-70945714D01*
X112309523Y-70993333D01*
X112357142Y-71088571D01*
X112357142Y-71183809D01*
X111880952Y-71279047D01*
X112785714Y-70945714D02*
X112785714Y-71612380D01*
X112785714Y-71040952D02*
X112833333Y-70993333D01*
X112928571Y-70945714D01*
X113071428Y-70945714D01*
X113166666Y-70993333D01*
X113214285Y-71088571D01*
X113214285Y-71612380D01*
X113690476Y-70945714D02*
X113690476Y-71612380D01*
X113690476Y-71040952D02*
X113738095Y-70993333D01*
X113833333Y-70945714D01*
X113976190Y-70945714D01*
X114071428Y-70993333D01*
X114119047Y-71088571D01*
X114119047Y-71612380D01*
X115023809Y-71612380D02*
X115023809Y-71088571D01*
X114976190Y-70993333D01*
X114880952Y-70945714D01*
X114690476Y-70945714D01*
X114595238Y-70993333D01*
X115023809Y-71564761D02*
X114928571Y-71612380D01*
X114690476Y-71612380D01*
X114595238Y-71564761D01*
X114547619Y-71469523D01*
X114547619Y-71374285D01*
X114595238Y-71279047D01*
X114690476Y-71231428D01*
X114928571Y-71231428D01*
X115023809Y-71183809D01*
X109738095Y-113792380D02*
X109738095Y-114601904D01*
X109785714Y-114697142D01*
X109833333Y-114744761D01*
X109928571Y-114792380D01*
X110119047Y-114792380D01*
X110214285Y-114744761D01*
X110261904Y-114697142D01*
X110309523Y-114601904D01*
X110309523Y-113792380D01*
X110738095Y-114744761D02*
X110880952Y-114792380D01*
X111119047Y-114792380D01*
X111214285Y-114744761D01*
X111261904Y-114697142D01*
X111309523Y-114601904D01*
X111309523Y-114506666D01*
X111261904Y-114411428D01*
X111214285Y-114363809D01*
X111119047Y-114316190D01*
X110928571Y-114268571D01*
X110833333Y-114220952D01*
X110785714Y-114173333D01*
X110738095Y-114078095D01*
X110738095Y-113982857D01*
X110785714Y-113887619D01*
X110833333Y-113840000D01*
X110928571Y-113792380D01*
X111166666Y-113792380D01*
X111309523Y-113840000D01*
X112071428Y-114268571D02*
X112214285Y-114316190D01*
X112261904Y-114363809D01*
X112309523Y-114459047D01*
X112309523Y-114601904D01*
X112261904Y-114697142D01*
X112214285Y-114744761D01*
X112119047Y-114792380D01*
X111738095Y-114792380D01*
X111738095Y-113792380D01*
X112071428Y-113792380D01*
X112166666Y-113840000D01*
X112214285Y-113887619D01*
X112261904Y-113982857D01*
X112261904Y-114078095D01*
X112214285Y-114173333D01*
X112166666Y-114220952D01*
X112071428Y-114268571D01*
X111738095Y-114268571D01*
M02*
